<mxfile host="app.diagrams.net" modified="2023-02-20T13:19:13.750Z" agent="5.0 (Macintosh; Intel Mac OS X 10_15_7) AppleWebKit/537.36 (KHTML, like Gecko) Chrome/109.0.0.0 Safari/537.36" etag="-8UCBiKZ0XzAjGtuRPHY" version="20.8.20" type="github">
  <diagram name="第 1 页" id="_TdEWCRuYPyUPfaV6mik">
    <mxGraphModel dx="2074" dy="1155" grid="1" gridSize="10" guides="1" tooltips="1" connect="1" arrows="1" fold="1" page="1" pageScale="1" pageWidth="827" pageHeight="1169" math="0" shadow="0">
      <root>
        <mxCell id="0" />
        <mxCell id="1" parent="0" />
        <mxCell id="xnBWiJWbl3rXT1r4FCQX-1" value="" style="rounded=1;whiteSpace=wrap;html=1;" vertex="1" parent="1">
          <mxGeometry x="90" y="200" width="180" height="220" as="geometry" />
        </mxCell>
        <mxCell id="xnBWiJWbl3rXT1r4FCQX-10" style="edgeStyle=orthogonalEdgeStyle;rounded=0;orthogonalLoop=1;jettySize=auto;html=1;exitX=1;exitY=0.5;exitDx=0;exitDy=0;fontSize=18;entryX=0;entryY=0.5;entryDx=0;entryDy=0;strokeWidth=2;strokeColor=#D79B00;fillColor=#ffe6cc;startArrow=classic;startFill=1;" edge="1" parent="1" source="xnBWiJWbl3rXT1r4FCQX-2" target="xnBWiJWbl3rXT1r4FCQX-11">
          <mxGeometry relative="1" as="geometry">
            <mxPoint x="360" y="240" as="targetPoint" />
          </mxGeometry>
        </mxCell>
        <mxCell id="xnBWiJWbl3rXT1r4FCQX-25" style="edgeStyle=orthogonalEdgeStyle;rounded=0;orthogonalLoop=1;jettySize=auto;html=1;exitX=0.25;exitY=1;exitDx=0;exitDy=0;strokeColor=#FF9999;strokeWidth=2;fontSize=18;startArrow=none;startFill=0;" edge="1" parent="1" source="xnBWiJWbl3rXT1r4FCQX-2">
          <mxGeometry relative="1" as="geometry">
            <mxPoint x="155" y="490" as="targetPoint" />
          </mxGeometry>
        </mxCell>
        <mxCell id="xnBWiJWbl3rXT1r4FCQX-2" value="&lt;font style=&quot;font-size: 18px;&quot;&gt;MetaProtocol-Proxy&lt;/font&gt;" style="rounded=0;whiteSpace=wrap;html=1;" vertex="1" parent="1">
          <mxGeometry x="125" y="340" width="120" height="60" as="geometry" />
        </mxCell>
        <mxCell id="xnBWiJWbl3rXT1r4FCQX-24" style="edgeStyle=orthogonalEdgeStyle;rounded=0;orthogonalLoop=1;jettySize=auto;html=1;exitX=0.25;exitY=1;exitDx=0;exitDy=0;entryX=0.25;entryY=0;entryDx=0;entryDy=0;strokeColor=#FF9999;strokeWidth=2;fontSize=18;startArrow=none;startFill=0;fillColor=#f8cecc;" edge="1" parent="1">
          <mxGeometry relative="1" as="geometry">
            <mxPoint x="145" y="280" as="sourcePoint" />
            <mxPoint x="145" y="340" as="targetPoint" />
          </mxGeometry>
        </mxCell>
        <mxCell id="xnBWiJWbl3rXT1r4FCQX-26" value="&lt;font color=&quot;#ff9999&quot; style=&quot;font-size: 14px;&quot;&gt;240.240.240.1&lt;/font&gt;" style="edgeLabel;html=1;align=center;verticalAlign=middle;resizable=0;points=[];fontSize=18;" vertex="1" connectable="0" parent="xnBWiJWbl3rXT1r4FCQX-24">
          <mxGeometry x="-0.0333" y="-1" relative="1" as="geometry">
            <mxPoint as="offset" />
          </mxGeometry>
        </mxCell>
        <mxCell id="xnBWiJWbl3rXT1r4FCQX-4" value="&lt;font style=&quot;font-size: 18px;&quot;&gt;Dubbo-Service&lt;/font&gt;" style="rounded=0;whiteSpace=wrap;html=1;" vertex="1" parent="1">
          <mxGeometry x="125" y="220" width="120" height="60" as="geometry" />
        </mxCell>
        <mxCell id="xnBWiJWbl3rXT1r4FCQX-6" value="&lt;font style=&quot;font-size: 18px;&quot;&gt;Dubbo2Istio&lt;/font&gt;" style="rounded=1;whiteSpace=wrap;html=1;" vertex="1" parent="1">
          <mxGeometry x="210" y="100" width="170" height="70" as="geometry" />
        </mxCell>
        <mxCell id="xnBWiJWbl3rXT1r4FCQX-7" value="" style="shape=image;verticalLabelPosition=bottom;labelBackgroundColor=default;verticalAlign=top;aspect=fixed;imageAspect=0;image=data:image/png,iVBORw0KGgoAAAANSUhEUgAAAFQAAAByCAYAAADNnvbqAAAACXBIWXMAABYlAAAWJQFJUiTwAAAQY0lEQVR4nO2caXPcRpKGn7oA9MUmqcOybK883piIjd3//09m98PMxsysrbFlSxSP7kYDqKrM/YAmV7bEA2K31tT0G6FmBEUAibcTebyVBaOqyh5bg/3/NuBzw57QLWNP6JaxJ3TL2BO6ZewJ3TL2hG4Ze0K3DP+pLiQKTRYWKdFmIarijGHkLAfeUziDM+ZTmbMz7JzQrEqblbMucRYTp12kyUIUxVvD2DnmwXNUWGZFYOzsgyZ254Q2WThpE386W/HTuqUV5d1u1xiDNfDdpOLbacXX45Kxd7s2a2fYGaGiIKr8ULf8+aLhtOtoRZHfSAeqiir8o+muwsDTUcHsgZK6M0KTKhcx8bqJvFo3JFXkGhlGgVXM/KIwDx2Fsw+W0J1l+SYLP9Udb9tIJ9eT+S6iCD+uG06ayEOVwHZGaFZlmTLtXZjcICnUSamz7MqsnWNnhIoqrQhpkNyqJFXyA5Zof2eFfZ/x3cOtmnbpoRBFyQMeeW/gqCiYhU/Wb2wdOyFUgaTCOiud3C0eWmMYOcezKnBcOh6qk+7EFfr4qSxipL2FUAMYAyNjOAiOb8YlT8piF2Z9EmydUFF400Z+bjqi9EX7dTDGMHaWWbB8Pa54Pio4LgN+33r2aEVYpczLuuWnOtKJYAwEYxgHR2UNhfUEA972CWjkHLPgeFIFjguPNxb7cPkcTqjCxuuU//vsf3fWJX5ed/xtueaXJgFKYS0TZ/lyVPKkDMyDZ+QthbOU1uJNHz8/FwwitM/cQp2FToSYlVaFOgnnXeI8Js66RJ0Eb2DsPP8yKfl2WjHxjsJZgjF4YzAGDP3Pzwl3IrR/lIWzLnHRpStCRaETocnKMifWSWizYICD4HkxqXgxLXk+KnHm8yPvQ7iRUKXP2IvYx8W/L1t+Xrck1Rt7bb/J2H88GPVJ5iEHxYG4kdAsykkX+X7V8ueLmjrLrWQaYBocx2Vg7N2DztgfgxsJ7VT5cd3xj7rjPKY7KUbGwMR7ZsFRbDL5PxOu7ZQU6DYS3C9NdycyoU80Y2eonP2niJm/xbWEdqKsslDnRNJhcpq5zOT3Nu/h4VpCRRXJiqq5s3e+i4crwN0P1xJqjcE6xRgd5Gm9MNKrTA9Y1vxoXEtosIax85TOEQZlFqXJyjpnHq7u/vG43kOB0pqNnObv7KWqsMyJ85hvFUc+R9xYNhXW8nxcEEVZbLqgLDfXoZcrmBc+UadMaQ2l+50tDOwQNxLqrOGLssRisMbwsm543STkluI+i3KRMn9dNnw7KXg+rrZs9u8XNxJq6GW2oyJgjWEeHGejxHozmyTaP+JJoZNEI0odc796GYUfVg2iSlKYF56Jczj7eZdTZsgukKz9ksYyZtqsyOZ3UZQ6Z866xEkXWUWhyX0MPSw8T6vA81HJUeEonQMURRGjWO3r1sJagrUUxu5UzlMUUSGpICp9jN8oX8FY7Obfx2IQoZdaqNInm8ssrtqTG0VpRPjbcs0Pq4Y3bUK193JvDcH2ozaZSNRI0tyvJVnH81HF16Mxz0cTRu7uSXAoWonUqeUsLlnE9ZUNhQ0chRkHYcTIFR9N6iA99HL9Z/OV/uZ/oHIwUYtORgRjSVJzERNtzlzETKcdtXSIJiIZVcEYxRvHy7Xnr2XFd5MpL8ZTvh3PMFv01KyZ87TipF1y2i6oc0ubI70rGJxxvHVLDsKYJ+WcgzBi4ofH/q0ugRjoh73KgAVOu0giUzfKKjcsUsN5rj/Yyr5qYFwv+aWtWefEcVEycp7C3n/GKatQ545X9RmvmlNO2vNrauQFZ11JKx3POaZyBdYYhkT9nax6GgOVt3w1LlmlxI/ScJ7WLPIauUEXaLPyP6s1pTnnKHj+dXLIk2p8b3vq3HLSXvCqectpt7yx4Wik48f6BIdl6ismrsLbu9O0swKxtIbjMhAc1NLSaS+y3HQzmX514KRr+K/FGWex3Yoty9jwur2gTu2tQk9WpZHIIjactAvWEgdda2eEOmM48A5nlHWOgxSri5T4vl5wkbYzhVenhotuSdR852PW0nDSLYn6OyHUGkPhLNYomcwQ/SlKP4vfSGYbe3ujJhqJN4ab3yKJ0ObIHQdfrrAzQs3m5GFTXw65UH9sPzouKtzcl90OUSVrHnQeZz5uE8XOm2xvLWPfd0h3hTPKyIElEzV/tMCigKBkhHxL/H7PBusY+xI3sB7dOaGFtUy8H2RYaeEwCMYkWrmsFYdDVUiSiZJIA8PH2BUclweULgy65s7mBrMqdU4owjQ4ZiEQJdPkjFzz6HmjjB0cFsphgCQN592KkStwZng92kniItWsc7zzVxKsY+oqjosDjsOMckDJBDsiVFHWkjnpWlpJTJ3lqCgBOI8tUeSqXTXarwo4A5XtyTwOwsQZ1mnNabfksBjjjRvk5aLKOnf83JzTpOaDf9OfrVfSrLEE65m4kkflnCflnIkvB9/7zsYZVyny/XrFaexw1vKsqph5z1kMLFOkSYkkgiHjjDANwoFX5kEpN8lgkWpcC0fFFG/8nVtBRYmSuIg1P9ZvqPP79awxZiNLWoLxlC7wuDzgUXnAk3JOaYc96lfn3cY7RxTIIqxFaFLiJLW87TpOuuZq4HbuC8beU268TLjcAKZYFEwGEiIty1RzHldkFYJxHIYZx9XsymvG74gXqnrV84sqde5YxZqTbsFJe8FJt0BU8MZyECZM/Iip77ufYC1mQ6o3lsoHKlNetZwfg0EeeinfdZLpUMi9BCd62S9nlily0nUsciSJMHKeqQ98UVYc+4J5ESise68kyZppJbGKDW+7BaXzLGLNKrW86c5opaXJLVNfUlmPNaAIQsZgAYOqoc1pc0wvgGQRpr5iFiY8KQ84LCbM/JjSeazZ/qT0IA9dpMhp7HjdNJynSJ0SeaNtXu7cEPhVNv16NOG7yYy5D1Suv/HrbuJyQDJKT+5fFi95Wb+hk7TxRGjzikZqEmuyRIQEWCweS8nYTRi5KZfVrDOW76Zf8mLylImvCNbdaMN9cScPbSSz6CI/dWvedC3rnIgi5E1i0Q8siRTWMnWBx0XJYQgEY2+9DbP5DLZPQE/LQ7IKP63fsogLmrykyTWtNggJVeHya+gjYksrDXWumfg583DAcTHnuJwx89XGI3e7XnAroVmVRU68bGt+bhvOY3enEwcsj4qCeQhUAyU4Q9+lHBVToibeNKe00rDMF3SyJn+wJ89AJudE0ogznsfFAU+rQ+ZhNEgxug9uvIqgRBXOuo6/10vigPwVnOUwlIzdx9/I2JfMcoUxStSGdV7eeowgIJF1XiJ0PCpnjNynWyS8sbBThUUXWabYr3QOINQYQ+Uc/j7rMxiMMRgydlC3pCTtUDKV9fiPaAo+FjfebVallsw6D++nHeDN/V8mYBSs0YGTfErWhJBxO170+y1udZ+kl8lnmFEG029I+GjT3j0XmAFKkWw++2Q5TGW6L268334cp99oYMwwo5R+YOy+803G9lLaEC+z9PtFLZkoERkgLN8XNxLab8zyjL2nr97ujgx0yODZ0vdsUMXajOXupBjTD7tZm/uadaDqfh/c7KHGMA8FBz5QDIyHgrBK6c57Pa+FEZxpsCYNOYiRswSTWKVzOv2wOLIL3Oyh9KQehoI/zuYcFeVmWfV2xCy86VqWaQgRv0aba9ZpQdI1wWXmm7n9mxCsYeItE+9Q0/Kme0kdF58sjt5aJBpg6jy2GmHoY+oqZ1IWMv1eJYUrRfzyJS2d9PXr3AfmITB2d5ff+skUYZFOeRtfkaWhsMq88ISkdGJQ7YOQwEY1Amsg2ExpMyNnUe24iG859a8p3ZiJm+FtsdNuaVAv30k/c/+6a1imSJ0zWZUkSiuZToUk8qt29GlZ8U015mk1Yur8lTL0oVvqj1CyRqIk/rr6Ez8339PKejNlYkniEC0QrUhqUQze9J5bOgHWKDWiGVFBUObhiOPiS74afcfUH2DppbmrKZhLMrZA9CBCZSOCtCJkETK9e2YDZKXVzConXrctp6mjyZlgDCPneVSUHIWCuQ+UzlHaXri4vIWsHZ20rPOC83TKRfeaRTqlzisUZeYPOSq+YOqOKOwEYzyqfTF1GYacUVQTra45637hPL7hPL7FGU9hKyZ+xsTPmfpDClsSTLERl3vlqbIjgikx92hGBvWFl3Oiwdm+cn8XoV96XUtmbD3jzvGqaVhL5jwmYhYWqWPsHN70fTf0s02238SDaAN6wTqfs0xniCac9Rz4Y46LZzwunzNxMwo3utab+sm6yMiOKGyFotR5wTovaKVmlS5Y+lO8KQkmbF7E5bA4Kjdm5KZM/ZzSjgh2uGK/FYH5t1BVTmPHf68WvGlbFjkCimg/MLZKC9Z5SdQO1YRFKF1i4hIz3zGyGWcUi2Hq53w7+XeOimfM/HyQHYt8yk/rv/O6eclpfHPr3wdTMPUHPBv9gcfFMw7Co8FhYEezTX39+s1ogqhyse5IEmllxUU8I9KRJaGbgjtjaLMni6XJjgMfOQ4tpRsz80cchEeM3WSwHZWZ8Kx6wTotOUtvr1YIrkPWyDJd8I/6L0RpsdZR2QnB3P0NEzvTtAprOQoFb30gGKilZpkuaKT+YOeS1JDVkbSfNilsZhZmTP0hpR3hzHBTvQ1MzAFjN6WyFZ2010h/PQRFtCOmjqKrKO2Ip+VXBH93Qnc6ilM5R+Us3pheaU+rG9vAfo+TocmeRS5wZsrEzwYPG1yi11U9pRszthPse4H/eqzSBb+0P9BIPeian2B7huJMQkhk7lbkJzXUyaOUfda9p5neeLwdlr07bVmlC6J0g5qCnRNq0I2wct14w/sQDJ1awG1IuF99aI3Hm4IhE1ZZe2FlqLyz83UBa8AzbAq4n+M3GCzO+HuPhjvj8DYMVKzMJtQMu/bOPbS0nmko8fbul3IGghVKX1DY6t6PfGFGjNwMOyCxeVsy9QcEM6xV3TmhYxd4UoyZ+lFfSN/hmNJZHhclM1dR2Oreinvlx8zDEWM3pbB3ydiGiZvxqHxO6UeDrrXzR37qA8qER8WUs1iz6Jbkvml9D5ebHua+5MVoymGYEu5EwM0o7YipP2IeHpOl41xPN33+r+Pj5WiONQXz8IinxTdUZtiM/yeIoZaxC/zb9EsK6/nPix+oc0OU9zO+x3BceL4dH/MfBy+Y+tnW7ChsxVej7xi5Cbb5G8t0zjr/uiRy1jNxBzytvuFR8YxpmA/er7RzQg39FPOTcoIxUBjL27jkPNZ0ElHN/a4R65mFki+KCc+qY+bhcKurlc5Yxm6GFgZvPKu8oMkr0mZTgjGW0o6Z+Bnz8IiRm3xUM7GTXv46iPbr/L+0C066Bcu8JkvCKhyWBcdhwnFxRGWLeyk+d0GUjlYbYl6jgMNT+TGFqe5VVXxSQuFy1FBImsnvjNK4zQScN+5eey2H2KHvxNG+SLP3/iI/OaGfO/553gzwibAndMvYE7pl7AndMvaEbhl7QreMPaFbxp7QLWNP6JaxJ3TL2BO6ZewJ3TL2hG4Ze0K3jD2hW8ae0C1jT+iWsSd0y9gTumXsCd0y9oRuGXtCt4w9oVvGntAtY0/olrEndMvYE7pl7AndMvaEbhl7QreM/wXSyXdIdNSpBwAAAABJRU5ErkJggg==;" vertex="1" parent="1">
          <mxGeometry x="210.83999999999997" y="112.5" width="33.16" height="45" as="geometry" />
        </mxCell>
        <mxCell id="xnBWiJWbl3rXT1r4FCQX-21" style="edgeStyle=orthogonalEdgeStyle;rounded=0;orthogonalLoop=1;jettySize=auto;html=1;exitX=0.5;exitY=1;exitDx=0;exitDy=0;entryX=0.5;entryY=0;entryDx=0;entryDy=0;entryPerimeter=0;strokeColor=#000000;strokeWidth=1;fontSize=18;startArrow=classic;startFill=1;" edge="1" parent="1" source="xnBWiJWbl3rXT1r4FCQX-11" target="xnBWiJWbl3rXT1r4FCQX-20">
          <mxGeometry relative="1" as="geometry" />
        </mxCell>
        <mxCell id="xnBWiJWbl3rXT1r4FCQX-11" value="&lt;font style=&quot;font-size: 18px;&quot;&gt;ZK-Proxy&lt;/font&gt;" style="rounded=0;whiteSpace=wrap;html=1;" vertex="1" parent="1">
          <mxGeometry x="330" y="340" width="120" height="60" as="geometry" />
        </mxCell>
        <mxCell id="xnBWiJWbl3rXT1r4FCQX-13" value="" style="shape=image;verticalLabelPosition=bottom;labelBackgroundColor=default;verticalAlign=top;aspect=fixed;imageAspect=0;image=data:image/png,iVBORw0KGgoAAAANSUhEUgAAAdEAAAIICAYAAAAxGtThAAAAAXNSR0IArs4c6QAAIABJREFUeF7sXQV0HLcWvQv22muGOHGYmZmZGm4aZmbmhpmZuQ1z0qZNk4aZmZkTx4kZ1l7+52k9C/auOeB+vX96fryjkTRXGl090ogKFSqkBxeOAEeAI8AR4AhwBJKMgIiTaJIx4zdwBDgCHAGOAEeAIcBJlE8EjgBHgCPAEeAIJBMBTqLJBI7fxhHgCHAEOAIcAU6ifA5wBDgCHIE0goCzqxvraWR4OPR6XRrp9X+7m5xE/9vjy5+OI8AR+I8gkKtAEbTpPgRqlQqLJw+BSqX8jzxZ2n6M70KiTbOp0TpfON6EyvDrFac4CEpEhp90eiB26DBdEsdc1/7AccU1fLXoWTgMX6LsMPyCMzQ/cF/T9hT+/r0XSySG+arVJqkzhUpUwE8tOiA8JAgbFk2FRqNO0v3fq/Avnfoid4FiuH/zMg7t+f17dQNlKtdG9QY/44vfR/y+bMZ360em7HnQonMf6LQ67PltGT59ePtV+tJr5FSkS58JNy6ewpH9W1PchlgsAYS1NolzN3bj5nUJ1/Q6HfT61Fn4kvuOJQYkoW6rZfV66HTxa/zfhUQ31AiBu4OG9Xn0eU88Dxdb9H9VtRCkc9Rg3k03XPlsZ3GtagY1BhUPxeswe4y46JoYjL5LmTXVQuEtNyyKU6944E6QYaHlkjACWXPlQ/X6P+Oz3/tUWSwSbjFlJYZMXghHuQtmjeqZpIoGjJ0DN09vds+OdYvw8sn9JN3/vQqPnr0aUim9l3osmTocEWGhqdKVZu17wdXdEzvXL4FKGZVgnYMnzIezmwcrt3HJdPi9e5XgPV+jQOtug5C7YDFW9cVTh3Hq0N6v0Qx+nbMWtOCvmTseAZ/9UtRGpTqNUbVOE4hEImg1asz5tW+K6hs0nsbC3aIOmtOvnj5IUb3CzaNmroJIhBT301pnhk5eDEcnZ6v9fP/qKTavnBvvM3wXEq2fWY3muRV4E26HGTfkcTo4rJgClTIqcPKdE1bcd7S4PqNcJPJ7RuGPF27Y8tSSYFNltFKpkkrptehUIAIBUVJMvOqEH1lrTqVHTrVq8hcthV869cP718+xafmsVKv3a1U0ZMoiyOUumDmyR5KaoOes3bgVwkKCsW3NfGg1ho3ljy4NW3VB7nxF8ODONRw/uDPVuttnzAx4eWdgpsrIiPAE6y1eriqq1G6EL/5+2Ll+UYLlv1YB3yw50KR1V2i1Ovy5cz2++L1P9aaq1f8ZlWs3QlhIIJbPGJ0iDa/TgF+ROVsuRqAkNO9mj+mdoj636TEEHt7pWB1uHt6QSKTYsXYhXqYSiY6etZppzXPG9ElRP63d3HXQODjILXnIzSMdJBIJ3r96hk0rZv94JJoQCjUyajGgWDC+KOzQ54zBkU4iEwO/1w6ERAx0POYFZdKsZwk1y6//IAj8v5DoDwL3D9ONpJLoD9Pxr9wRsViM4dOXw95ehgNb1+Dh7avJbrFpu54oXLI8lFEK7N+6Gr906s/IIqUkat6hLoPGIVPWnGmGRGOD2aBlF5QoVwXhYSHYsHAKIiPCkkai9hKgY95olPGJhqOdHmot8DlKijX3nfAmwtLsuqQyVa7HlifO6FogHM72eqi0wK0vMqx9KIfGzJRcOp0G3QpGWHQmUi3GSCsmWfJ5bq0dBHuJDgPPesFPYdgx5XbTYU7FIESoxeh83NOiLlc7YHCxCGR1UYOeQaEW4conB/z+xMGinL0YWFwlhP129K0T6mWNhNxOD6VGhBufZVjz0FLzpXItcqlQK4sCjhI9JCI9VDoRngTbY91DOYKVMU4FAHnctBha3HIHrdOLMOS8mwUW5h0qk06Ldvki4C4zgBWmFGPfC2ec9bM0//YsqECJdCqceCdH8XRKZHHWgO7wi5Rg+R0X+EWZ+mFef4UaP6F8tXpQq1X4a+cGvHnxJNkvIN2YPmMW/NK5P4IC/BGliECOPAVB/hBFZASOHdyJF4/uxqk/Y9ac+OmXjnBxcwctCIrISFw+dRi3r54zls2epyAatOjE/qbFwsnFFRq1mk1kQWjHvGbeePZnn1Ez8MX/I/ZtWgEXNw907DcayugobFg0hV3v2G8UnJzdsHruOOP9zi6uaNymB9JlyASpnR0r/+zhHRz9Y7tFn2kX3WvkNLZTv3npNEpVqA6ZoxxqlRLPH9/D4b2bLcrb0kR/at4ROfIVQnhoMLasnMPu8c2cDT93jGU60+uxdsFE9ryxhZ5Tq9Xg2vkTTBOxlzmwfjy8ex0nDu6yjnXzDnD18GL1vXv1FK+fP0bFmg3w+O51nEymqbFGgxYoUKy0RXsf3r7En9vWWp1PhFfzDn3g45sZdvZ20On0iI6KxOXT/zJMBaEFK3vu/OxPMuXSgh4c+MWizj+2rcHHtwZTbc58hVG/eQeL6+bjbq0zRBqVajWE3NkV0OvZnDpz5A88e3g72e8CmyMjpkIktlwTzfsau3KvdBnQlEzWbh7MLEt43L5yHhdPHoq3HzIHR4yYvpyVWTR5CBRmWnrFmg1RvFwV3Lt+EeeOHbSop1y1eihVsQY++73D3t9XsGvNO/WFs4sb9m9ehYjwUIycsTJBEqV6qA25kzP0Oj3Cw0Nw/thfeHLvptV+J4ZEvXx80br7YIQEfWH/5SlQHBKplK0px//ajWcPLMdG0ET/2LaOWW8IE5rfL57cw78HtsV5d2j9qNmwJbLlzs/WE1r/Avw/4sDW1YhWKGzi3bhNNxQtXQnBgZ+xecUcRJitP7ZusjDnEsFMLBOOAp6GqC+VVgSpWM8CedQ6EUZf9MAbM//lzrpBkIh10OpFgF7EyjvZG9TDM++dsPSeiZBqZVKjX1FL30m4SoIuJww+jdiytEooMjmrseS2G876Gcy21TKqMKhYGB4FyTD+iovFLRtqBsNdpkW0RoxItYT5XInwrvs7YNZNk71bJgG21w1g91LgkkorhlIrhqtMw3zsZz/IseSuSbWvmVGN/sUM/aa61VoxXGQGs9vbMDsMvWDSlIt5aTCxrGnRF9pod9Qbaiu+6coZNBhcPMSIL0VR2Un09J5j2V13nPkoNT7jyBIRKJ8hmmFMgVeEnYtMy54xOFqCHqes4zhg3Fy4eXixeq5fOMkmXEqEdpj0kmjUKkjt7BERHgIHBzn7Nzngf18208I3lSlbLkZwtDgS0RIhuLgafCfH/tyBq+eOs39ToErr7oPi7Rq9NHN+NZhzRs5YwUhw6bQRyFuoBFp2HcDaXzBhIPPxjJy5CjqtBnPH9jPWOWTSIkbOFOxARESEREK+SPLfCEL+vlGzyAcjYnVq1Wqo1ErInVzYbw9uX8UfW9eY6rVizs2dvwhadB3INg27Ni41bi7ope7QZ6TFc1J/5o3tx1702DJm9hrDQk19VqsYftQPNp4XT+FfswATIok+o6bDUe7E+q2MVsBR7sxIgzC/e+0C/tq1MVnD36JLf+QrXNLiXtqQbV0V118kkzmgz+gZcHZ1Z1hHRUZA5ujITHz09871i43+35ZdByJvoeLx9mnLyrl4+9Kw+SNCJG3KXKKjFGzcrUmZKrVRp3FrhiHbpIhEkEql0Om02Ld5NZ7et04ECYFkmCMrIRJZkqh5X83roI1e/7GzGQZsTmnUsLOXsSJXzh7FcSsbIuF+Afv3b15g07KZFl0rXKoCmrbtwRb9lbN+tbg2aMJ8tsHcQXg/vseu0QYyJPCLca4lRKINWnZG8bJVDL5TrYaNHz074ff37t8ZeceWxJCoj28W9Bw+mfXDzs6ekae9jOaIhNVNm873r18YqyYSJZKl4D2tVgu1KhpOLoa1N/b7SHOe1px0GTKy6xTFTG3QM9B7v2jSEKvvWqNWXVGsbGW2Od+xZoHFBj6++WBBotldtFhQOZgt1DOuu+NBkAQeMmB0yXDkdlfiwkcnLLxjIkYiUTuJDg8CZZh1wwXROqBCejWGlQhlYbW9T3shMNqgITlJAS8HA5NkctJhRMkQRgS2SLR3IQXqZlXg3zdyptWSTCkTicLeUdjxxA17X5r8of0LR6Fmlki8CJFh2nVnhKtFyOGiw7TyoZBJtJh21RN3gwyT3ZxE7wc6YtYNJ0RrgdqZ1OhdJIxFA/c77YmAmH7PrxiOHG5K5p9ded+RXc/pqsP40qFwkOgw+aoHnoYa6naQAD6Ohmd0tdNjSvlgRtS2SHRltVCkl6uZdklaLSHVNEc02uSNYJsWMlkL5CuQaJhKggmX3fA+UozsLjrMKB8CB6kO6++74/A7E+kKg96odVe2s6IX4K8dG/DwzrWE1od4rwskSpF3jBwe32OLervew5mWSvUf2LLaWEf3oZOQIVNWpnUe2k2RnCLkKVgUtHjSy7Js2kijucQ7fUY20bPnKYC6Tdvi04c3OLhjg7EueoFpN0lCCwSRxoLxA9jEr9O0DdOID2xby/wYA8fPQ2gw+Y9GsfINW3dF8TKVmQa9fc0Cdi1H3kJo3W0gxBKpxcJuTqKvXzzGno3LoFJGo2iZymjUqgtbSFbMHI2wkCBWtzVNdPCkhWzHf+nUYQvtjxZO95hgIgdHJ3Tqb/BvxUeitHg8uHUVB3esZ36hUhVrom7TNqztuWP7spQHEtqhk9ZA/dq6ah5bWElzo8AX0nxSQqIubp5wcDS8+4VKlGOanS0S9fbxRe9R09mcW79gCgI+f2QbFrJGEBETprs3LDG8M45yttCT0EbIw8uH+cFpgyRISFAAW/zY++vgyDRWEg+vdGwexUeigycuBOVW0jicOXIAEqkdqtVrhrJV6yA8NARLpw1P1vtA89TLh+ar4fZ2vYazdmyRaMf+Y5A1Rx6mUZP/m+ZToZLl0KSNwY++bsFEBPjHDRai5x02dSnbjK1bOBmfP76z6K+dvT0GTVwAe3sHrF84GV8+fWDXaSNF95HQBoMwsiYJkShtVmnsDu3ZhEcxawf5Z8tUroXAz58sLD1C/UkhUZr7+zevxJP7t9g60qrbIGTMmgNP7t80as9UL5EoWY/evnzK3l+aWwVLlEOzdj3ZmkHvI80TEloPiBDp7z+2rcWHNy/gmS49I1Z6J88d/xtnjxyIA0ff0TPgmS4D2+SEhwYxbfv21fMJzg8LEnWy06OopxZRWhFuB5jMidUyajCoWAjehcsw5LxJAyQSlYp16HPay0g61OKOuoGwl+gx+Jwn3scyAdP1XK46zK0UFC+JVsqgwbASIfCPtEO/s26Qkj+0ZjAj7c7HvRjxCbK4ciiyuKgx7rI7HgebiEQIUNr9zAW7nht2feYk2ue0J75EmXaSK6qGIoOTGotuueP8J0M9iyuFI4urEn+/dMFvTwx1JEY8ZXqsqxlok0TtxMCWOoHQ60XMNK2K0VRd7PTM70vS/ig9p+EtFUh09zNn7HpuMlEPLRqFypkicfa9M5bcszRdC/30yZgFivAwZr5JqQgkSnUtmTLMWF3JCtXZIkkv8dr5E9nvtHALZqi5saL/6HdaINbMm2AkRqGyxPhEOw8Yi8zZc2HD4mkoWKwMMzWS5nPlzL94cOsKM7U9f3QXu2IW657Dp8LHNxN2b1yCZw9NJufWPYaAtMYLx//G6ZgXy5xEV8waw3bugvQdPZO9kGRWenDrMvs5Nom26z0COfIUYBGUvy+dYUEI5viTVkzacUIkSloURcEqYnwzDnInDLeyQFIwFmFHZvWrZ48Zm2rbaxhy5i2UIhI173f56vVRq1FL2ySaPiN6j5zGAlbIcpDYNIek+kTJVNxz+BSbJEqL7sjpK1jq0MJJg42BWx7ePug3ZhbTRmLPy+S+H4LWZ41EafxovpM2RIRmvkHo9+sstnHYvXGZVfMybfTa9RrGSGPeuP5Wg88ETfXy6SM48fce9gi0eWrbcyhCggOxcqbtQKSESJQ2PXro8fT+LSM0tCmmzTFpjwsnDo4DWVJIlEzaC6iOmFSYIqUqoEnbHgj88gmr55hcMYImumzGSISHBBvbJF+xg4MjNiyeik/v37DfCc/0mbIgJDCAbcQFqVS7EYv6f/fqGTZbCRZq2rYni5Z3dXNn/0+HWdB7npAPOk50LmlTFTKoIJfqQKRK4uWgR+0sCvhF2mPAWVNaCZEoAdz2qMFcKAiRg1yqx7DzZP6Nm9qRGBKlurbVIb+oHr1PeSKdox4zKwRZNV1uqBnEfIoHX8ktyLyQhxrlMqhw5LUT1j0y7KLNSbTHSS8Ln2avglHI56HGnmdyXP5sINHWuZVolSecaaCvQmV4ECjFq3AJXoba4V2kdT8k3ZcQifo46LGqRiBClRJ0O2kyxdJmYVc9w46qwzEvRGksSXTlPReceG8i8za5lWiZJxxXPskx91bcSOfkLgq27hNI1P/jO7bzFYTSUjr2HYWgL/5YNWcs+1kgCVqsTv2zz6LKqnWbMc2GfJix8+oSQ6L0otELRyRZoUYDZrp1907HtNCr506g2+DxOH14Py6cMPibhEVu0/KZFmYiIerx5sVTOBxjGjUn0WXTRiAs1PTS1vu5PbLkyI3zx//G47s3WN1Eok5OLqxdkViE0hVrst3s2nkTmOZrSxJLosICKtRD2uyomSvZn+ZaRvs+I5l/8c8d63D/hoHgSajPpSvV/GYkKnd2AbkRiDQiw8Pw4d0rvH76AEEBn/H2xROrpjTqZ2qTqKdPBvQdNYNp5summ0zo5CMbOXNlqkSlChjHR6KkyZFGR5aXWaN6WUyHzhQpmz03cw+QWTK20CaBNgt3rp7H37t/szqVBBM3WWloU0rSddB4ptH9tes33L1mW5tKiESprgLFysDJ2QW0eSMh9025anVtbl6SQqKxtVk3d08MGD+P5U4vNRszIlHSOGMHQA2ZvJj17bcl0/HRLMWJrBW0kXWQO4O0dRKydBUqXpZZA35bOt3me0kXqv/UnFlbKKho8eSh8Za1IFFfuQ6zK4TCOcavyXydMUK+t0STaO1AFqyTUhJdUCkM2V1VWHXPDRq9HgOLhuGGvwNmmvk4qXsCiZr31/ypj7yWY+PjhEnUGlKOUj16F1SgTHolM5sKQmbavc9NGm7sexNPolJ0O2nKr5KKgF31bZPoinsuOPkDkOinj29Z5Jog8ZEolSE/hjX5bck0ECGbS2JIVNhV/rl9HZvw925cZIsR+UPuXr/ITJvk+6DdMomRRJfNBPmWBKlatymq1G2CxJKotWcwkKhlzjItaOsXTYk3bSW1SZTMVVlz5gVhQgchCFLv53YoXanWNyNRapf81HWbtWWmVyGVgn4nIt2xbqGFdi/08+uRaCCWTTeY9UmI3MnnnRqpHUKdiSJRrRazRluSaKf+Y5AlRx6rJEpm//5j57ANWXw5yDTnB06Yx/yzy6YNZ0rd0CmLmQWALAHxHQISH4mSJannsMmMfEioHlIm2IE3LDDKui86KSRK1hrKexWErEmDJy6wSqLWUlyskShp4WSVsZfJGAbCYQk0D8ksnhgSTYq1woJEp5WNREGvKOZbnHvTGQExkadFPHWYXC4o8SSaSppop3xRaJozEodey5HBUY9S6aOw6aErDr4x7CwEEUh01EUPvAiN/1CD+DRRq6t8zI80cSpl0CK7qwZFvZTI6a5ik2nsJQ88CYnbZuJJNGmaaFoiUfJZDp28KF6flTXME0OitPDQAnTx5D+g4BGK6KPowVIVajATDvlVzXPKUksTtUWilCe6d7NBO2zevjcLgkgoHSG1SVQwTf+zZxNuXTlr7GqLrgOQr1CJb0qiQuMU1JavSEkW0FKgaGlmwn/17CHza8WWVCfRdOlB5vfYmqigyX9zEo1HE7U2V8pVrYvaTVozSwhZROITMt0SeVw48TeLmu02ZCKLCl86jTRw26cGxUeiFAVN0b0UP0BxDhSNTeLu5YP+v85KHRL94oc1c0wk6uruhYHj56aIRHuPnA7v9L7Mr0rvAgU0khQuVRFN23a3IFGD+daDzRF6TkGcnF0xZPKiRG20LEh0c+0gZsZtccRwioogNTJqMKBYiFUSJZ9o1xNeLJhHEMEnOuScJ94l0ydKdZVLr8WoksF4F27P+uUm06L1v5amYyon+EQnXXHH/SCTT5TM0A4SPSLUIoSqDP1LColSVLK3gyFa9ktMoJHwjMuqhiCjkwbzb7rhkn/cQx8SIlGqZ1e9QBbZ3CUJPtHkkKi7ZzpmQotMRZ9oYjRRekYyw5DJf/74ARY7YvIr0s6QnP+xDxkQSJQCAija15aMnrUKgV/8WUDT9rULIJM5Mn8KRaNSYMXCiaZo357DpsAnY2Zm/iVfqSCtug9GngJFWZrBqX/2s5/jM+da60tsnygFOZWtUodFg5JpWwhAin1vapNo/ebtWdARafYU3Ui+N/IPkUmQTFq2AosouIfmCJkbAz/72bQaCP1PyCdK9bEUBI2amXMFEfx0lDZAPt7YIpDo8pmjERoTJGJz8AFm5ozPJ0r30ik/ao2KWSWEeZYYLYMCTCjKmPpqnmZlqz/xaaJ0D5nfKYI9tk+075hZ8PT2YccFPjVL66Ao1YET5oMW8yMHtuHGhZPxQcFiApp37MtcIxRQRhsW8vGTrz8+iY9EiYgpJYsCoV4/e2SsJkPmbOg+ZKJtEh04Dpmy5cSe35db+FLN+yFE51K6yYKJpshqIdrYmk80sZooYU2b2Nim8yp1mqBqvaYWJCoE41Gq2+6NhkAsEkrBoUj3xPjNLUh0VdUw+DipsP+5K7Y9M2h7FOgyozylm2iskigF+tz54oD5t51ZJGkxTy3GlAmOE51L9dAhCSTZnXWYUDaY5XsOPmfyB4apRCwQx1y21gkC3UY5o1+ipOh7xvJoKSo7pFgUqmSMxPMQGaZcc4ZCI2L9nlcxDOnkamx+5IY/XxuILikkKpcCv9Wiwx302PDADWc+2kGhAdzt9VhYOYSR+qwb7rge4z91ttOzACgSKrOgchB7nr6nvYxn5xKhC/mzdLyhj1yDv145Y3dMsFDtTCp0LhgGrU6E9laic5NKohSiXqJcVWbWoN2uEGEX75sVz0XBJ5pYEhV8OnTeJwW80EJmCPefw8LZV80Zh6AvnyxazF2gKMsho3w4ChgQTMHk94xSRBrLUgQsLTK0+M8e3RvZcuVDh76jGFkHBX62MBM1adcTRUqWZz7Kzctns+jIdBkzo1O/MczEQ4sYvUgkKSVRqoOej8xxLx/fx86NS0DRzCRE7hQNTEKaMwVA0disnDUG6pg8UQq2EBZ8SnFJrE+Udt8U8EH9JwIl8vb0Tg+tTsty5WyRKOX95i9iSF85vG+LRR4n/UabHZZjGSOknVSp0xjvXj3Hvhjtmy4Jm7QipSuiSZvuiI5WMC2D/ErUpwq1GrIThoID/LFytsFvbi5dBo1Fpqy5WCQynYQkLAVkkhdMknQ8Gzunlfm4fFm6ED0rzSNBFJHhRryFtCYKuKH8VDJ5Uu50pVoNWKCdeXCccD/lF5N5lOaneYS3eV9pk0CkKEiPYZNY5CcRx4c3Bo2N0sCEICLBxPnx7UsWCa7RaFgOY6suA5h9lOILPvsZImtJyJ9Jfk2KSjZP04oDWswP9E4NGDeH1UvCDlAYHfcUItrgUISyIBTYJBFLsCwmip0WbmHj06bnEOTKVwSP799k5maak6TF//RLJxQpVd4mibbo3J9ZH8htQvmo5mfPCnNEIFGa+xsXT8fnT+/YHG3TcxgyZc3B3kVzUrN1YpE1cy5pkLQuUArOnZhcdNok0lpEJl5zcy6tNRQRzFKv1i3C+zfP2biSFk4Bi7GtGNbwtyDRJtnV6FzAEMEZppRArZPA01HFcillEp1VEiWCIRGLLNnvsp8T5t02pcMsqhyGrC5x8+DMOzX8vAdexwpEmlPBkF5Dcvq9A5bds37G4aZawcyXS71QaiSQSbXM3ErH7vU+bSLepJAotTmgcDRqZDEdEkHkJjyzQi3BwLPuCInRcqeXi0ABz2hb85z9vuCWKy5+Mrx81TOqMaBoqDFMXriRnmHNXQ8c+2AyEwvRuUklUWGHTHXfuXYef++yHpwQb6fNLiaVRMnsSgFHFKFoyM9UsYlM8ubFY5aKEVso/4vMcDIHy2jj2JqpkD5D0XpLp49gWhctCiQUTUgLmrkMm7qE+Uxjy9tXz7DFLFovNUiUIqK7DZ7AFrP9W1bh0Z3rrFkieSL7+OTAtjV4eMsQZJIUEqXyhYqXQ4OWndhCQHhTIjulopQsX80miQ4YNw9uHoa0EWtzRAiMSWiOkLWBSINtkn6dzbQBEtoEEQ6CnPn3D5Y+EFuEyMzYv9Ph/EKUZfdhk5AhY9Z4u7JxyTT4vXvNylSoUR90UIS5X5Z+jy/yktKESEMxlNOzoCQyjZpLw1ZdUbxs5Xj7QVHilGJBQr5h2ljRhi223Lh0Gkf2bbH4uVmH3iwI5u3zJ9iyOv6zW4UbBf8q/W1r8afDFkhLtSXmwU/ZchdAu15D2aZFqYxihxQIn2KjfFdbPlHvDBnRY+gklhMbW+ZPGABlVBQEEqUcTiJPcyHMKf+Y0lkESQqJ0rGUlNtKwjIS9HoWuU8bZ5rLsX2iQixB7L7SvCXLVULn/8aJzm2aXY2OBUKFw/3xMYL8o05YVCUIHyJkGBwrxYUW/ClX3DC5XChLPyG59kmO2bEiRRdUCkd21/g/3TPorCc+RFpOsl9yRrMTfUjW3nfHv1ZyIYWHF3I62eQHcNPfCTNvWp5ARAdK7IiJfo0dnWtrYnXJq0LjXJZHP1G6z9RrzggyO7FocplIFPGO/+Ds2TfccM3sUP1CHlqMKRUKuZ0BO6VGjEW33XHtiyUOw4uHo6KvEsvvuuLUB9MOWIjOPf/RCYvMcniFZ6nZqCUqVK/PtBk6tcTclBnvCmDjYsYsOdB18HjQjvq3paYvZwiBReYRgkIVpA11HjgOcifTF3sunjqCU4cM4fjWhBadtj2GwNPH17jwvH3xFFtWGU7+IWnUphuKla6Ed6+fY3PMGbvDpy9j0YNnj/6Jc0fbfP/VAAAgAElEQVQtT3Che8wXYXpZaadKOXDmQou/EA1IeYSUTxifDJ6wAE6ubnHOzv2pRSdGXgpFBBbFpAII6Sbx1bd300o8uWeI/KUAGJ1Gg/lmhwnYis61VWdDSpgvV9UmiVZv+AsqUYSzTsfyN1/EOgg/sSRK6SLCgREUydl98HjmPxOE6qcobUrFsCUlK9RAtbpNIHcxab7rF06B/0fDl1Fo7tEcjE/WLSCtzhSsRloRmfmFxZrIYO/mFXjz/LHNaoZOWcIsBbSQC6dNmReu27w9ylSsGW8/7t24ZMjtjRHCkTZ5pCWR2MKDtO0hExeyef/bspnsXUuM5ClYjGlVJLYOcPi5Q28ULF7WZnWk8ZsHP+UpWBzN2vc0HkxCpER+xpZdBjBLg7UUF6o8faasLDbAI52PxYEUsUn0y+ePCPT3Y/nDhsPwNSz9xDzSluqj6GbCI/ZB+YImunHxNPi9N2ycSOr+3A5lKtUy/k0aJikQdAKYtRSXer90RMmyVVjAFAltQkgTjh30aA04qwfQ04k4ZJYkX6CQv2jtZvMUF+EeOmjd/Li/xAx+apahflNfUrsfwvORdkt1WzuBKLnPQXVS3ijtXOiYxdT5eJCpN0wroVNStN/3gHPK2zO8KFpmgv1eQiRJLyS9sAl95uh79TE12yWTMQX20OlQdEqUNSGfKR3pltqfYzOMuWExofn3vfCmeWcwY+qhUdN7EP9bRpozmd0JD8EUn1pjQpYO6g+r28qnwugEJzpEwpa5ObX6kdh6aPzolCdCjE5aSmzeb3z1C5qoEJ3LMBGLWBxBatRPbRMh0jgmdl4bxlzCeM9wBGfiVuIUfcXFVp5oYgeHl+MIcARSFwHK6atYq4GxUkdHJ1DunS7GLJmYs0BTt0e8tqQi0LbnMJbvS6d8kY/6vyixSTQtPyMn0bQ8erzvHIFYCJSsWAM/xTqgnTRu8kPS0XdcOAI/AgKcRGNGgc6npTSQF2FxneU/wkDxPnAE/t8QoOhLSuEQhHxc9NHshD7n9P+GE3/e74sAmfnJxUBmU+G83+/bo+S3niJNNPnN8js5AhwBjgBHgCOQ9hHgJJr2x5A/AUeAI8AR4Ah8JwQ4iX4n4HmzHAGOAEeAI5D2EeAkmvbHkD8BR4AjwBHgCHwnBDiJfifgebMcAY4AR4AjkPYR4CSa9seQPwFHgCPAEeAIfCcEOIl+J+B5sxwBjgBHgCOQ9hHgJJr2x5A/AUeAI8AR4Ah8JwQ4iX4n4HmzHAGOAEeAI5D2EeAkmvbHkD8BR4AjwBHgCHwnBFKFROnj1SOKRyKjswp/v3TB32/jfkfuOz1fqjdLn2GK/ZmeVG8kFSv0Tp8JTdp2hVgsxZH9W/H+9fNUrJ1XxRHgCHAE/r8RsCDRPG4aTC8fig8RUgy74JZoZLK7aLGgsuGjtfTR6rZHvdjnwlJb0jvqsbRqEKI1YnQ+4ZHa1dusr0T56uwjvfb29qAvaNN5pPSx410blyHoy6dv1o/kNFSvWVuUrlyb3Xr76nkc2p2yj3IntQ/0/T53T2+bt9H3QT+8Sdz3Em1V0rBlF8gcHNm3G1P7U15JfV5eniPAEfj/QsCCRPO6azCrQgg+Rkgx8Jx7opFwttNjbMlIpHfS4OhbOXY9N300OtGVJKJgBkc9VlQPZCTa/phnIu5IeZGCJcqhWbue7Pt/79+8QGR4GLLlzsc+/BwaEoT1CycjWhGZ8oa+Ug0Zs+ZA49bd2NfpD+/fitfPHn6llqxX2//X2XD3SoegAH+rBQ5sWY1PHwwfXE6uDJm8iH3oeP74AVBGx/9R9OS2we/jCHAEOALWEEgVEv1W0H4PEu0zega80mXA6SMHcOH43+xRHeVO6DVyGpxd3LBrwxI8f3T3W0GQ5toRSHTxlKFsA/I1hJPo10CV18kR4AgkBoFEkairHTCmVDjsxHpsfeKEO4ESVnfvglHI7U5fADfJ9U+O2PWSviBvKQ2zKVE9kxI3PsuQTq5BYU/DfR8jJVh73xl+UaI497TJHY2KvkrIpXoERItx6p0cvYqExKuJtu8zEt4+GfDo7g0c/WN7YjCIt8yI6StgL5Nh5sgeFuVqNW6NLNlz4/Th/Xj9/JHxmkQqRcWaDZC/SCnInV2gjIrCu9fP8O+B7dCoVRZ1NGjRGb6Zs+HB7SvImbcwvNP7QqPR4NP719i/ZbVZnXbo1G80tFottq6aC51Oa7zm4uaOVl0HQavV4PdlM42/d+gzkpk4zeXE33ss+mp+zdHJGT/90hHpfbPAXuYAhSICT+/fwoUTf8d85d1UWiQWo1yVOihUqgKcnV2hUkYzP/GxgzuhiAi3aDMpJFqqYk0UL1sZzx7fhau7J7Lnys8sAIFf/HF432YEB3w21t2q2yC4uBqsJT6+mdkX6T99eGP8GL0eemxcPM1YvkDRMqhY8yd8ePsSOq0OeQsVAz1HSHAgzhzej7cvn7Ky1B7NIZnMAZfPHMWDW5ctnqdllwGsb1fPHcO9G5dSPL94BRwBjkDaRiBRJDqjfDjyeyjxLNgek666QqkzPPS8CuHI6a60QODUWxcsfyCLg0rHfAo0y6lgBGgv0SFSLYXcTguJSI8ojRidjntCZ+ZH7ZY/Gg1zRLB66B4qp9WL4CDV2STRslVqo07TtuweIpXFk4ciOkqRohHqO2YmPL3T4/7NS/hz+/oE62rZbSDyFiwOvV6HiPAwOMqdIZVKERYShLXzJkCpjDYRXd9RyJYrHzNB2tnLEKWIgNzJhS3k4WEhWD5jFPO/kgyetJBpvjvWLcTLJw+MdWTJkQed+o9BaHAgKy/IiBkrGBGYy77Nq/D47vU4z0AENGzKEka6er2ekaYd+X8BvHh8DzvXL7a4p3Hb7ihaqiL7jfpJ37C0s7NHZHgo1i+aioiwEGP5pJBo9Z+ao1KthlCplLCT2iEqKpLVTaZo+m3BhIFGPPr9OhseXulsjgc9h/nGp3Slmqj3c3tEszqdGNZSO3vWb7VahS0r58Dv3WtWH20mSlaojvDQYMMY6AwT3jNdBvQeOZVhtGr2OIQGByQ4H3gBjgBH4L+NQIIk2jyHGu3yh0KlFWP4eXf4KUwf4M7qrIejxMB8zXIoUdY3Eokh0Vk33HA/SILsLjrMKB/CiHHbI3fsf22K6t1UOxjOdloceuWEjY8d4Wqvx+CikSieLtomiZLvrcfQSYwM/D++xfqFU1I8ekXLVGI+RRLSKK+eOYZnj+5Aq9HEqTt7noJo33s4I0UiHoqEJV9dj2GT4OzqjuN/7caVM//GIdGI8FBmFv70/g2y5cqPdr2HQywWY+OS6fB794qVb96xLwoUK42Lpw7j1KG9xjpII8tTsBiunz+Bf800b98sOSAWGcaqSbvubCNgi0Rbdh2IvIWKMyLevnYBgr74s7+btu8Fe3sZ9m9ZhUd3DORLpm0ycRO579ywBK+ePmBER5pv+kxZceXsMRw/uDMOiZImThqruSgiwy1M4UYSVSqx57dlTGsmLbPzwF9hb++Ak//sw6WT/xj64ZMBDg5O7N+tug9km48tq+ZCqzaMC2miH9+aApYEEqVrx/7ahatnjrJNyc8d+yBrzrx49ewRtq+Zz+6lZx45YwULIls2fSTbAJFUq/8zKtduhA9vXlho/SmeZLwCjgBHIM0iEC+J+sr1WFQliJlxV951w4kPcc20wpMPLRqNypkiEiTRsx8cseSuYfEj6V1QibrZwnH3ixOmXDeYHyUiYGe9QEbcXU94QBWj+eZ202FORUN0rq3AIvJXEoG8fHI/VQZFKrVD4zbdUbB4GWN9RJJXzh7F1bPHLAJZiperAooUfXj7Kg5sXWMsL/z+9sUTttAL0iFGE7148hBO/bPf+HubHkOQK38R3Lp8Fv/s3cR+z1u4BMiUSAs6LexssZc5YMikRcyUuXDiQKiUllYBI8YjpzNTsTUSJa13+LRlbOOxYdEUiyCfhq26MLM0mXQvnzaQf5YcedGp/2hWjsoLkq9IKbTo3I+ZVDcsmmr8XdBErQ1GUKA/Vs0aa7wkkOiD21fxhxl+9Zp3QOmKNfDq2UNsX7MgTlWJ8YkKJBoaEojl000ae+4CRdG6+2CEBQdh2QwDroRJ/3Fz4ebuiXPH/8bZIwcMc3XUdHj7+OLIvi24cel0qswvXglHgCOQthGwSqJhKgn+eiVHg2xR8HDQ4MZnR8y8YSI+a4+cWBLd+9wJO56ZfHX1MmuYn/NZsCPGXDa0kUmux5JqgQiMkqL3aVOUMJH68mrfNjpXeNac+QozEx/5QcnXSfLmxRPsXLfImFYhkAAFGt2+cs4CphZd+jMNb9UcE2kIJHr0zx24du64sTyl1FSoUZ9F0v6zd7Pxd4EstqyYg7evniJb7vxMAwwJCsCKmaNtzsTe8ZCoRCLBmDlr2b2JCf4pVq4KGrXswkyfF04csmjzl879EE4kb2ZWFkj0ztXzcdJPyH969uifcUj00qnDOGmmbRcrWwWNWnWxqQEmhURja5FePr5o3W0Q8wH/vnSGsS95C5VAy64DmEl5yZThkDs5Y8C4ucxNsHzGaCgivk6QVNpeTnjvOQL/fwhYJdHYMIy+6InnoSYz7tcm0SxOeiyuGogvUXboc9qUr/o9onOtPWvNRi1RtkodEAHt3rgUzx7eYcUEEiWfGf0XW4ID/LF67njjz0YS/WMHrp03kaitaUgkRZohEc+5owdRt1lblKlcGzcvn8FhM7KNff/XIFFbz0iasjmhJ8cnevHUPzh1aJ/xMVKVRF+/wO/LTQFY8b3yo2auZL7qdQsmoVjZymzMaaxpzLlwBDgCHAFCwCqJBkVLsf2JCxrliER2VxU+K+ww6Jwb1DFm1W9FogFRduj9HUmUzKRyuTMLEoqMFXUq+CgvnT6Ck3/vsSDRa+dPJCoyOKkkWqRURTRp2x2Bn/2wZt5EDJowD3JnV6ycOZrlrNqSr0GiiSWTtEyiLboOQL5CJVgUbubsueDh5YP9m1eyyG8uHAGOAEfAJomaH7awvW4gZBI9tj12wf5XcaNuBRhT05wrkwDb6gRAoZGgywkPY9RuTlcd5lWK3ydKPkyKulQqo6CPiapM7lD7Zs6ObkMmsAhfigw1lwYtOqFE+Wq4f/MK/txuMIcWK1MJjVp3w/1bl/HntnXG4tQninalKE/zwwCSSqJU4bCpS1kgz6E9m5iJk1I0VpiZT609a3wkSuVHzVzF+kcaJJmGBanbpA2Kl6+Gc8f+xKVTR9jPmbLmRJdB4/Dx3Uv8tsRk/pRIpCwVKPYzfksSXTBxkM2DLwSf6IckaKL0vL/OXRsTLWzPzNF0oAMXjgBHgCMgIJBgdG6T7Bp0LhACMk6OOO+J1+EGsy5ldYrNUjsHFTEEFp1+64KVD01kKxz/J6S4JMYnSvVvrRMER6kOS++44exHOwqURK8CUaiTLdJmYJF5kMz7Ny+xaZlpkU/OkLu4eWDQBEPEJvkmb189B+j1LHJ20MSFzE/2x7a1eHDrCiuTp1BxtOo6kOVKLpk6nOVzUp8ogpYCWF4/f4xtq+cZu5IcEm3RdSDyFSqOoIDP8PT2wa3LZyz8pmxsRCKIYiJz6e+eI6awgBjKPX1y72ZM+3pj6kbXQeOQMWtOfPn0nkU0k6mWnnHIlCVwcHDEX7s24u61C+y+dL6Z0Wv4FBadPHdcPxalS+1R+kipijXg9/61RX6mQKJLp42wetiCTq9jmJII5vCkmnPJV+nm4cVwIN+rIOb5tMkl0f5j5xiPLfwexyYmZ97yezgCHIFvh0CCJEpdWVAxHNndlHgbJsPQC4agmqJeWowvY8oHFIv0jFgp19PwL4O0P+rFzMBJJdHBRRWomknByFutJVIApGJDzbaic6vUaYyq9ZoZ2146fSQLdEmJUN4iLe4kFFSi1+khkUoYSVFe5MrZY42pG0QmlM7i45uFEagiIhIyRweWi0hC/lAyxQqSHBIl31yjVl1ZFUR2dOzgZ7/3Fo9Yo2ELlK9Wz/gbESKJkO9I/6b0G8qNJCG/38jpy9nhA0SKVI78vfR34OdPWDNvAjNpk9AzUl5q5uy5WbmoyAjYyWQsLYRk5/pFePHYFBktkKg5oZl3dvMKOjv3BfspuSRK0dNFS1dkeAi+aDrYYt64/samkkuiFWs1RI2Y8acNEG2EuHAEOAIcAQGBWAfQazG7YjDeR0gx2OzsXEepHutrBLN8zkW33XDezw6FPXWYUi5+giIFo/W/3uww+vZ5FWieS4E9z5yx87npEAAhOvdRkBzjr8iNI2MvAQYWjkKFjJGMOCnd5e+XzmieJ4wdztDBytm5ZMYdNHEBHB3lLKdz8/LZKR5pIpI8BYqhafseLFdRECIKyp+MnftIhER5pfmLlmKEQ0ImUjokgaJzzaVtr+HImbcg+7rKjYunEtVXMpsOm7qEpbfEPmBBqKBq/Z9RpXajeOt7+/IZtqw04ePk4oouA8fD3dOL3Udk9OTeDRzcuRFqlWXqDJmnSfMkQheekQ4m2LdlNT7E+kpMfCku1A6dsiSQaLV6zVC5TmN2vCIdsyiIEFj07uVTbI4hfvOHk9rZoV6zdihYrAzsY05pUqtUmDu2r7FY0TKV0bh1V3YykbB5SAzggh+acnmXTRthsRFJzP28DEeAI/DfRiBVPoX2NSFykurhKAUi1CJEm067s9kkkRjlitJJOin1icZuhA5OIA2NTs9J6CQkoR/kR4t9FN7XxCuldRN2zKccrbCZdyq0QeRFhxyQaZcOTrAWkZzS/nzv+7sPnYQMmbJanJ38vfvE2+cIcAR+HAR+eBL9caDiPfl/RGD0rNWgzQKZzf0/vvt/hIA/M0eAIxAPApxE+fTgCNhAoFajlihfvT4L4lo9Z+x/UtPmg88R4AikDAFOoinDj9/9H0bAN2sOODm5IDw0hJ3FzIUjwBHgCMRGgJMonxMcAY4AR4AjwBFIJgKcRJMJHL+NI8AR4AhwBDgCnET5HOAIcAQ4AhwBjkAyEeAkmkzg+G0cAY4AR4AjwBHgJMrnAEeAI8AR4AhwBJKJACfRZALHb+MIcAQ4AhwBjgAnUT4HOAIcAY4AR4AjkEwEOIkmEzh+G0eAI8AR4AhwBDiJ8jnAEeAIcAQ4AhyBZCLASTSZwPHbOAIcAY4AR4AjwEmUzwGOAEeAI8AR4AgkE4FvTqI5XXWomUkJP4UYh94YPuT8tWRoUQXKZIjGgRfO2PPC8GHs5MovOVXwkGmx74UDglWmj44ntz5+H0eAI8AR4AikfQS+OYlW8lVjWPFQPAyyw4Qrbl8VwVHFI1HONwp7n7tix7OUkejiKhHI4hyN4ec88DpC8lX7zSvnCHAEOAIcgbSBgKhGjRr6z58/f7PechL9ZlDzhjgCHAGOAEfgKyNgQaLDiykgk+jxNkKEyr5q3AuU4uxHB7TLq4CDVI+9z+W48Elq0aWMcj1a545CdlcNJGLgU6QEB1854m6Q2FiugLsObfIo2N9uMh2yuKgQoRbjdahJO9ToRJh2w8mi7uLeWtTPGo2MTlro9cCHSAkOvXbAg+C4mmAOFx1a51Egq7MWSp0Ip9/LkNddg/I2NNEqvmrUyqxEOkctlFoRXoVJ8cdLB7yLNPX7lxwqFPVWsT7ldlfBQarDk2AZ1FqTOffAKwfcDjBh4iABamZSobKvEu4OOkSqxXgSLMXu5w4IU1s3A/v4ZkbjNt0hFotx/K9dePX04Vcedl49R4AjwBHgCKQGAhYkuqV2EBylOqh0YkhFekjEekRpxFDrRHC117J/9z3tgfAYMiDimlEhBDKJDtEaMXR6EeR2BsKbe9MdVz8byKWcjxajSgXH21+VVoy2Rz2NZRpkU6FrgTCIRYBOD+j1ItYfrV6E+axuE5G6SIGVNYIgl+pYH6i/9hIdQqKl8HDQWJhzicZ6FoxGvWwRrC2tTgSRSM/aUWrFGHfJHa/CDUQ6qEgUqmWOjLffy++64NQHg2/XXgyMKBGBUj7R7G/aGFCfqc1ItQT9zrgjwgqRtus1HDnyFmT3+H98h/ULJ6fG2PI6OAIcAY4AR+ArIxCHREnj7HrCC0SQk8sF4U2YDMMuuGBVtRD4yDWYdMUD94MMBDazfATyeUTj5mc5ZtyQM7JonlOFtvnCmLbW46QnIjUG7auopxZETQU8NWiRJxyvw+yw5ZGz8fF0AO7G1Es/bqgZDHeZFodfO+PPVzJEa0XoXlCBKhkVCIqWoOcpD+O9w4tHoaJvJEKiJRh/xY0FLTXPoUS7fOEQiWBBonKpHlvqBLJ7tzxyxZF39nCzB4YWD0MedxVufXbA9BuGfjnb6ZHbhXoGdC+kQEZnJVbccUdQtEmjfBspRpDS8Hdxbw0mlAmBQiPGxgeuOPVRipyuekwsEwIXey3+eOGKLU/j+mYr1mqI6vV/ZnXcuXYeh3b//pWHnVfPEeAIcAQ4AqmBQBwSJZNsu6OekIiAXfUCcO6DM5bcc8CEMqEo7q3G9GvuuBUgZZobaa4SkR5tjnpZ9GV73UBmFh541hMfzcyjVCixPtFmOVSsjf0vTaST2UmHJVWDmNbb/phJa11SOQSZXTSYc8Ok/VJbCyuFI5ur0oJE7cRAsxxKqHVi/PHKzthvQVv2V9ih35m4AU+JCSyi/lXIoIafQoLzfiYTb/OcarTPF4pnwQ4Yc9m0cTAHLUPmbLCzl+Hdy6epMa68Do4AR4AjwBH4Bggkm0Q97IH1tQKYiXfSVVeLrk4oHQYXex2GnffAm3BL/2ViSZQqzOikY6Zid3s9q99JCgwtEcrMrkT0gqypHgxvRy3GXPTAs1BTe2NKRKJMBuvRuVmcdbAT6+AWU7ePI9CrcCgCo6Xodco9DvSJIVG6SSYB0jtq2SaCNFmS7C56dMgfZtTqv8G48iY4AhwBjgBH4BsgkGISpT6SD9SaDL+QPBIl4+jE0pEomi6KVWteP5lnY5PohppBcJfp4pCotRQXIrlllUPhJVdbrTslJJrZSY/p5ULhItNYrVswjX+DceVNcAQ4AhwBjsA3QCDFJBqhlqDzcZN/MqE+J0YTpajYdvnDGFmuvOuG858M2qWnTI91NQMTT6IlIlEuliY6vGg0KmaKgEItwbSrbngaZggiyu2qx5xKgSnSRGeVi0Bez2h8iLDHjGsu8I/xnZZNp8Po0ib/ckIY8escAY4AR4AjkDYQSDaJ0uPtqhfIolvbmfknE3rsxJDomJLhKJNeiRV3XXAyJvKV6k3vqMfK6nFJdFW1YPjItRh/2R2Pgk2+yJnlIpDPM9rCJ/pbzWC4yrToctzLGGVMdVPg06RywSki0a11gpgZt9URL5gr53UyadCnaAg35yY0Ofh1jgBHgCOQxhBIEYmuqhYKH7kaO564Yq9ZANC2OkEstYN8orEDi8ql12BUyRCbZEX4DSmqQJVMClzyk2P+bbkR0hY5lWibLzyOJjq1TAQKeUdbBO5kd9FhbiUKfLKMzl1ZNQzpnVTY/dQVu8yOAhxdIhJlM0TZ7NfMcpHI5xmF0++dseyeg9Vh3lgzBG4yDRbd8jBqz2R+XlMtBF6OGpskmjNfYbTo3I8R79l//8SVM/+msWnEu8sR4AhwBP4/ERAVKVJEr9MZ0jhYtG0io3OpfIX0GowoGcLyOP0VUpbakclZAweJDm/DZBh+0YVdM5cMjnosqRoMqVjHDjkgTZbkRagDJl8zEGYpbx3GlA6GCHp8iJQiKEoKb7kG6eVaFg0c2ydKdS6tZogUDlOJEakWwctBBzuJIUfT/Ni/hlk16FYohOWdPg+VIkotQWYXNTsEgu635ROt6qvB4OIhjOgoOljw0y687cqilUn6F45CzSyRLE/1WYgdtDoxcrqp4CAx5Nza8ol2HjAWmbPnYnUEB3zGytm//n/ORv7UHAGOAEcgjSFgcXZufCQ6rlQ4SvooMfWqB+4EGnyUlIJS1keN/kXCIbczEDGRzPkPTlj1wBFKrXU0inpp0bdwBLwdNRCLDCz7KEiO8VdMWmedLGp0zh/ODn8gUajF7CB50kSJpMyjc+l6jYwa9CwcxqJ5SZ4EOSBULULZ9FHY9dQVu2O0Tupz2zxKNMsZzvpPQocybHrsjEHFQhAQbYc+p+OmuFDR1rmUqJ9dwXI+BZl53R03vhhI1FGqZwc5VM0UycibxD/SHsvuOmF6hWC8DHXAyItxU1yKlq6ERq27svKXTh/BqUN709g04t3lCHAEOAL/nwikygH0REakDdqJ9QhUihFhCHxNscjEQDpHPTtRKCBajChD0KtNofLp5TpGsn6K+L+0IpcC6Rx00OhF8I8SQWPg3lQRVzvA08GgaSfUD6FBd09viMQSBAf4p0ofeCUcAY4AR4Aj8PURSBUS/frd5C1wBDgCHAGOAEfgx0OAk+iPNya8RxwBjgBHgCOQRhDgJJpGBop3kyPAEeAIcAR+PAQ4if54Y8J7xBHgCHAEOAJpBAFOomlkoHg3OQIcAY4AR+DHQ4CT6I83JrxHHAGOAEeAI5BGEOAkmkYGineTI8AR4AhwBH48BDiJ/nhjwnvEEeAIcAQ4AmkEAU6iaWSgeDc5AhwBjgBH4MdDgJPojzcmvEccAY4AR4AjkEYQ4CSaRgaKd5MjwBHgCHAEfjwEOIn+eGPCe8QR4AhwBDgCaQQBTqJpZKB4NzkCHAGOAEfgx0OAk+iPNya8RxyBb4qAq4cXKtaoD7FYgmvnT+DLpw/ftH3eGEcgLSPASfQHGz2ZgxwDxs1hvVo2bQRUKmWyejhs6lJEKSKwavbYBO8fOGE+7O1lWD13PCLDQxMs/60LlKteD5VrNcLbl0+w57fl37r5/3x7NRu2QIUaP7HnvHHxFI7s3/qff2b+gByB1EKAk2hqIZlK9Tg4yjF82jJW27xx/aFSRier5rHz1kMRGY7Fk4cmeP/IGSthL5NhydThiAgLSbD8ty5QqXYjVK//M149e4Tta+Z/69FDG50AACAASURBVOb/8+3lylcYDVp2Zpro0YM78Oj2tf/8M/MH5AikFgKcRFMLyVSqh5NoXCA5iabS5OLVcAQ4AqmOwDcj0WoZ1SifXo3bAXZwkOpQ1VcFiIDHQVLsfuGAUJUozsPlcdOhXhYlsrtqoNcDr8KkOPxWhlfhYouyI4or8CHCDt6OamR21mLvc0c42+vQIKsSX6Il2PDQEYFKy/oLeWrZ9cwuGkSqxbgTYIfDb+0RZqUf1JhYIkGrroPg6uGJU4f24dnD26kyGHkKFkPpSrXg5uGFoEB/XDt7HO16D4+jiVaq1Qi+mbPh6vnjePviibHtbLkLoEylmnj/5gUunz5i/J1pohFh2LdlNarUaQxnVzcEffmMiycP4ePbVxZ9FzTRdQsmoUSF6siaIw8zIz+8dQW3r5yDWq2yKC8SiZArfxGUrFAdnt7pmcb74vF9XL9wAsroqBThInd2QcXqPyFbngI0PXD/9lVIxGJU/6m5VU3UxzczylapiwyZs0Kn0+HDmxe4eu4YggM+W/Sjece+CPjsBzd3T3hnyIgLx/+GzMERZarURmhIEI4d2I6w0GCLe7Llyo9SlWvC28eXPdeb549x7dxxREaExXnGrLnyoXy1+nDz9IKdnRSR4RG4e/0Cw1AZy5ogFouRt1AJFCtbBR7e6RARFoon927g5qUz0Go1FnVXqdsU6X0z49G968iUNTey587HxobwPnf0T2NZ0iKbte8JrUaLgzs3QK/XGa85yp3RsGVn6HRa7N+y2vh7o1ZdQZs2c7l05l98eP3c6hiSyb9stbrIkacgnJxdEBIciHvXL+Hx3WvQarVx5kiOvIVQqmINeKWjORKBZ4/u4ObF0ymeIymaYPxmjkAqI/DNSLRjPgWa5VQgQiWBk50WKq0Y9hIdRCIgXCVGt5Oe0OlNT1cjoxp9i4ZBItIzAqVLYhGg0Ykw9ZoHHgSZiHRP/QD2O/3naKdDlFrM6hWL9JBJ9Ljs54h5t52MlTfLrkaHAqFskY7SiGEn1kMq1iMwSooRF9wQpo5L6HWbtUOZyrVYHbQoLpwwkC3aKZFiZSqjYasuIFISFiG9TgepnV0cEm3VbRCIcA/uWI97Ny4Zm6VFtmrdJnh89zr2bV5lQaLKKAWk9vYQ0f/EImauo3Z2rFvICEEQgUQjwkPh5OzKFnKp1NCHB7eu4I9tay0es3bj1ihXrS77TavRsA0GPUNocCCIiJNLpNRmtyETkS5DRuj1emg1akjt7PHpw1tkyJQ1DonmLlgMLTr1g0QqZcRCfbCzs2cm8HULJiMk6IsJj7nroNFoGJHYyxxYGQMuYtjZ2+PJ/ZvY+/sKY/mKNRui+k8/G8eGiI/qJ58x1W1OpFmy50GnAWMMeGi10Ou0rN8kzx7ewe6NSy3w+6lFJ5QsX409I/XDzl4Gqp8CejYungaNRm0s377PSGTPnZ+1K3d2hVqlZOWpL4Ff/LF23njjPBw6ZTHkTi7YunqexfhmzJoDXQeNR2QEmfeHGOseMX0520iYC5HsoztxzbnU3uBJC9n8MDynBhKJlP373o2LOLhjg0U91er/jMq1Gxnel+gohodEIkFw4GdsWDQ12XMkJe8bv5cj8DUQ+OYkqtaJsPqeG05/lKKIpw7jywQzAlt/3x2H3xleSpL1NULg4aDBuQ9O2PXcAQqNCAOLRqBEumgERUvQ85SHsSyRqEorQecTHphQOgyFvVRYfc8VHyMlmFo+GAFRUvQ+7c7KO0j02FY3kP1762M3HHhlB1c7YHLZMGRzVeHEWzlWPrDcnVPZ3AWLo1XXAWzx8nv/mi12KZX+Y+fA3dMbb148wdZVc+Hg6IQ2PYYgU7acrGpzn2hySJT6+vjeTRzcvg6Ozs5o2WUAMmTKho/vXuG3JdON3RdIlBb0zSvmwP/jW1Sp1xRVajdmZX5fNhMf375k/ybNs++YmYwALp78B2eOHECmbLlY3aRFnj/+N/stOVKifDU0aNEJapUKf+3cgEd3r8N8oxHbJyrgd/vaeRza9Rsjl6ZteyBfkZII8P+INfMmGLsxdu46qNVqLJw4CK27D0aOvAVxZN8WfP70AZ36j0FYSDCWTR/ByhMRj5y5ko01Bdoc/WMH015bdO4PD690uHv9IuufIB37jUbWnHmZNWDzitmgjVCRkhXwU8tOjDh+XzYLfu8M2n/mHHnQuf8YaNRqpjESYbm6e6Hn8MlMK/xnzybcunLWWLdAokplFA5sXYsXj+6iQLEy+LlDb9a/VXPGIejLJ1a+ZdeByFuoOE4fOcA0bUGatuuJwiXL4/7NS/hz+3rj77kLFGMbIJJajVqwsbVFok3a9kCRUhUQHaXArvWL2bOWrVoHFJREZLrn9+V4ev8Wq4vmNI0NzZHD+7fi1qXTcHZxQ+eBY9m188f+wpl//0jOFOH3cAR+OAS+OYle/uSAebecjUAMKqJEtczhuOXvhOk3TbvijnmVTPPc9ERmLJvFWYfFVYIQrRGj/TFP4+9Eou/CZRh2wQXd8kehYY5ITL/mgVsBEuytH4BQlQTdTxpI181ej421AhESLUX3UwZiJSmdTotfSwfjfbg9Bp837LZji6e3DzJly8123ikVWgBHzVrFtKFFk4dCGa1gVbq4uWPQhAXs3yklUapj0eQhiIqMYPVlz1MA7XuPAGmcS6YMMz6CQKL7Nq9mpjlBeg6fAjKXHtqzCbdjFnYizC4DxzItb8VMg/ZFUrZqXdRp0hof373Gb0sMGwzSfMn8HVevN6FHJlTSZkkE7YVIhMhEkDY9h4KCX8xJlDTIUTNXQaNRYcH4gcayHl4+6PfrLKbhEX6CEIkGfP6ItfMnoVbjVihfrR52bViC54/uInYQFm1mhk9bCiKuhRMGGTW9QiXKoVn7Xgj8/Amr544z1t1n9HR4pfPF8YO7ceXsv/FOjUIly6NZu554+uCWRaRxmcq1UbdZW7x+9gjbzIKnBBK9cvYojh/cZaybxpHG88aFUzhywBBNW6R0RTRp051peytn/WoYA4kEQ6csYdHXNBeiFZFW+9drxFSky5DJJokOm7IEjk7O2LJyDt6+fGqso1mH3shfpCQzLV848Q/73TdLdnQbPIGZz9fMHW8sW7hEeTRt3zPOJi5ewPhFjsAPjsA3J9F9z52w/ZmJLOtl1qBXkRA8C3bEmMsmkyvhJpfqIREDHnYGs6mzPTCtfDCUWjHaHU0eiZbw0mF82SC8CnXA1OuWGueGmkEIV0nQLYZwv+bYubh7YuDYOVAoIiwiaIUFnNpOKYkSedLCKYjcyZktqGRemz9+gPF3W9G5zTv2YVrPib924/IZAzkUK1cFjVp2wavnj7B9tSlSljS0fr/ORlhwIJbNGMXK0qJMi3N8snHJNPi9e82KNGrVDcXKVoqjSVWu2xTV6jaxIFEvnwzoM2oGQoICLLRqqofMjmRSnT2mj7HppJBottz50aHPSPj7vcf6BZOMdQgbHPI108ZHEEHTI83ryb2buHnpNPzev4FGrbIwzVL5qvWbMQ3/zrULOPn3HgtoyBwb/MUfK+eY0pIEEiUCJSIVhDCpVKM+nj++j32bTGZoSm1ylDsxTMjikDl7bnQe8Csiw8OweIrtSO34SJSI+Nc5BpP+0mkjEB7Ldxx7fIuWqYTGrbuxDcGBrWssLg+ZvIjdv2z6yK/5evG6OQLfDIFvTqJ7nzthRyJIdGxJBUqlN2hnsSU1SNQWwqHKb0OiFIAyYOxc5lszT0OxFZ2bHHNu7BQXykEdMX1Zokm0WbteKFSynFUSff3sIbatMWjMJC6uHhg0cb4Fibp5pkOTNt3incz/7N3ENDsSgYzOHN6P8ycOGe+zFp0rkKitysmfmlIS/fzxHdYtnGxsgvyNRHSxSZQCd3qPnAYnF0sLhk6rZX5q0joFEUjUVr8TS6K27hfmyYlDe3D51BEIPvMHt6/ij1iEZl7H1yBRW30MCwniJPrNlnje0NdG4Ick0cbZ1OhSMBQanRgbHrji/CeD38ZDpsfSqkGpook+D3HAlGuWmi+1QQFMUZr4DJCpMyT/DySaVKSSQ6LBgV+wYdEUq02ZBzglRxNNLIlS42ReJpMpmYkpUpf82uQrJO10w+Kp8P/wlvVRIFEyjx//a3ecfgvBRsIFW5qoLWwFv/Jnv/csyGvA2DmgE4nWzjOYV23J1yDRl08fYL9ZsJvQduxnTOo84eU5Aj8SAj8kiY4qEYFyGaKx/oEzDr91MOLl46jHquqBKSJRT5kO62oGwS9ChgHnXL7bWNjbO2DEjOVQqaIxf5zJtErRj2TyIjE351KKRoFipfHP3s24dfmMsd9N2vVEkZLlcfvqORza/bvxd/Lzka9xzq8mk2b6TNnQY+hERCkiWYCNIII5N7aprmP/MSzd5difO3D13HFWnAJoKJDm04c3LMpSkHxFS6NFp74I/PIJq+eY/IVJAbhes3YoXbkWC1g69c8+460NW3dF8TKVLcy5ZGIcM3sNIiPIv2tICYpPkkKiFCA1dPJihIUGYdk0k9mR0ok69BmBxGhSdHhFz+FTWSDNvs0r8fjuDda9YmUrg1JL7t+6hD+3mYJ8bPU9qSRKxE3aMgVZ7du0Ei27DmApNEummnzg1tpKyCdKWFMUNJlh6fkFoU0D+WJvXDrF0ldIBBPyh7cv8PvSmQkNDb/OEUjTCPyQJDqsWCQqZYzC6fdyLLtn8ls2yaZC54JhKSJRJzs9NtcOhE4vQveTnsa80PpZ1GiXLwL+CilGXoxLrpR2Qj440jZuXj6D04f3p3jgBf/V4X2bWY4gCeVe/vRLR/ZvcxKt2aglKlSvjy/+H5lWQeLk4oa+o2ewNAVKQ6F0FEGIRCl4iaJF3716xn6uWq8Zyxkl7W3lLFNQkECiH96+xO9LZ7CyFDHae9RUENnv3bSS5TGS+GTMgp7DJrPoUnOCFhb72KkiSQGpQs2fULNBCwQF+BuPK6RnG0THEsoc4qS40MlOdH37mgV4/fwRa4pSYagvlApCmwIjHkkILCICJExIY6KI3fBQwylOjdt0R9HSFRmehCuJzFGOPiMp0lmPgzs24tWzB8Y2yUdMvuL9m1fiUQyJ5ilEUd4D4xBxgxad2Sbpw5uX2LnesIkiSSqJ0j1CIJaQGmQtTSn2uCREoj2GTkJ6SjN6+gDb1y403k5j4+LmgcP7txhJVPCFU5T1vHH9GI4kVeo0YRG9lMoj4JeU+cHLcgR+RAR+SBKtkF6LYSUMC9ejIDt8iZIivVyDvO5qSMT6FJEoRfzOqRCBnG7RiFBL8DhYCiepHrnd1SxfdOtjFxx4ZYoIFgatSZseKFK6AvuTNLz5EwaywJGUSL2fO6B0pRost5DSSiialRLryTRIYk6i5HfrM2o6SyMJDwtBSOAXePn4goKFKLhmxczRFl0hEiUhvxxpjaSZpEufkdUdOw1FIFEqT5GdRBrpM2ZhBEWHFqxdMMn4rJTL2WPYJNY2RcCS2dDZ1R3uHl7MFG6eDpNUbIi46Rkpb5O0py/+H1hwEmnntCGIneIi5O4SYVLKhV6nZ2ZU6jdF3VL0rSBJ0USprW5DJrB0IKqbFn0HuTMjRBJK53j2wHTYRuseQ5A7fxEWRBT0xR9hwUHwyZgZru6ebK6snT+RbQxIaBPWY9hkeHj7sHEk0qSDNoj8qd3Y0a/JIVHBpCs8O6VPURqVuVSs1RClK9Y0/kTzitJxyI9OBzaQ0LwRclzdKep59Aw2fygfmCK8KSWGgphIMyXTMaW/kJDGStG5FNlN9b179Zz5izNmzs6ihWPnOid1nvDyHIEfCYFvRqId8irwcy4F9jxzxs7nJhOtEJ37OMgR466YfJQ/51SiRe5IOEgMkbmU1nL4jRzNckZApUt8dO7u+oEIU4rRwyyv1FEC9CuiQPkMCpZGQxKplmDfCzn+ei2zOPRBGCxaEGjxo4XuxZP72LnOpC0kd0Bp4frpl04sRYARnk7H8gYplYKEdvEqpekAeiK2Jm17wsc3E7tOO3zSiigdhMyo5jJ23joWkfnu9XPkL1KK9Zvqp8jR4wd3WpwwM3zacjg4OuLI/i2o2aAl7B0M40ML/+6NyxAYy5dGpElaWQ46VYhOtSD8wkLxz/4txlzB5GKSv2hplitKizMJ5W/ev3EJFWs1YKf0mGtpZB0QtBvhcAgiMop8PXpgOztYQZD4SJQiTylK2jzthwK8GrTsgnyFS7CDEEgo2vnYX7tw77plihNtUChvkw7DMJfw0CAc3reVHbhgLkSahB+Zxo34hYfiyB/b8eTuDaPmRve07TUMOfMWYrmq184bTOoJCfV98MQF7IADW6bchAKcqA06/Yk2RYJQP6jfdPqVIDT/KGeWrBvmQnO7cevuyJW/sPEZ6YMIp/7Zz9KlBO00oWfh1zkCPzoC34xEkwMEkV1WFx3LM/wQKUa46SCX5FQX5x5nKZDNRQelFngbIYYqgQOIKAfR2c0d7189tzhWLaWdIY2F6qYdvvkpO7bqJY3I2dUDwYH+bJFMSCiSlUy/AZ8+Ms0gPnGQOzHtj4JyKLAmPqGFkuqOVijY4QaptTCSJpMhY1am2QqHPMTXDzocgczMJBTpGx1lPRcyIZysXScyJ62bNNLPfh/iHXfSpD28vCESS1gEL2ES36lWdACBV3pflrtJGn1q4Zec50zKPXQMIo09EWdC6S5kQaENKM0n0uhjH2uYlHZ5WY7Aj4jAD02iPyJgvE8cAY4AR4AjwBEQEOAkyucCR4AjwBHgCHAEkokAJ9FkAsdv4whwBDgCHAGOACdRPgc4AhwBjgBHgCOQTAQ4iSYTOH4bR4AjwBHgCHAEOInyOcAR4AhwBDgCHIFkIsBJNJnA8ds4AhwBjgBHgCPASZTPAY4AR4AjwBHgCCQTAU6iyQSO38YR4AhwBDgCHAFOonwOcAQ4AhwBjgBHIJkIcBJNJnD8No4AR4AjwBHgCHAS5XOAI8AR4AhwBDgCyUSAk2gygeO3cQQ4AhwBjsD/2DsP8KiKLgx/29M7CRBCh0DovXekCIqioqBYkCZFAZHeVHoHQZoFERFFflEUpUiR3ntvoYSS3jab7f9zZrMt2RASSIRw5nkUuDt37sw7d+93T5lZJsAiyvcAE2ACTIAJMIE8EmARzSM4Pu3JIUC/v0q/J3r66H6n3xD9r3v47odjxQ95b/hhOa5fOpen7nw4YY74+bDFU5x/dN1VY5bfP62Jbb//JFhwYQJMIP8JsIjmP2O+Qj4TGDJpHjy9fDB73CDxu5VPSvlg5FQEFAnBT18vwJXzp/LUrVHTlwkRnTV2YI7nv/xWf0TUrIdNv3yH4wf+zbE+V2ACTODRCbCIPjpDbuE/JsAiapkAFtH/+Ebkyz+TBApMRBuHGFC7iAGn4uSQSMzoEKYFJBKcjJXj90gV0gxZ+RfzMKF9mA4V/QwwmSW4lCjH37cUiNZInSoPqJKOu2o5/NwMKOttxJrLbvBUmPFSGS3uaWT47oIKKXqJ0zlhXia8UEqHsr56pOhlOHhPgX/vKlz2o5S3CV3LaFHM0wiVzIz4dCk23VSJvutM9mYr+RnRtoQe15NluJMmQdey6VDJgIsJcqy7qkJypj7QmcHuZrQN1SEiwACpBOLcP28qcUftPEaqK5cA9YINaF5ch2API2I1Muy+o8SBaDkMDv2w9oj4dS6lQwU/AzRGCY5FK7A9SpGFhSOYjq++jeJhpbHrrw24ciFv1pO1veJhZVC7UUvciryCihE1YDKZsOW3H1Gpeh1Uq90IF8+dwIHtfwlLy1qkUhnKVIxAjfrNEBAUjMS4GJw4vAdXzp10mr/WnV6Fh6e3OBZRqwEUCgVOHt4LmM22en/8/K3TOSo3d1SoUhMRNerBy9sXCXExOHVkL65fOiv69iglICgETdp2RtHQkkhJTsS/mzegS/c+WSzRsNIVUKN+U0TdvIbjB3bZLunm4Yk2nbshJTEe/275zXbcaokumzUeLTq8jCJFQ5GUEIe92zbiXtRNpy5bRXTLhjXQ6XSoUa8pADMunT2Bo/t2QK/TZhkiWcr1mj2H4iVKQ6/X4dqlszhx8F+kpaY8Cg4+lwk8MwQkNWvWNOv1+nwfcM/wNLxUNg3JWhm8VUYYTBLIpWaQtCXrpOi1PcDx+YeGIUYMq5kImdQM8Vg0C80V543aF4DrKXZRXNchFnqjRHyukJmh1ssgl5hF+/Tf7jvumH/S0zbGdqEG9K2eKK6tN0mEeMkkZkSnKTB0jy/SjXYc5XyMmNkkQRwgITeZIdqksifKA/NOedgqtwrVYlD1FCRq5fBTGURfqf90HY1Bgn47AqA22PtdNcCIcfUSocgYIz3/qS/059gDAbiY6Cykk+qloFqQ5UFIfZFKLP24nKDCqAMWQbGWxiFGDMng5zhG6tuH//o69cN2Tqvn0arTK+KfOm065owf/EjiUrN+M3Tq9i50Wi0kUgkUCiWSE+OF61Uqk0EikWDNstm4fvm8rd8v9uiDarUbwmw2w2gwQCanly4Jbly9gNVLZ9tEcuCYGfALCMr2vqXzp37S2/a5XKHE+0MnIii4qIWfyQSp1ML3/IlD+N/qZXn+DpCA9h85RfSTrms2U9sypGvS4Obu4eTOrV63CV54oxfOHD+I335Ybrtm+co18Pr7HyL67i2smDPJdpxE1GQywmDQi7bEPSKViuusX7UUF08fsdW1imhKUjy8fQNgNBohk8nE59F3b2PFnIlOY4yoWR9devSxtEcvERL6DkmgUadiyYwx0KSp88yET2QCzwoBSatWrczR0dH5Pl6riBrNwMpzvth0U4G6RYwYWSdBCMfSU37YGiW39WN5y0QEuhtwPNoD311wR6pBglG1U1DeT4s4jQx9d/rb6pKIGkxSvL0tAJPqJ6OSvw7LznjjnlqOiQ0SEKORo/9OP1HfTQb80C5W/P3Xqz5YfUkJPyUwtWESQjz12BzpgeXn7cL4Wf1UVAlMx81kJYbt9RGC/nxJA96pnCSEd8S+AFxLtjyMrSJKD7q/Ir3x9QUVqvibMKF+ghDetZd8sO6q0tbv+U2TEeatw4V4N3x3wRO31RKMrKVG1SCNeFi+sSXIZmF2KqlHrypJQpi/PecjLPLWxQ3oVz1JvDB8f94XGyIVtra/axsPL4UJ2256YclZN3jLgYn1U1DGV4tj91WYcsxZdOnEMuFV0L33EEgkUiTGx2Dx1FGPdF9YRfTqxTPYsHoZhn22ULwNTR/ZDy06voLGrTrgwpnjWL9ykbhOeLXaePWdgdDrdNiwZjkunTmOEqXKoefAkUKUvl88HTevXxZ1S5evDG9fyz3wXJfX4e7hhY0/fWsRA8s7F84c3Wfrf9sX30CD5s9Bo1bjn02/4OTBf9G49fNo2eFlSKRS/LBsNiIdxDw3A3974CiElakg2l7w2VAhXm/2HY7SFSuLZhxjonkRUXqRiI+9j+8WTYNBr0f3vkNRolR5mIxGESslgaViFVES3b/WrxYWZe3GrdDh5TeFOP6ycjEunjlmGxrNh7uHJ65dOIN13y2CX0ARIeT057VL5/Dj8jm5wcB1mcAzSaDARfTwfTdMP+Zlgz20ejqahqbi2H0vTDnmZjs+oGo6ZBLgi9P2YyW9TJjXLB7pBine3Bpgq0sieitFhWF7vdGrkgadyqgx+bA/jsfK8EuHWCTpZHh/u+WB660wY2XbOGERv5dxjI43CDZiRJ0E3EpRYsgeH1vbi5sno6inDstP+WGzg8i7ulusInojRYFhe3xtVd4L16Fz2WScj/fAuIN2ge4XoRXu4YUOY/RRmvFtmzhx7ptbApFutFiuQ2ukomnxdKy77IW1V+xMupbVoUd4Ms7GumPiYYu1TWf81CEOGr0E7/xj51TJz4QpjeIRp5Gjb8ZLReZxUDZpuYgaOLJ72yN/Iawiemj3Fmz97ScMGDMdPr7+mDGqv7Ckxs7+GjeuXcTqL2eKazV77kU0b98FB3Ztxj8bf7Zdv03n19CwZQecP3kE//t+SZZ+PUxMlM4PCQ3Dvn82IeZelK2NHv0+RpkKEdi77Q/s/PtXCz+J1GbBuYZghsFgd0EPn7wISpUbvpj8CVKSLF4LKsM+XQB3T6/HIqJknZKVSoXapLapOCZTWUX0+MF/sWndd7Z+vPbuIFSsWku4u//46Rvb8dEzVwhX+twJH8Gg14njpStE4M1+HwuX9MLPPn7ke4AbYAKFnUCBi+j6K55Yc9ndxrV9mAF9qybicoI7Rh2wu1wdwfspLW5LHyUwr1kctEYpemzJm4jWDDBhfIN4XElww8gDdjEn4fm5QyxSdDL0chDXUbXTUC8kDQazBLtve+KvSBWupjrHV619tYro/rvumH3CPpbSnmbMaR6He6lKDNxtF2hXY6QY6pctLSL61tZA4QamMrVhMsL9dZh/wge779qtWXJhU6yUCFnjomW9zJjVLA63klUYstducVrGGId0gwQ9t9n55ddNnlsRfbFHbxEr3f7nOuzf8betWz5+ARg8bhZi7t7G8kwuSar0MCLqOEaKjcoVFqu91fOviNjhoX+3YOvvP4lj9Zu1Q9sXu2WLhTKAydVNRaFUYfjnXwj+00f2dTrng1HTRFz3US1Rsjhnjh1ga1smk2PUDIv7ee6ED21uV6uI/vXLKhxziLfWatAMtPzl+sWzWLNirjgvuHgY+gybJCzcJdPH2NqmOPPQT+eLLGcSaC5MgAk8mECBi+gvVzzxo6OIljCgb7WsIjqoqgZNQ9NscVPHYTyKiNYKNGFc/fhsqSRpnUU0QGXGvKaJ8FLaA6VGkwRqvRTzTvrgVJwl5iQeyBkx0X133THHQURD3EkYY7OI6NsVtehYOlXEREkMMxdnEU1CuL8e8074Ys9du9vW1UDKeZsxs6lFiF2VNL30iRRRis9Vrd0w234/ioiWLBeOrj0/EO5LayzU8UKOIhpRswEatHgux+eQtQAAIABJREFU235QjPeHpbPE50o3N3wyebGw6MhN7VhcLXHJizs38xIXcm2PnmmJp7oS0cxLXKrWaogub/YRCVRrlmeIaGgY+gydhPiYe1gyY6yt2yo3Dwyf/AWLKCsHE3hIAk+kiLYNNaB/tUQYzVLhvjwUYxEqX4UZkxokPpIlahXRyGQVFjgkBVl5UUjtttoujOJBKQVCPIzoEGZABT89SvtoRcIQJewM3+OP2xmZtLkR0XpFyH2cKCyYP655YeddSzxYJQWmN7a4BB9VRO+olZh1PKt1T/HWW6nOY3zI+yVX1XJriVpFlNy5pyjTNlMxGvSIj80av38YS9Ra58bVi9i5aT202nTRevN2XUS2sKOI5maQLKK5ocV1mUDhI/BEiujwmqloVCwd31/0woZr9vhfsJsZS1o9mjs32N2EJS3jcSdVhcG7sybXPMwUk3t5VpNEBLgZMeOYHw7dtwigVUSPxagw5Yi97ZbFTBhcM17EbYfssRzvUVGDV8qpsfWWO5aesQudh9yM75/L6s4dWycFtYO1WHzKB9uj7O7c0t5G9KiYhtupCqy6aGFFyVOr28UiJk2JD3a5dh8/zDgftU5uRbTti6+jQfN2YonH7i2/P/TlH0ZEyXKjOCy5YSlxyVq69OiLqrUb5FlEybU6ctoS8TI0bUQfpz6TC5pc0Y7uXLK06WXh8rmT+PkbSrSylAYtO6Bt59dwO/KKSCCyFsrOJTeFo6uY4q+fTFksqswZ/yHSNZYsWqs7d/OGNTiy5x9bG607d0Ojlu1x5dwJ/PTNF+K4ktzQUxZDnZqEBZ/aY59FipZA3+GfChcxWblcmAATeDCBJ1JEP66hRuPiGmy+4YHl5+yJOLRmtG/V5EeyRGn96Kq2cSCXLC2rSc1Yu9k61IAeFVNFJu/ojFiplxyY1ihJEFx82hsXHJacfNkiESEeBsw85ouD9zPiaxnu3FS9FH22B4g1pOSlnd04GaV9dThw1xOzTljiwd0raPBqeTWO3HfDNIdEK7JQR9XNaon2idCgQyk1riSqMHK/XaCnNUxBRX8t9kR5Yt4pe6x5bfs4kZj10W5/25rTWkFGDKyWgmSdTCRhuSqUaerrHyiSUGit46OU3Ipo/ebt8NyLryPqxjWs/GKK7dIvvN4LZcOrimUutIVe5jJ4/GyRsPTLd4tx8bQ9+9SxHokoZagu+Gw41CmWOfXy8RPLXry8ffIsotTO4PGz4OMbgEO7t2Lrb2tF28VLlgWxpCUmjiJavnJ1vP7+R2Id5rxJQ2xd7D9iCgKDi+LAzs345w97UhWJKGXn0jH6jErJsuHoOWCE+Dtl59JyJEcRjb1/B7SuVIilyg39Rnwu+rdv+1/YsekX2zVHTlsq2v5m/ue4F3VDHG/SphNaduyaJVb6KPcBn8sECjOBJ1JEWxY3YFD1JPF2f+CeSixVKe5lQN1grYiRPkpMlJbTzG2SgjBvLRLS5TgUrYCPwozawTqoZCb8dNkLPztkv35eX42IQI3ICL6apMDtVCmqBhoQ6qUXy2o+3uOXxZ1rNEug1klxIlYB2tShjK/F8hm73x8XEi1u1NpBRoyumyj+fiJGievJCgS6GdGkeLqIkVJxdOeGuJsxu0kCPBQmRKfJcSNFhhJeJhTz1ENnlGDYngDcTbMHVsfXVaNmEY0QzMP3lVDKzKhTRCfO337LA4vP2F9OrDd4iw5d0bRtJ/FPcp3OnTjE9oDOy5cgtyJKGyD0HjYJnt4+Yl1j5JULCC5WAqXLVxJW5PJZ4xEbfTdLV7r1+hAVImoIC5OyY4ke9d9xXeRHE+eKDRbiY+7jwumjYp0q7blLx0hc8+rOpc7UatgCz7/6tugXuYvJiisXXkUkHVFxFFFKanp/yAT4BwVDnZKM65fPoWiJUggKLiaWrCyaOtIpw5dElPpKS3eobdoQoVx4VSF+ZLWuWjxdsHEUUfo3bVJBGzqElion9u+ljRYWTRmJNLV9E4XufYehbMUqYo5vXb8MN3dPFAsrLWLGtCnG4ceQoZ2X+4bPYQJPE4ECE9G3Kqbh5XJpWHfFC2sv21207TMSiy7Eu2PsQbtb8+3wdHQslQalzLLuj4Rz1213PFdSDZ3p4bNzKRs1WStF7x32daW0ZnJozVRUC0oXa1SpaAxSbL7pjjWX3EFrWa2FLNcxtVNRKcB5t5ckrRzfnffCroxYJtW3unPPx7kJVy+tOxWCZJJg9UUv/HFDJTZrsJauZbXoWk4Nd7lljLQG9OA9dzQuliYSjRxFlD6vGWhAnypqFM1ol47RBhFfn/PEkRj7Gls67iEHPqiqRoOQdBG/paIzSrEzyg1fn/OAwaEf1v7QbjjvD50AclHevR0pLJRHKTmJ6JhZXwnr8gfaRCGjhJYsi07d3kORosVtx1KTk/DPn+twJptN1UmQyFotVqK0LeuWxGbm6A/s7ZYqhxe79xbZstZy/85N3L19A9TPg7s2Y5vDsprcjJs2kejwSk9Uq9NICDKVqBtX4entKzaEWPvVfFy9cNrWJPXhxR59EVqyjO0Yif9f678Xbl7HMnL6UrHpBI29VqOWtqSoOzev44dls8RGFtby0pv9UKVWfZw+sg9lK1UVm1pQoU0f/ly3EhdOHXVqm9bWdny1J8Kr1hLrcMU9ok3HgV1bsNth16TcsOC6TOBZIyBp0KCBOTU19YkcN7lTK/oZhaBcTZIh0R7Keiz99VUA4f5GseTjUpLUaaeizBcI9TAjzNskNliI00hxOVnqJLZU3zGxiHZIivA3gWKch2NkTuLp2La7DAj3M4mdliKTZYixeOYeWMI8zSjmSRapFJHZLLexNkAMK/lbdoi6nCSF2sX2io4Xo913gooWx9Xzp52248upT4/7c+oHWaHJSQm4c/PaY2u+WFgZ+Pj5i63z7t22uDAfVyGrtkSZCsKSJBHNqZDbPKR4SdEXEvScCm3RRzHLuOh7iL1vX+vq6jxy45YoUx5mk1lk5T6oUMYyuZ9pIweySGmzBi5MgAk8HIEC2zv34brzdNfKLjv36R4V954JMAEmwASyI8Ai+hjvDRbRxwiTm2ICTIAJPAUEWEQf4ySV9jahRXG9cMs6xkof4yW4KSbABJgAE3iCCLCIPkGTwV1hAkyACTCBp4sAi+jTNV/cWybABJgAE3iCCLCIPkGTwV1hAkyACTCBp4sAi+jTNV/cWybABJgAE3iCCLCIPkGTwV1hAkyACTCBp4sAi+jTNV/cWybABJgAE3iCCLCIPkGTwV1hAkyACTCBp4sAi+jTNV/cWybABJgAE3iCCLCIPkGTwV1hAkyACTCBp4sAi+jTNV/cWybABJgAE3iCCLCIPkGTwV1hAkyACTCBp4sAi+jTNV/cWybABJgAE3iCCLCIPkGTwV1hAkyACTCBp4uApFWrVubo6Oinq9fcWybABJgAE2ACTwCBLCIqlQBVAozoVFKLIHcTtEYJLiUo8L/rCqToJU5dfruiDnRk3TUlupXTIdxfj9h0KX64pML9NCnMmQZIbZfzMaFDmA6h3gZEpSqw6aYCV5OkLlF4KszoEKZHtQADJFIzzsYp8NfNrP1wPLlxm06oGFEDuzb/huuXzj4BiLkLTIAJMAEmUFgJOIkoCeKn9dWoEqgR4zWbAUmGbhpMEgzd7Y87aXbBW9suHpCYodHL4KMyONVfdMIXO+4qnLgNrKJB65JqccxkBkhUqRyL9sSUo+5OdcP9TPi0fgIUMosU0/+pOvVj5J4ARKqdBZ3qVK/bBC+80UvU1+u0mDV2IMw0CC5MgAkwASbABPKBgJOIlvAyYUGzeCFwS0/5Y/sdGULcgM8aJSLQzYB9dzwx56Rd7EhEFTIT0vRSDN8TgHgdMK1hCsr4amE0SfD+9kCk6C29rh9sxMg6CTCYpFh0yhd77spQPcCECQ3ihUCO3B2Iq6l2YfyyRSJCPAy4p1Zg/AEfoaAT6qUizFuLJK0Mvbb7Z8FRqnxlvNV/uDiepk7BvIlD8gEZN8kEmAATYAJMwELASUTL+Rgxs0kC0gxS9NwaYGOkkgFKqRlGM5BmsAudVUQ/PRSAU3EOFmr7OCikZgz+NwB31Jbjr5fXoFsFNTZe98DKCx62tvtGaNG+VAr2RHlh3ik32/G17eNAZ/bbEYAEneWaASozlreOE9boG5sDXc5hcLESCK9eB4d2bYE23WJRc2ECTIAJMAEmkB8EnEQ01NOEhc0tluGx+x44eF+FnXdkQjxdFas7N7OgrX4uDu5yM4bt8ceNFJk4dUj1VDQLTceq8z74LVJpa66ElxELmiXgRpIKw/Z5i+OhHmYsbBGHOI0cfXf6OV062N0k3Lr3Na7jqPkBidtkAkyACTABJuCKQJaYaL8IDZ4rZYlbUiHXbqpehsP33bDinDv0JnszJKJmmNF9i7NV+H3bOHgonEV0WI1UNCmenu0s3EpSYUiGiIZ5mjG/eRxiNAr03+nLM8cEmAATYAJM4IkkkCU7l6y8cr5GVPQxokFRPcK89fBVGUTnN173wsoLDi7XPIjo1pseOBTtnHBEbWsMUpxPsFitLKJP5L3CnWICTIAJMIFMBB5qneibFbToWj4F0WlKfLDLx9YEWaJSqRnd/na2RH9oFwc3mVlk895MtQhjnwg1OpTSYM1Fb6y/pnrgRHjIgVVtY5Gil+O9f5zdub0j1JBAghXn7HFVnlUmwASYABNgAv8FAScRbVXcgOdLpyEmTY6ZJ+wiVa+IEaPqJiAuXYG+O+zuVWti0a9XvLH6skUYA1VmLG0VJ5avDNgViPtplqSgl8tq8VZ4Cs7EqTDxkCX2SaVvZS1qBqfjQrwbFp62i+vq5+LhJjPhs8P+OBVnEeLyvkbMaJwArVGKHlvsiU+O4Lr06ItiYaVw6sg+7Pvnz/+CKV+TCTABJsAEnhECklq1apl1Op0YbikvE+Y2syQWRSapsP++HEU9zGhcNB1uchN23vbEF6edl7jIZSaYzBIcve+G2HQJWpew1I1KVeLjvT62GGqwuxmzmiTCS2HE+XgVDkcrUNHXiIbFNOJ6n+wJxPUUe+bv8JpqNCqmEYJ5LFol1qDWCdZCJTfhdKwKkw7bhdg6V7UbtUTHV3qKfxoNesybNJQzdJ+RG5mHyQSYABP4Lwhk2Tv3lbJadC2nFkJoLSRyF+NVmH3CCwla5yUu9Nn2W+5oVyoNUokljTc6TY5Jh3xxX+O8IULNICP6VUlBsIclxkolRSfD+qse2Bjp7OL1kgMfVEtFvWAtZFJLu7T29ESMClOPeblkRctb3vtoHORyBeJjo7Fk+uj/gilfkwkwASbABJ4RAi43oJdJgDpFjAhUmaAxSnAuXo5oF4m1jtm5tCwlIsAo1oWeTXjw8pPSXmZU8DOKrQFPxT+4LsVHawYahXv4ZJzMtnlDdvMTEBSCsLIVce7EIbFrERcmwASYABNgAvlF4JF+xSW7JS751VlulwkwASbABJjAk0SARfRJmg3uCxNgAkyACTxVBB5JRHtX1kIpBb48++AlK08VEe4sE2ACTIAJMIGHJPBIIvqQ1+BqTIAJMAEmwAQKJQEW0UI5rTwoJsAEmAATKAgCLKIFQZmvwQSYABNgAoWSAItooZxWHhQTYAJMgAkUBAEW0YKgzNdgAkyACTCBQkmARbRQTisPigkwASbABAqCAItoQVDmazABJsAEmEChJMAiWiinlQfFBJgAE2ACBUGARbQgKPM1mAATYAJMoFASYBEtlNPKg2ICTIAJMIGCIMAiWhCU+RpMgAkwASZQKAk8VSJaxM2MKQ2TxQ91D96d9Ue5M89Q/yrpqF1Eiz8iPfB7pKJQTiAPigkwASbABP47Ak+ViBZ1N2NxyzikG6R4c2tAjtRG1FSjQTENfrnigx8vK3OszxWYABNgAkyACeSGgKRVq1bm6Ojo3Jzzn9VlEf3P0POFmQATYAJMwAWBAhdRcsl2Ka1HmLcBd9Uy/H1DiUi1xOXkFFGZ8Uo5HYp7GXEyRoF99+VY1MK1JUotdAwzoEFRHZJ1Uqy+pMI74WlZLFGZBHi1rEFc7/cbcrxWVodyvgZEpcrw63UlYtKz9oWO1Akyo0WoFl5KM07HKvDHTTl0xqzdprrhfiZ0KqVDEXcj0gxSnIxR4vebMpjNWet7yoHu5XWCh0Jqxq0UOZadV8Hkoi6dHeZpxvOldAj1MuJakgIbIhVI1Lq+t/1V1LZW8KNrX0lU4PvLimzbplYat+mEMhUqY9O6VUiIezpervibzQSYABP4rwgUqIgOqKpBqxJqSB10irTiaqIKI/c7xzhbFzegf/VEkOhZS6xGjiB3g0t37rKWCQhyt6saiVBUigphPlond65KBqxpFyuaJIHzkJts7dM5X572wY4ou+vXQw7MbZKIIh4W4bUWvUmC8Qf8cDlJ5nT8s/qpqBKYnmU+0/QyDNjlhxS9fUCNQwwYWivRiQedaDJLsOyUL7bdkTu1M6x6GhoXT4PEgQn1+Y/r3vjuovNvuvasqEWXsilOdakx6vfUw344Fe/cb/qsTuNW6ND1LXFNjUaNueM//K/uS74uE2ACTOCpIFBgItowxIDhtROFQGy74YVfIxVoUtSInpWSBKiZRwNwMFpqg7a0ZSKKuBtwI1mJqce8UNTdhBG1U+CpMGYR0Xcr6fBCmWQYzRLMPuaDa8ky9K6sQb2iGtGeY0zUUUR1RikmHvJFXLoEg6pqUL2IBmq9FG9vs8db+0Ro0aFUCtQ6OYbv84HRDPSupEX9Ymoka2UY9K8/1Bn6WjXAiE8bJMBgkuCbsz44EitDqIcZo+smQikzY8NVb3x/yS5285oko6SPDmdj3bDwtAcUUqB7hXQ0KZ4mrMUeW4Kgz9D4psWMGFIjAUazFItO+eBcghQNg43oVSVJXO+jXQG452BFf982Hh4KE7bd9MS6qyp4K4C+VdSo6K/F9SSlGEvmElGrAV5+s684rE5NwoLPhsNssr9kPBV3NHeSCTABJlCABApMRJsWNaBtmBbHYhT4PdJu6Q2toUHT4mocvu+F6cfcbEP/qX0cyODqvzMA8VqL6VUryIhx9RKyiOjsxkko46vHV2d98NdNS9skSAuaJiPEU5etiI7e749LiRaLTCkFlrRMhJ/KgCmH/XEs1nL861aJ8FUZ0G9noBBba1nRKgEBbkaMP+CPcwmWuo1C9BheOwl31XIM+tfPVreIuxleCiM0BinupdlfFL5tnQgflQGfHfTHyQzLkCzvkt4WVY5MkdtcwIOrqdGyhAarL3rh12t2TiNrpaF+0TT8ftUH312yc13bPk64hwfsDMR9jaXfHnIzQjyMQnRvpWa1RKlOhYgaKFWhMo7s3obEeIvFzoUJMAEmwARcEygwEXW8vFwCuMksQb8WxcmaSsTlBHeMOuApjlEsdEmrOCRo5eizwy5GoZ5mLGyeNSa6tGWCiD+O3u+HS4l2F+jYOmrUDnbOznW0RPtsD7QJNF13VuNklPXVYelpX2y9rYC7DPi+XawQnTc2BzoRnNIwCZX89Zhx1BeHoi3LZ6yWKFnEZAEej1HicIxdNDNPwfymyQjz1uF6shLbb7njwD054nWu48OTGySjcoAOc4/7Yu89+3KdhiF6fFI7CUfvu2PqMQs/Kt8/Fy9c1cei3bH/rgoHo+U2i5m/DEyACTABJvB4CBSYiFJCEbkTIwJ0UMlNwsp0LI4iSskz85vHIUajQP+dvrZq2WXnft06Hn4qE0bt83eKUbpa4uIoor23ByIhw8oV4u1mho/SjBiNBMl6CSge+v1zFmssc56Ptf8zj/riYIaIkhVJ16yb4Uam80iA49Nl+OeWO/533TlhqGGwAR/VTBKuXnENM5Cil+FakhzzT3ojRW8nNLVhEsL99Vn6QTWoLyei3fH5UbuIdiunxWsVUiGVWNom93CSVo6TsUp8dd4DGucQ7+O5m7gVJsAEmMAzRqDARHR07VTUDUlHnEaOzTfdbAk2lf2NaB6a5mSJ/lcimnnurSJKluVXZ71c3honYhWI1titTRLS2kEGVAnQIyLAgKKeBhHHpbLirA/+znA3Wxsr7mlCjUA96gcbUMzTgCIeFuVM0MrQb4e/iMFSsYrolpseuJ6c1RUbmy7DsRjnRKRwPyOq+OtRu4ilH/5uFuU8FuOGKUdcj+cZu/95uEyACTCBRyJQYCK6ihJd5CZ8tDsAUWq76LxYSo93IpKcRDRABaxoHSssp17b7e7cMC8T5jeLzxITXd4yAYHuRozZ74eLDu7cSfVSUS0oPduYaGZLNDNJiquuaRcnrLjXM7lzH5Y6WYlDqqehaWgabqWoMGTPg3daqhVoxLj6CaL5t7YGQmOw2LwT6iWjRpAO80/4YvfdvO2+9HxJPd6vkoRUvQzvbPN/2CFwPSbABJgAE8iGQIGJ6A/PxQu35cBdAYjOSHQhkZrSIAXl/LROIkp9/bGdJTGGkn+sy0jaltDhg2rJWUR0esMUVPDXijjkkrPuYqi+SjMWNEuEt9KYZxGldpa0SBLW4dzjfth3z27pfVZfDR+lCcvOeuB8RmJR55I6sU71cqICqxyycBsEmzCiTjyi05T4YJclK5Zc0wOqqaEzSrD4jIfNrWyNw5J09twaiLQMEe1fRYPnSqqx47YHFp32sE1n38paRATqcCRahdUZiUUVfMzoWUktMo0XnPJAesbKH2tMmRKc3spmx6fO3d5DSPEwHPh3C84eO8BfHCbABJgAE3gAAUmdOnXM6elZ1zU+bmqzG6egjK8Wd1KV+OESZZdK0KWMFhX80sVaRseYKF17RqNklPfTIVUnw8ZIdwS6mdEmLA0yiTmLiLYsZsCgGominUP33EW2bMdSWoRkuEazW+KSkyVK/WhXQo9+1ZKEW3X9FS/cVkvFRgrh/ulCpAb9G4BknYVW3SIGsZyF3L+0bGX7HTnK+5jQvqQGCpkJm294Yfk5e2btspaJYt1rdJoCe+6oEJ0uQceSWpTy0YlYKomoLmOFSTkfMz5vaHkR2XfHQyQK1StiQLPQNHG9EXsDEJlijzSvaRcPlcyEG8kq7IhSiPW2HUqmi/WuN5OVGLo36xKXRq2eR+tOr4ix6LRazJv4EQwGh8Ds474puD0mwASYwFNOoMD2zqVdfIbVTBaiYS0kkFtveeDlcim4mOCOMRnZufQ51R9aI9m2yQGtL72UoESlAK3LzRY+qaVGvZB0IbJUkrQysdSE6q+77IO1VyzLP5QysnItyUIPI6KUSdy3igYtQtMgl9rTi2jjh1nHvXEl02YLtKEExXjJirYW+ltksgKTDvkg1WGzBcrmHVozGX4q562PUnQyfH3WB7vvOcc+24Xp0aNiqrCubQz1Mvzvqgd+u+682UIHqhtO62qd13nGaORYeMIH5xKzZg2XLl8Z3fsOg1QqRXzMPSyZMfYpv725+0yACTCB/CVQYCJqHUaEnxnh/mR9SbH3vuu1io5DrupvQnlfI07GyXA9JfvlInSOv9KMpsUMSNZJsOuuc5LNo2IkG69pUSMC3Uw4HS/H1WTXS1HoOu5yoHGIEQEqE1INwOFoBWIfYOzXCDChnK9FGK8lyXAi/sHjrOJnQkV/I24ky3As7sF1GwabUMLLKDZtOBcvx+UH9JuuXzysDMLKVsTRfTtg0GeY2I8Kj89nAkyACRRSAgUuooWUIw+LCTABJsAEnkECLKLP4KTzkJkAE2ACTODxEGARfTwcuRUmwASYABN4BgmwiD6Dk85DZgJMgAkwgcdDgEX08XDkVpgAE2ACTOAZJMAi+gxOOg+ZCTABJsAEHg+BfBNRNzc3FMQmDo8HA7fCBJgAE2ACTCD3BPJNRL28vJCampr7HvEZTIAJMAEmwASeEgIsok/JRHE3mQATYAJM4MkjwCL65M0J94gJMAEmwASeEgIsok/JRHE3mQATYAJM4MkjwCL65M0J94gJMAEmwASeEgIsok/JRHE3mQATYAJM4MkjwCKayzmRymQwGZ1/uiyXTbisLpFIxe+hmkzOP132ONqWyeQwmYwwm+0/z/Y42qU25AoFDPr8+c1RuVzBv2f6uCaK22ECTCBfCLCIPgRWX/8gvPJ2fwSGFINcrkRSfAx+/+kb3LlxLUfRq9e0Leo1a4O0NDVWLpic6WoSFC9ZBs+/2hOBRYoCEinio+9i/aqliI+99xA9y74K/SZopep10aL9S/ALDBJCdy/qBtZ/9yXS1DkvPXqj9xAEFAnBnm1/4NThvU4XkkplqNWwBRq1bA/fgEBoNGmIiryKjWu/QZo65ZH6rVAo0ax9F1Sr3RBePn5QpyThyvnT2PLbj9BpH/3H4909PPFGn6GgP7WaNHw9//NH6i+fzASYwLNNgEU0h/kPLlYCfT7+VNSyWokkUFT+3fw7dm/9LdsWPLy8MXTSfPH5d4um4XbkFae6Neo3Redu72W0bbFuSaCo/PnLKpw4sCvPd+er7wxEeLXatn7Tr59KpFJhRX+7cIoQ1OxK83Zd0Kzdi0jXpGHx1FFI16htVSUSCd4eMBIlylQAYIbRaIJUIrG0bTJh6cxxSIi9n6d+kzXef+RkBASFCKuZ2iPWdE29TofZ4wbm+NLyoAtXrd0InV9/F2SZU9HrtJg5ZkCe+sonMQEmwASIAIvoA+4DuUKJYZ8ugEKpxOXzJ7F+5WKQR7Rhqw5o1bEr6B/L5kxE7L2oLK2QIAwYMw1+/kG4ee0Svv9yRpY6wz5bKCwi+gHsLRt+FJ83b/8SmrR5XojIrDEDoM/DD2P7+AVi0NgZQnzI8rx09gQgAd76YATCSpfH/Tu38NXcSS5HrlS6Ycin80AW4bpvF+HS2eNO9YqGlsT7QycKMft2weeIvnsb5Ifu+/FnCAwuiuuXzmHN8jl5+nY1atURrTu9Ck1aKr5dMBlJCXHw8PTGgNHTxRwcO7ALf/2yKk9tv/L2B8Iyp3Lx9FGUq1QdZrOJRTRPNPl0OW4vAAAgAElEQVQkJsAErARYRB9wLxQpGoq+wz8TbsRZYwc61Rw4Zgb8AoKw9qv5uHrhdJZWrIJAlt/scYOyiCG5cd/7cBySE+OxeOpIm4VFwjd8ymIolSpxnjZdk+u7td1L3UFu5MvnTuLnbxbazg8tVQ7vDh6DtNQUzJs0xGW7/T6ZjKCQYrh4+hjWr/oySxzVaqWSEP3y3Ze2NpQqN3z8+RfCnbvg02G57jOd8Pr7H6F85er4Z+PPOLBrs60NEuf+I6YgPjYaS6aPzlPb/UdORUBQMH5ZuVi8EI2YQmNjEc0TTD6JCTABGwFJ1apVzfmRcFIYtv0jK7F6vabClXhs/w6n24bElUT2l5WLcPGMs7VGscR+n3wOskZ/XD4X1y+fy3LLVanVAC+92RdRN65h5RdTnD7vM/wzBBcNxZzxg4VLNbelZJkKKFayLG5cuYh7UZG20/0Ci2Dg6OlCmEmgM5eWHbuicevnxXiXTB+F1JTkLHVefXcQwqvWwo4/12Pfjk1On5P4y+VyTB/ZL7ddFvV7D5uEkOJhWPftFxbrOaNY3eIU150xun+e2ib39o6//oe46Lvi/JHTlrKI5okkn8QEmIAjAUmrVq3M0dHRj51KYRDRB0H5ZMqXUKpUWWKdMrkcvYZMRHDR4oi8ch4/LJ3tspkqtRvgpR59cTvyKr5bNNVZRIdNQnDxsDyLaHb9rlGvCTq/3gsJcTH4ctoop2rkNh08frYQwZ+/+QKXz9lFzLHiq+8NQniVWvhn4zoc2PW3s4hOXgRygU8f2TdP91PvjychpFiYsJ7Jin6cIpq5QyyieZoiPokJMIFMBFhE83BL9Og3HGUqVEb0vSh8NWeik8uzadsX0KLDS9CkqbFoykjotBp0eu1dVKxaCycO7saOTb+IKzqK6Nqv5qH/iMminYWfD0effBBRH78AvD9kAsiq27P1D+za/Ktt5ORCprgjuadJvMjlSUti3h86ARRfpbjqzWsXRX1HESW3aO+hE3Dz6kX8+NV8DH+MIurh5YMOL78pPAB7t28SCVqPYomyiObhRudTmAATyJFAoRDRgWOmiwSU7Mrpo/vw9/9+yBHGw1SwujwpqeibhZNx77Y9y5WSbt4dPFZklG5YswLnThwSTb7csz8iatTDkb07sPnX1VlE9LcfVwg3q1UkHreIUjZqz4EjEVqyrEgE+nreZ0IkrcUa56QkpkWTP7EtgaHkJFres2bZHJtL2lFEU1OT0KV7b5EAtGjKiMcqoqUrRKB+s7a4cu4kNv78LYvow9ycXIcJMIECJ1AoRJRiaW5u7tnCO3fqMLb/YbEAH6XUrN8Mz7/2jsh6/fPnlThxaLdTc9bEGEo0ooQja8lJRMmdW61uYyG+Jw/teeyWqLVf6pRkfL9kpi0uSP1TubkL8aOSORs3JxEld2795s8h+s4tRF658FhF9F7UTVSuUVfEdVOSE1hEH+XG5XOZABPINwKFQkTzjY5Dw/RA79rzA3Fkx6b12LfdOamGjvccMBIly1YUyUKUdWstlCxDyUbZWaL5GRN95e0BqFS9jkhQoqUnd2/ZE42of27uHiKrlgolSDnuxlQ2vIoQ2ewsUY6JFsSdx9dgAkzgSSbAIvoQs0PLLrr1+lBYoHu2bcSuvze4PMsqotk16SiiFCN97d1Bwr26Ys5Ep1OsFmBes3Otjb3YvTeq1WkErTZdCOGdm9eydM1RRLPrt6OIWtukJSi0FMWxjJi2hJajYsZoy8tGbgst+aGlP7+t+Qpnju23ne7p7YMhE+dBl67BLBdZxbm9DtXnxKK8UONzmAATyEyARTSHe6J0+cro0e9jIaBH923H37+uEZssuCqlK1SGl5dvlo+q12+CMhUinCxRWj4zZNJ8GA0GLJs1HkkJseI8ikFSjJeuR2tTM291R8tmuvcdimKhpXH14mls+GG5y7507NoTtRu3FOtT166Yb0sMylxZJpOhcvV6Ltto88JrYus9RxGl5S20zCU+5j6WzBhjO69hyw5o0/k1xEXfw9KZY7O0R8tren4wUuy1u3XDGpw5fjBLnQ5d30Kdxq1w+sg+/L72a/E5cSAXOrnSaccn2vkpcwmvWhsdX3kLBqMRv/+wHDevX87xm84imiMirsAEmMBDEGARzQHS8ClfQqVSCTfn9Svns9SmHXoOOmwM4Ko5VzFRqkf705arVE24Wnf9/SuMRiPadn4NSjd3IUbLZ4/Pss1dpWq18co7lo0fqE+zxg10uQH8mFkrxDpV2p0oNSUpS7f+3bwBd25ef+DoXcVEvX38RCYviSFZ0Vt/+xHh1eqgdqOWIqa7ecMaHNnzT5Z2X36zHyJq1RfHtenpmDN+UJaNHEqWC0ePvh+DhJ3iygd3bRHtkjuaMpdXfjHVpTVttWCp7QunjopNIjKXTt3eg7evn+0wvdRQm7QMiYpBrxNZyVyYABNgArkhwCKaA60RU5eILeeyK6eO7MPGDKspuzovv9UfETUpO3c7Nv9qzxL2DaCN7QeAsnrJ4qJCD/b4GLLmxrlsLjC4mNjLl4SGNpKfN/Ejl/XGzPrK1qarCj99s1Bkvj6oWHdl+mHZHEQ6bBhRsVotvNCtl4inWovRaMC5E4fx+49fuWyyTuPW6ND1TfHZnVvX8O0C5w0mrCfRlorN2r4o1uBaC23+cGjPNuzctN5l2y92fx/V6jQWn7lyM9Px/iOnWDb5z6a42pUqN18krssEmMCzSUDSokULc2ysxZX4OEth32zhcbJSuXugRr2moJ9ZO7p3B/S6B/9aSfGSZUXm6tnjB52W2DzOPj1MW0FFQ0U/EmLu4+yJQzDn8DNuDVq0F3sFk9Wd0y5ZJctVQqnylXAn8qpwW+dUaH0uua5z8grk1A5/zgSYABPIDQHeOzc3tLguE2ACTIAJMAEHAiyifDswASbABJgAE8gjARbRPILj05gAE2ACTIAJsIjyPcAEmAATYAJMII8EWETzCI5PYwJMgAkwASbAIsr3ABNgAkyACTCBPBLINxFVKBTQ6/V57BafxgSYABNgAkzgySeQbyL65A+de8gEmAATYAJM4NEIsIg+Gj8+mwkwASbABJ5hAiyiz/Dk89CZABNgAkzg0QiwiD4aPz6bCTABJsAEnmECLKLP8OTz0JkAE2ACTODRCLCIPho/PpsJMAEmwASeYQIsos/w5PPQmQATYAJM4NEIFJiIvlhai+fCdNh8U4U/bmT/+5yPNhw+mwkwASbABJhAwREoMBHtGZ6Gl8qm4ZcrnvjxsnvBjfABV1rTLh4KqRk9tgRCb3oiusSdYAJMgAkwgaeIgKR58+bmuLi4fO/ykyiiP7WPg1xqxhubg1hE8/0O4AswASbABAofAUmrVq3M0dHR+T4yRxHdEeWG9iV0gAQ4GSPHiXhZttdvGGJCJT8dDGYpzsTJcSJO+oC6RlT0M8BTYUKyVoZ99xS4niKx1VdIgeZFjbZ/96ueCJnEjCWn/GE2Ww7TH9vvOPdHKgHalTCguKcRKrkJ8RoZ/rqlQLLO3nbmTvkFFkGjlh1x+ewJXLlwKt/58gWYABNgAkyg4AkUuIjeSlGimKdeWIBCtMzAsRgVph31FgJmLSU8zfikVjJKeNv336W6lxOVGH3AJwup2U2SUdpHR7psK0aTBLui3LH4jIc45q0wY2XbB1vdRrME3f4OtLXhrzJjZuNEBLjZxZc+1BmlWHvJC79FZo3venr5YPC4WZDJ5TCbzZg5ZgAMel3Bzy5fkQkwASbABPKVQIGLKAnl/jse2H1XgWqBBjxfWi3Ec8L+AJxLtFuZkxukoHKAFnEaOdZedoeH3IxuFTTwVBhx6J47Zhz3tIF5vZwO3SomI90gxZpLnohLl6J6oAHtSlraHrs/AJeSpJBLgX4RaZBlKG2zUA2kEjN23baILBWTGViUIbr072HVNWgSqkayToavz3nCYJKgaTE9GhZLg8kkwcBdAYhJd7ZIffwCMGjsTEgkluNfTP4EyYnx+TqR3DgTYAJMgAkUPIECF1GyJEftt1iSJDGfN1CjcoAGe6K8Me+UykbAmvQzbI8/bqVaxLV6gAETGyQiVS/FO9sCbHUn1FGjRrAGmyO9sPy8m+1446J6eCuNuJSgxPWUrG7gh4mJLm6WjKJeOqw47Ye/b8ttbbcO1UIhM+PwfRXitVndulVrN0TVOo1w8dRRnDi0W1ikXJgAE2ACTKBwEShwEd1wzRPfX7Rn575UWo+elZNwKcEdow9YrMsibmYsbRWHxHQ53t/hZyPurzTjqzZx0Bkl6L7F7nLtXyUdz5VMRaJWjm/PeeJqkhx3NdnHK60NPoyIflpPjapBGtxRK7H6ggcuJ8oQ/4BYaOG6PXg0TIAJMAEm8CACBS6imZe4tC9hQN9qibic4I5RGSIa5mnG/OZxiNEo0H+nr63/bjLgh3ax0BsleMNBRD3kwKLmCfBV2eOWlFh0MUGJn6+641qy62SkhxHRsj4mTGmYAKXMHsNN0MpxKlaJtVfcEfMQYs23IBNgAkyACRROAoVCRGlqPOVA17LpqBqoQ6CbCT5KI2RSMzQGKYbu8Xcpdg8jolbLuEuZdFQJ1MFXaWmbwp0kpkN2+yJVn7PVWzhvHx4VE2ACTODZJvBEimiQyoylrS3u3N4O7lw/JfB1m9gs7lxXU0jZvePqJaGIuwG/XfPGqov2eGtu3Lmu2q4eYMKIOolwl5sw7YgfjsTYY6XP9u3Eo2cCTIAJPFsEnkgRpSmwJBaZMGx3AG6pMxKLAo2YWD8hS2JRv4h0kb37W6TKyXXbq7IGnUqrse2WB5Y4ZNxap3ht+zixY1Gf7YEuk4PIuu1TWQMTJPj6ggpqB4tzdpNElPExYM5xX7EeNXMpUbo8WnbsilNH9uL0kX2cWPRsfa94tEyACTwjBCT169c3q9XqfB9udjsWuYqJUmemN0pGBT8dkrVy/HTJE94qM7qWSxGxyaP33TH1mH2Jy8S6alQvooFaL8PmSE9siZKjU0k9OpVJFUtYlp/xw+ZbWa3FVW3jxcYM99RK3Ei2CGGKXoolZ+1W65fNkxHiqUNCuhy/X/PE/mgZ3qqgRZPiapFeTMtnLjoszaE2fPwCMXjcTBvTOeMHI12Tlu+M+QJMgAkwASZQsAT+871zsxPRYDczpjZOgr/KYCNCqT33UhUYtNuebGT98Ns2CSJW6Vio/qV4FcYc9HZJ9eUyBnQPTxK7FllLXLocfR1cyCHuJixsnmDbHMJaj1as7LzthUVn7EtqrJ95+fjiw/FzxDpRWtoya8wA6HmzhYK9s/lqTIAJMIECIFBgIkpb59F/tJkB/Wct1uMkSsZMSykpeSdYZUbbMAMMJuCPGwqkGSxb82Uu1E55HzOa0NpQhRlRaim2RymQqHNd33o+bbyQsSeC5ZAZMGS6ALVdJ9CEOiEGKCVmXE2SYfsdOTTOmu3UJXdPL7Tu1A37t/+J+Nj7BTCVfAkmwASYABMoaAIFJqIFPTC+HhNgAkyACTCB/CbAIprfhLl9JsAEmAATKLQEWEQL7dTywJgAE2ACTCC/CbCI5jdhbp8JMAEmwAQKLQEW0UI7tTwwJsAEmAATyG8CLKL5TZjbZwJMgAkwgUJLIN9EVKlUQqfjH6IutHcOD4wJMAEmwASQbyLq5eWF1NRURswEmAATYAJMoNASYBEttFPLA2MCTIAJMIH8JsAimt+EuX0mwASYABMotARYRAvt1PLAmAATYAJMIL8JsIjmN2FunwkwASbABAotARbRQju1PDAmwASYABPIbwIsovlNmNtnAkyACTCBQkuARTSPU9ulR294+fph+x/rcffW9Ty10r3vUJiMRvz09cIcz2/WvgtKlq2AAzs24+qF0znWL+gKJcuGo1n7F5AYF4s/f15Z0Jcv9NcLK1MBb/YfDqlUhshL57FmxZynbsxhZSqieYcXH+keqVa3MarXa4zzJw7j2P5dOTLo0W8Y9Dod1n27KMe6XIEJ5IUAi2heqAEYMHo6/AOL4McV83Dt4pk8tTJqxnIYDHrMHjswx/NfeWcgKlWrjT9+/hYnD+3JsX5BV6hcox669uyP6Hu3sWL2xIK+fKG/Xqly4XjrgxFinHduXce3CyY/dWOuVL0uXnn7A8Tci8Ly2RPy1P/m7bqgWbsXcWDX3/hn47oc2xg9cwW0Wg3mjv8wx7pcgQnkhQCLaF6osYhmocYimscb6SFPk8pkKFI0FAqFEgmx0VCnJj/kmU9ONRbRJ2cuuCePjwCL6EOwlEqlCK9aWzzEUlOThCXY75PJWSxRv4AgFA0thaSEONy9HenUMp2vTdcg8sp523FHS5QeMIHBRZGSlIBTh/dm6ZWjJXrz2iXRH7PZjMjL53H/zs1sR1G+cnUEFwuDXq/D7euXs/TrIYbvsop/QBFUqFITCqUSVy6cRkBQyAMt0WJhZRBWpjzkCiXu37mFaxdOi/47lnKVqsFkMkGdkoTylavhzLGDSEtNQc2GzYXb+/iBXVnOofNLV4xAsdBS4tyom9fEOLMrVLdo8ZJQublBk5YmvAix9+9kW79i1Vpi3rUaDa5fPoe46LtZ6hLfgKBgJMRHQ6fVoXL12jAaTbh5/RLu3nR29ZePqAGpRIpLZ49naYfmSi5X4MbVi9CkWXb7Kl6yLHx8/Z3qxkbfQ+z9qGz77Onti3KVqsLXLwApyUm4euEMUpLis61ftlI1FC0eBoNejxvXLuJ+VPb3U27uF/o+VKhSC7QF6NWLZ+AXUMSlJVqpWh0xd5mZlCpfGe7uHuI7k65JE5d2tEQptFG1dkPQC8btyCu45WLeHS3RKrUawC+wCBLjY3H22IFsh0L9LlOxCjy9fcQLy5Xzp8R3lwsTcEVAUrVqVXPmh9njQFVYtv1zc/cExVWKlShtw0JfQrlcDi8fPyd3bs36zdCp27s4dWQfNq792la/XOUaeOP9D4V4fDV3krOI6nXiwV+2YhXbcRLSVYtnIDE+xnbMKqL00A8rW1FYJFSMRgMO7NqCnZvWO01bUEgxvPxWPyGg1kIPqgunjuDX1cseaYprN2qJdl26QyaXi3ao3bPHD6JanUZZ3LkqNw90eu0dVKpeBxKJxHbdu7dv4Mflc6BJU9uOjZi2RMSv3NzcxYNRnZKMlMR4FA2zsL945hh+WbnYVp8edl169EGJ0uVtx+hevnbpLNaumJdljG/2/wTkFnXsh9FgwNH9O7H1tx+d+RUNxWvvDERAkRDbcWJ94uBu/P2/1U5127/8Juo2aY3Iy+dAsWHqOxWzyYSjB3Zhc0Z9iUSKIZPmwt3DC98vmYlb1y45tTNi6pdQKFXC1UkuTyr9PvkcQSHFnert2/EXdvz5i8s5rNesrRAaN3cP2+c6bTr27diEvdv+dDrHPygYXd/qj6IlSjncI0acP3EEG9Ysf6R7pFbDFmj/Ug+ne+TciUNC9DK7c8fM+koI+MwxHzhdc9hnC+Hu4Ymv532Ge1E3xGdWEb0deVnc20qVm4W12YxTR/aKeLzj80yIaHoaYqPvIqx0BVv78bH38cPS2UhOdH65aNHhZTRo0c72/aITUpITsWndd0JMuTCBzAQkrVq1MkdHRz92MoVFRNu88DoatmgHo9GIfzdvAD10G7bsAC8fX8HMMSaanYiWj6iJ13sNdimiMpkM2vR0HNq9VbRdv8Vz8PDwEm/AS2aOFQ9iKlYRpQcEfZnJKipfqRrKhlcV5y2fMwHxMfdt89jn40niIUMPiWP7dsLTxwfUP3pI79/xN7b/mXM8ydVNQS8Og8bOgEwmFxYwWeWhpcqjcvU6Qjwyx0SbteuC5u1eFGK5e8vvMJmNqN+snbDcyHpYvWSmYEtlxLSl4uVk+x/rQBYgJdOQlXhs/060e6mHqDN73CCbVfBG7yEg65XE9sje7VCoVKjTqCVUbu44c/wgfvvBLgQ0Z206vyYs8sO7/0FqcoIQX3JDE9Ov532K6Lu3xTUoeWfQuJnw9vET8ccTh/bAy8sHDVu2Fw/tLb+uweG9/9jwWEWUDpA1dObYAWFBVqvTULT109cLbA/g5199B7UaNhcvHRsc+hdaqhzeHTQayckJWDR5hE0I2r/8Fnz9A8S1gouVgK9/ILIT0WJhpfH2wFHCmr128ax4mShZtiIqVqkpLPlVS2YiKvKKrd/vfTQOxcPKIPpeFI7u2yGEt2HzdnD39ML+7X9h+ybXQp3Tw4Is4cHjZmbcI7dw8tBu0PgqV68r7pHHIaI0Z7cir4iXQrpPqG0q3yyY7JToRyJKniS6/+g7RvNRr2kbMVaaq1WLp9uGU6p8JfToMwwSqVTMD1nkdH8UL1kG6tQULJs1Dho17wee0/w/a5+ziOYw40MmzYOnlw82rVuF4wct2YA+/oH4YMRk4Zp8HCK6Yc0Km3uJ3KIfjJoqrjNzzADodVonESVXHwkPFfqy9xk2SbgbD+zajH82/mwbzagZy4TFtWTGWCTGWSxaq8gnxMXgy2mj8nSvk0Xea8h4pGvUmOOQrNGt14eoEFEji4h+OGEOvLx9sHrpbNy8etHev+nLhJWyeNooW/9IRHXpGsz/dKgQRxLJPdv+wO6tv2PUdMt45k78yPYg+2TKYjEHK7+Ygru3LO7zMhUi0KPfx8L9N2f8YNv1Xn//I5C7lDI6/1q/yna8TpPWQizJ3Wi1DEkoqW2DXod5k4aCLDkqdZu2EdYVueq/mf95FhFNU6eKvltffF59ZyDCq9V2EkxyE/boOwypyYlY8NnHtjZ6DhgpBG/Hn+uF1eiqWBlnJ6IdX+kJ8hJcPncSP39jz/h+uWd/RNSoJ9yljlmqI6eTR8KMxVNHif5QqVilFl57b5DwgtDxvJSQ4mHoPWySeNmZPY7mwOK2f/XdQQivWuuxiGjM/TtYPmu85XsgkeDdwWPEi0vmlxOriDp+T4kz8aZ5neWQ1PdGn2EoF15FvLT9tf570Ta9LPYbYQndbNmwBof32F+e8sKGzyl8BAqFiPb95HN4eXlnOzunjx3A1t/W5nr2ZHIFyMUGsxnTRvZ1On/wuFnw8Qt4ZBGlB+6M0f1tbVsf4HSAvuDWB7jVEt30yyoRG7QWq3vr0rkTWPfNF+Kwb0AgBo2ZKazQLyZ/YqsbWKQo+o+cgvQ0NeZMsGQryhUKDBwzAzKpNFs+e7dvwsFdW8TnFSJqoluvwYi6cRUrv7CIPZXajVqh4ytvOYkoWYQff/6FGANZkI5l6Kfz4eHpLdzb5OamQiKanpaKhZ8PR9nwKujeZxh2bPof9m3/E9aHoVVEySL+aMIcYYWScFmLl7cvPpo4V7gHHbl2fLUnajdsKZhsXPsN4mLuifizqxJcPEy8nJBlumKOPdPY29cfNO8Us3UUQKsleu3iafy4Yr6tSVeiS/NL/SbxXzx1pOgPicCIqUvEXCyZPgbkanRVchJRenmgl4jMGdzk9q7VqAXUyUk4tHubaJpeBAePnSmuRde0FrJCh06aLwTQ8SUk25vDxQflKlXHG70/Ei823yywv2yQi/f5V99+LCJKYkaiZi016jVB59d74d6dm/h67qe243TfGA3kKh5gO0axziET5wkPzvRR/WzHB4yeBv/AYKxeOgs3rlywHac+U9+P7t2Ov3/9ITcouO4zQKBQiCgtN3GMAWWetzPHDwgXXG4LicDwyYuyfNmoHVdLXPLizs28xIXcXaNnWNyQs8cNFK5eKtktcalWpzFe7P4+rp4/hbVfLxB1Q0JLovfQiYiPuScsUWuh+OTwyV9kWAgWUaPEoMHjZj8Qzd7tf+Lgzs2iTo0GzdD5tXdF/O+HZfa1iq6yc60PKzovc9zdGpckN+q9jESW3IgoJWH1HzEFyQlx+GKKZemHGI9CCYqt0oNz+ij7ywnF1j4YNU3E2KwllZJuLp7F3n82Cve5tZBb763+n7hMYqJ+p6UmCwvVWqwiev7kYfzv+6W24+RWpXWN5AK8cPqo7fhLb/VDlZr1RQLZxp++gYeXt3iok/VMLwTkenVVchJRqzX725oVwqX8oBIcGoY+QydlO0aLFen84vPABh0+rF6vCV54vRduXr2A75fMsn2SXXZuXmKimZe4kFua3NOZXcWulrjY7xFnER00dqZwl3//5QxQ8p61NGnbGS07vIwTB3bhz1/sXoyH5cH1CjeBQiGi+TVFz4KI5pZdXkSUYp43r9lduY7XJLeZVcDyU0TpmiSgbV94HSXKlBdWMFmFFC9LT9dgybTRSFOniK5ZRZRELXOWNX1OiSrrv1uSo4hmx9bqTqSElYWffSyymuklhBLE/tn4U7ZTkh8iqtWm487Na1muSbFjq2cjt/cIi2huiXH9p5kAi+gDZs/qWiURmJ7JnUvJNb7+QU7u3Br1m6Fzt3ezxGWs1iJlGFKmobXQEheT0eDkarK+JVMdV5bon+tWigxRa2nYsiPadH5VJK5QAgsVq5VGsVCKOVqL1YWXOV6YmxuYLKsX33hfxA9XfTnDdqr1wemYWESiRRmWJDqW2NiDS25E1DcgCIPGzMgSWyR35LBPF4hNLGY4WKKurkyJOj36fiyWMuzf+bdIaKJSvFRZvDd4rMgIdZyv7HqfnSWaXX3i8tFES/bw3AkfCkaUYLbw84+RkmSJTboqOYkoZR+XLl9JZIZThri1kJuYXNHk4ra6sAOKFMUHI6cgLvoOls60xBYfV6lapyG6dO+DqMirWLnI7vK3fg9cWYtkfTu636kvFAogD5Ojt8IavqAkIccQTXi1Onj1nQGIuXsbyx1c8GSJ6vVazB5rt6opO3rYZwuyeJgGjpkuluFQzgHlHlhL2xffQIPmz4ks7r8zYqWPixW38/QTYBHNYQ7py0ZfOnJdkguTCiUb0HESWceEBau7ijJKl2UkPVD913t9CFofeOroPmz80b70hUSUHp6ObVCcleJuVFwlFl08cxy/rLRsYUauRXLhUXbikX3bsfl/9ngNtU0LSv5U6XUAACAASURBVBZOHi7ihlRomckrbw8Q61gXObhAc3MbUwZor4/Gi/Wb8yYNsZ36wuvvoXq9plkSiyi+5ubhKRKZ6LrWQkkmCoVCJHDQkiEquRFRUX/ql6C49dIZY5EQZ3HHUnLJex+OdXJZ0/FWnV6F0s0NR/7dJuKh1tKyY1c0adMJp4/sxe9rvxGHrS9PFMudO+EjsYyICq11bdnhJajVKfh9zVe2NnIrouKe6D1EZFfTC1HNBs1gMBjEzlXWa7mak5xElJYS1WzQHCcO78GfP31ra+K5Lt1Rv1lbsd6SlnVYCyWfmYwm4UK2xt4pbt7upe4gC/V/q+zWtu2kjHuOEuB2b96AYw7xeWsdazjBMfZOn1n7l1lEB4+fLdbC0vaXV86fFM3Qd4ySuyj57Mvpo23eCquI3rl5Hd8utO/aZGXj+P2gdqyxdIrfUxxfzGNGcpxOp8Ush1gpbatYunxl7Nr8G/Zs/V3Upe9YryETUDS0JP75Yx0O7Pw7N18XrvsMEGARzWGSX3tvsFgiYDabsHHtt4i5fxfdeg0SGZ1UHAWQ1hTSJgzkIqT0+d9//BqN23RCrQbNRN2lM8c5Lda3iqhOq8HGn75FWkoKXus1WLx963TpmDNusFiDScUaE6W/U7xr51//Q5tO3VC5Zl3RN0rtv3fbspaOCiXXUJINxQwpGSmoWAm0bP+SSF45dXQvNv5oEYzcFkq8oAQMKlG3ruH7RTPQ8vmuaNC8nXjgZF7iQrExslJpiQElbMTeuyMSk6wbK9AD3LpsILciShmglAlKiT6bf10Ddy9vtOncTSzuv3X9klhray0U4yQ3LfVj3/ZN4mFIc9OifRex7GHbxp9xcJcl7ksP7k+mfClecCg2RhZ+QHAxvPbuQPGwp/jm+u++tLWdFxG1PsitjZw+uh+//2gXZjpOLwR1GreyXSesbAXQJhc3r1+2ZTTTh9Y1ybQs6LV3LRbXxdPHsH/nZtRu3BLV6zQSx6h9uo61WJPj6L758at5cPPwQrd3ByIwuBiibl7HSgeRsp7TqGVHtO78qvhnZhGy1qFEJkpWs9wj17F68Qw07/ASGrZoL+6RzCLa/qU3Ubdpa+E9oNyFpMQEscbZzd0d8bTUa/poW5+tIkoHaM30Hz+vRNM2ncU4qaxZPhfXL5211bcvcUkFZcFLIcVLb/UVy6AyJ1XRCwgJPRXK0D174hCat38JpcpWFEujyFOQnmbZ9IELE7ASYBHN4V6gLNAPRk6FUqWy1SRh02rSxHq6zHvnRtSsj5fe7Ou0oJ9OpPWU5Ip1TLAhEaUEGBIRck9aC7VPDw6rhUbHrSIaG30HQcHOi+8dM3OtbYQUL4l3Bo0WiUOOhRadU8ZpdskrD/PVsLq3HOveuHIRpcqHZxFReiGgJTEkvqLQLkUZmy44Wgf0UW5FlFyS7344Bu7u9mQhaodijZT5StmX1kIvDx9NmOsyAe3+ndv4Zv6nthcWOiekWBh6DR0vBNaxJCcliKUVjjvY5EVEKZmIrHRroWxpstwcC91LJCY5lWkj+tj63uHlN0HLdjKXcycO4tfVzhsokNVJc2PdsMB6Di3VIeveumuSY1uOQp2aQjHd4S6Tk6zrq53ukauXUKpcxSwiSmuX3x8yXoi3YyGRJtaOHgyriJIAkjXsWOgF7qs5zslSJKJkZdNyJfouWwu5tpfMGI3kROcMbetLs2O79H2kl6zDu7fmNBX8+TNIgEX0ISadHjKUDELxwJh7tPh/h8gCJZcTxZjoLdWx0LpSeljQTkUUVyOrgB6+QkAcCu0YQ8doITe5WmkNIa2lvHTmmDjmWMiqpH5Q8gudV6NeU7G13OHdW5zE1vEcysYtWqKkSFrRpafj5OE9Yv2fo7g8xPCzVCFrgkS/dsMWcPf0Fg8XetDRuMmayLwLDFl0/kEhwt3r6eWNK+dPI/LKuSwL12lctOSHXh5I/L19/JGWlirEhT6TQAJa40qWt7XQyw3FNiNqNYDZZMaJg/+KOvTQzFzI+qAdhcizoHL3ENYc7aJD7nfqd+ZCsUvaxrFKnYZIV6tFrDvmfpSILToWepkiIaeNzq2u84fhSvE38lpQIXd05gxmGpuXt/3Bn12bmZfEUPzz/+ydB3RURRfH/9s3W9JDQi+h996UJsXeC+pnpSioNBVQUEBpUhQFARFFARV7r3TpvbfQaxLSs9nsbrZ+585mWwokIcSE3DmeY3g7b8pv3nv/d+/cmRfbqAVq1GuAyxfPIe7Q7nxi4SmLmERXrYHm7buKfh3dv0tcs571yQXV2aXX7SICnKx5f++Hf15xjYRFoE2XniKIa+em1chMSyn0GqGo9PCIKqC4AqU6SHgFxL2Vu07aUzaNCU2vWCwmUS5dgzKFEtvW/SnGPW8S15TLJa412vavRt0GOH3skPgSUkEvCXQ+TanQPUPrr08dPSiC4iriXsVFuQY5z7UT4L1zr50hl8AEmAATYAKVlACLaCUdeO42E2ACTIAJXDsBFtFrZ8glMAEmwASYQCUlwCJaSQeeu80EmAATYALXToBF9NoZcglMgAkwASZQSQmwiFbSgeduMwEmwASYwLUTuG4iqlarYcndPP3am8klMAEmwASYABMofwSum4iWv65yi5gAE2ACTIAJlC4BFtHS5cmlMQEmwASYQCUiwCJaiQabu8oEmAATYAKlS4BFtHR5cmlMgAkwASZQiQiwiFaiweauMgEmwASYQOkSYBEtXZ5cGhNgAkyACVQiAiyilWiwuatMgAkwASZQugRYREuXJ5fGBJgAE2AClYhApRbRJb3ToZC48OzacNh9n6isRMPPXWUCTIAJMIFrISDp0qWLy2AwXEsZFfbcb25NhVzqwqP/RMLGIlphx5EbzgSYABP4rwhIevXq5UpKSrru9VfVuBCldiHJLIHJAbSNtEMqAc4aZDidJS20/kahTtTQOuBwSXAuS4YzWZJ8ecNVQA2tE1k2CVItErSNorJduGiU4Ximr2yZBGgW5lPLNzqmQyZxYcqOcDhcvmIPpAW2RyIB2kQ4EK52QiF1IcsqxZ4UOUz2wrFp9SFo3KIt4s+fQcLFs9edL1fABJgAE2ACZU+gzET0yUYm3FfPhMOpatQLtiJI4RYzpwv47bQWy44HBfQ+QuXCiy2y0SrK4j1OebckaDBnvyYg71217Hi2WQZOZqgQFWRHiMohfne5gI3xGnxwwJ1fr3Dh8z6pV6RMYv3I3xHePFq5C293ykKdYGvAeSabDIsO6bEpUZ6vPJU6CMPfnA2lSg2Xy4WZ44bCbrOV/ehyjUyACTABJnBdCZS5iFJvzhqU2JeiQGywHS0ic4TYjdgYgUvZPivztbbZ6BBthtEmw5YEJVQyFzrHWKGSObHqvBYfHfaJrkdEqezLJjk2x6sQGeREl6oWYTmuiNPj+9MqqGTAm+0N8NiZDcOsICszLk3phUwi+uYOvfffQ5pa0Le2EWa7FGsvqmFzSNE8wor6oVbYnBIMXhsuLGD/FBYRhRdef8d76KNZbyD1csJ1HUgunAkwASbABMqeQJmL6CWjAsM3hnh7+t5NWagdnIMNF/X44KDKe/yLvmlQy1x4Y1sojmXIxPEOUTa81j5TuFOfWRPuzesRURK1YRvCkWx2i1r/2Bw80jAL5wwKvLzZV6fnxKLMic7vZkCMzopPD4Xizws+q3NwUxPUcid+OqXBxez87uhedzyIhs3b4OKZE/jrh+VwOnnStewvb66RCTABJnB9CZS5iP5yWoNlcT537J01bRjQPBOnM9UYvUUnehumdGFx71QYcuQYsDbUSyBS7cKiXqmwOiR4bKXP5eoR0fMGFUZt9lmRLcMdmNgpHekWGQatC8tHsigiOq1TNhqFm3EiXY15BzVIs0hhdnuLOTEBJsAEmEAlJ1DmIvr9SS1WnPC5YpuFOfB253RcyFRh5Ba3ANbUuvB+91QkmxUYst5nQaplwJf9UmBzSPBoASIal6bGuO1uIaYklwB317HD6gD+OJ9/7rIoItqE2tcpQwQqUSLXc0K2Ev9eUuOP80qYrxBcVMmvLe4+E2ACTOCGJ3BDi+jVRq8oIipEXefCi82NqKG3iTlWWhZD6bJJgWEbQgIie69WJ//OBJgAE2ACNw6BMhfRH09p8aVfJG6XaAdebZuO85kqjMq1RKtrXJjbIxVpZjkGr/e5c/UK4PM+KbA6JXjsn/zu3LyW6NWGqagimrecbtFOvNQ6XYjp1F2h2JOc38q9Wt38OxNgAkyACVR8AmUuokdSVQHRr2Nbm9GxajZ2JWoxfa/PzbuiXxpkUhdeWBeOlBx3oFD9ECdmdE1Dtk2Kp1bnDywqqYg+uyYShsAVLKI+jRx4qK5VrFH98qQiYLRndM1E/RAb3tsbgs2Jgb9RxiCNFrc98AR2bFqNS2dPVfwrhXvABJgAE2AC+QhIOnfu7MrKyrruaDzrRGlOcVO8FkuPqXFHbSvuj80Sy0ym7QzD7hR3FC6lD27OFO7TS0Yllh7VQa904YlGBoSpHYhLU2Hcdl8AkSewqLgiShHAQXInjqapcSqThFCCbJsE355yiyK165OeGQhV23HeoMS3J7TYmiTDkw1zcHddoxD5idvDcCjN1246TxccgmFvzIJUKhPrRGeNewE2WwEqfd2pcwVMgAkwASZwPQmU2d65HhFNNCrFkhH/dDFLhZGb9PDbNAj1g52Y2CkTGnlgKGyGRY4Rm0Jh9Nu7oKQi+mwjK+6sZ4D/Ks9UixzPrfO5kCmwaErndG9zqY2e/LsvazBjrybfnGhwaLgQUU96b+IImLON13McuWwmwASYABP4DwiUuYjSnOj+FCV6VbdCKQX+uqDAkbSC5xRDlC40C7OjQxW7cKluSpDjhEGO7Dyb/4SpXKihsws372lDoFV4NaZ19A7oFE5hdVKitabH0gPbU1XjRJdoOxqF2UXEb3y2FFsvK3AiU1bonrt16jdBp5634uCuLTi6f6ewSDkxASbABJjAjUWgzEU07xKXGwsn94YJMAEmwAQqEwEW0co02txXJsAEmAATKFUCZSaid9XOwW21c/D3OTV+P+fbq7ZUe8OFMQEmwASYABMoQwJlJqJl2CeuigkwASbABJhAmRBgES0TzFwJE2ACTIAJ3IgEWERvxFHlPjEBJsAEmECZELhuIiqTyeBw8OdOymQUuRImwASYABP4TwhcNxHV6XQwGnmDgf9kVLlSJsAEmAATKBMCLKJlgpkrYQJMgAkwgRuRAIvojTiq3CcmwASYABMoEwIsomWCmSthAkyACTCBG5EAi+iNOKrcJybABJgAEygTAiyiZYKZK2ECTIAJMIEbkQCL6I04qtwnJsAEmAATKBMCLKJlgvnaK+lZzYraeic2JypwMrN4n3u79trLtoQmLdujZr2GCA2PRGZaCi6cO4kje3cU2Ijg0Ai07dwdoRFRcDqdSE++jC3r/4bDnud7eblnt+vaCzHVa0OrD0ZmRipOHjmAU8cOFlh2zboN0KRVe4SERSLHYkJyYjx2b10Pq8WcLz+ti+7c6zaEhEZArdEiMzUZu7f+i4y05LKFx7UxASZQpgRYRMsUd8krG93GiM4xFsw/qMfai6qSF1TOz3zo6RfRsHkbSDwfeAXEt1hPHN6P75d+GPBd1tjGLXDv44MRpNEG9MpoyMCKxe8jKeFCwPH+g0aifuMWAcecDgc2rv4Nm1b9FnC8edvOuOuRZyGTB35b9tL50/hx2UIYMtK8+TVaHZ4ZNh5hkVUCyrDZrPjnp6+wf8fGck6dm8cEmEBJCUg6duzoys7OLun5hZ7Hmy2ULtLKIKKdetyKPnc/ghyLGZvX/IHUpERExVRDz9sfICnF8oWzcP5UnBfsS+NnIiQsAqfjDmHn5rUga7BrrztQrVZdJF+Ox8ez3vTmvav/s2jV4WaYTEb88+OXMGSko079xuje7x6R56vFc3D2xBHxt0Kpwuip84WQb1r9G07HHUGQRoPedz2C8KhoxB3ai+8//9Bbdv+BI1G/SQtkZaZj1W/fIMdiQct2XdC0dUeQkFI7MtNTS/eC4NKYABMoFwQkvXr1ciUlJZV6Y24UEY0NdkIC4KRBigYhToSpnDA7JDieIUNOnl0Ng5UuVFG7kGWT4LKZzvKl+sFO5DgkuJDtPh6qdCFS7UJqjgQ1dE5Y7BKcyJQiJsiFmnoHzhrkSLb4zvcX0T1JSsSGOOCCBBeypEi2BNblX28dvRNRQU7YnBJcMhacN0wFRKicMNokyLZL0DDULopINMlwKbe9BV0gCqUS9Ro1R3pKcj6rryQX1LMj3kC1mnWx+rdvsP3fld4i7n9yCJq26oATR/bj2yVzxfHwqBgMGTMFJmMWFs4cjxyzSRzXB4fipTdmCtfujNeGeMsY9sYsBIeG49evP8XBXVu8x58YOga1Yxth15Z1+OfHL8TxWrGN8OTQMULM50wcCYfDzaNZm06473/PIdtowPuTRoljSpUar04hC9mJBdPHITM9xVv2oJcnIbpaTfywdAGOHdxdEiR8DhNgAuWcAIvoVQZoRb80yKUu/HVWizvr+rYxTLPIMWO3HicNvvnJ3jUseKGFEf9e1GDuQY235PaRTrzeIQ3nDCq8vFkvjj/VyIR765mQaFQgRmeDC8Cqczr0rWUEeTJJcJ9dE+EVao+IbrioQfvoHGgUbgW3OiT45HAw1lxSBPQkROnCSy1MaFPFLF4CKJGQ/nRKh29OBrqDH4u14aGGmTiQHIR6oVbocst2uiT4/qQW35xU56MklUoxctIcBGl04rePZo4XluO1pAeeHApdSCj+/G4pUi7He4tq0LQ1HhkwDClJ8Vg0021ddri5D/rd9xjOnDiKrxbNDqj2pfEzQHOl00YP8h4f/uZs6EPCsHzBDJw/fdx7nESRxHHP1vX464fl4nhsk5Z4dOAIMWf64ZQx3ry16jXEky+MFcI9Z9JIcZws06Fjp8GaY8Gs8S8GtOPu/s+iZYeb8fu3n2H/jk3XgobPZQJMoJwSYBG9ysCQiCplTrhcwJ5kFQxWGdpG5SBE5UCyWY4RG0O9QleYiHaMcmJs+zwi2tiEe+uakGiS40S6Et2qm0Qd6y5q0CrSioggO76JC8a3p90fMPeIKIntxSwFzmbJERtsRzWdDTkOKYasC4fBL5bm7Y5ZaBaRg/QcGfYkqaCVu9CmSg5UMic+PxKM3/w+jO4RUaon1SLDgWQVqmgcaBJuhVTiwvv7QrAxIVCkyQIjl6cnfb90PuIO7rkul3n/gSNQv0lLxB3ei+8/c7tRO3bvh7739A+wTj2VDx0zFWFR0QEi+uAzL6Jx87Yi/4/LF8Jus4HmMge/OhlanR6/fLUYh/duF0UoVW53Lo3H4ncnIjnxkjh+6wP/Q/uut+DcqTh8sXCmOBZBFvHYqcJqnf3GSwH9v/3Bp9C2Sw/88e3n2Mfzotfl2uBCmcB/TYBFtIgiuv6iFvMOBoncKhnwWe80IUjjt4bjWIZUHC+JiC4/psfPZ1RY1jsdTgDPrAlD52gHRrdNx65EDabvdVu0HhE9Z1Di5c3B4phMAizokYHIIDt+OhmML064BZfS17emQiZxYdiGCCSa3LZoj2o2DG+VifhsBYZtCPHm9Yio3SnBYBJjqzv/8BYm9Khhwr5kNSbvcluc/unW+x9Ho+ZtkZZ8GT8u/wim7KxSv56jYqrjuVffFgFF5EL11OEvouQufWb4eJhNRny16F0UJKLUMM8cakZaipijjK5eEyqlWlizKxa/F9D2ux8dgBbtugq38KWzp6DR6xFZpSrM2UZ8+9k8XDx7UuTPK6IUGFW1Zm0s+WAKuve7j0W01K8ILpAJlC8CN4SIDhj5JnQ6t7AUlA7v34E1v31XIvJkiSqkTjz0d2TA+fN7ZCBGY8f0XaHYleyO4CyJiC45Eow/zinxSa9MSCRODFwbBr3Sic97p2HPZQ2m7gkU0Y8P6/HPeZ879umGFtwTa8TOy0F4Z487SjVc6cLi3qlIylZi6AYfl0g1sKhXCoxWGZ5eE5ZPRE9lqDFmq08se1S1Y3jrDMQbFRi20Se6JQJZgpPIVTxk7DRotFpQVOznc6d6S/EX0a3r/sJTL74mgnhmvj60QBGlKNsHnhyChs3aCGF0OZ2QymTi740rf8XmNb8HtLBp606457EBkMnkcNjtkEglkEpluBx/HsvmvwNrTk4+EX1vwgiMmb5QBDgtmvWmcDmzJVqCgedTmEAFInBDiOioSe+LtXmFpf07N4l5tpIkElGZ1IVH/o4IOP2DbhmoobNj+u5Q7EoqOxHNu8SlVzUbXmqViX1JQZi8280gVu/CzJtThTuS3L/+SSoBTDYpnlwdnk9E9ydr8PYu31yuUgo8Wt8Go1WCH88GLvUoCcvinENzroNHT0ZkVAzMpmy8N2F4wOl53blPDxsHi9mEbz55v0ARfejZYWjUrDUM6alYtnCmWH9KS2QeeuZFyOUK/PLVJzi0Z6uoQx2kwSuT54m/V/7yNXZuXCX+HjhqImKq18KFMyeEkFLKa4nSHGu12vWE4Pe49X4W0eIMOudlAhWQwA0hohKp251aaHK5AtYXFmecKrKIOlwS2Bz52ZjsUgxel9+dm1dEi8OptPMOGPEmqtasIwJ2aK6R3Ln+qbhzoqOnLhBznZ/OeQuJl857i2rdqTvufPjpAGF88OkX0LhFO5w8egDffPqBNy8teRk9bYEQ3XmTX0WWIYPnREt74Lk8JlDBCNwQIno9mZdERDde0uD9Az6LrluMAyPbpAdG5+YGFhXXnbvwoB6r/TZbuLOWFQOaGQIs0bo6F2Z3S8WFLBVGbnJHA18peeZEy4uIPjb4ZdRr1EwE68ybMlr8P2/q2K0P+t77GE4fP4wVHwfOZ7447h2xy5B/dO5rMxYJ1+yHU8cErNls3LIdHnzqBdA86fxpY0U1z42ejKjoalj/10/53LzD33wX+pBQfL90AeIO7r5idO5djzyDVh27cWDR1S5A/p0JVGACLKJXGbziiOhNMTa83CYTpzMVGL3FZ+m93MqCm6oZsTVBh9n73MtFniqhiK6/qME8v+UzE9pno1WUGWvO67DgsG8pyre3pcJql+LZtWGwUcQSgCi1C/fXs8LikGBZnC8I6VpElIQs7tCegE0QruV+IEEjYSPh/OS9twrdNi8yuiqeHz0F2VmZeP+tl71V0jIWCiByOR14x2+d6JhpC8QmCks+mIyEC2e9+bv1uwfd+92L+Atn8dkHk8XxRwYMR4OmrXDu1DF8sXCWr+zQMLzw2nRhidKcJy3DUamDhOuX1olOH/NcQNcHv/IWqlStgR+XLcDRA7xO9FquCz6XCZRXApKuXbu6MjMzS719N8pmC8UR0To6J2bdnC5211l1XofvTqlBc5aPNTKIpSJvbAvD0XT3utKSiqjDSWs3dVh1QYk7a1txXyytXXVhys5w7Ev1uW6X3JKGEJUTm+M1WHRYI5a4DGmRjVaRFpzJVOBVP5EviYhSoM4rb88DbbhArlb/pSAlvZg69bwVfe56RJx+YNdmEfWbN22jfXEd7jWynrWfZ08exZ/fL4NarcEdDz2FmBq1kZ6ahAXTX/eePvjlt1ClWg1kpqfh1xWLxVrR9jf3Ru87H4ZcocDGVb9hwz8/i/yezRbobwpa+vefnxEeGS22GKTNE9JTkrDgHV/Zjz//Cuo2aAqjIRO/fv0JkuIvgiKXG7dsLzZq+Hj2BHEOJybABG48Arx37lXGtDgiSkXdVzcHTzTKEhsm+Kfdl4MwY68WjtypvZKKaIpZgcigwM3Vj6aq8caOwCUorSNobWo6lFIXaNMEEloRVGSXYsK2UJzJ8gluSUSUxHPMtIXeLubdxKAktwpt73dT7zuveOqscS/AanVHxjZs3hr3Pv4clMrAzSMspmwsmTsV6Sk+EaadjEQUd3CoONfpdIhoW0qn4g7h68VzvPXS3Of9TwxBk1btAEhEXolEKrYBNJuz8e2nc71LXOgkjU6PwS9P8pZNLxWUlyJ/f//mMxzc7dshqSRc+BwmwATKLwEW0auMTY9qOUJ81l0KfFB3jrZCo3Bif4oKqXm23Wsc5kC7SCsahDqRkC3FnhQFdifL4fSLjakfYkctvR0nMpS4YJTi5qpW0ZJNCUoopC50q5aDJJMCh9LcD/rm4TaxAQLlbxjiQKdoK2hDwg3xcmxJ9Llm/btTXetCu8gctIpyiN2KDqTKsOOyEil52ltL50L90BykmuXYn1r0KNwGzVqjU/d+OHPiCHZsWAVbrriV9HKnr6vQ2s0rJdqyj8TJk+jrLbQRA1mCdPzkkf1CFGkT+ryJXK+xjZuLqFzaAjDhwjmQFUt77xaUaG/dWrGNUaNOfbE+9UzcYRFsRNv+5U0030pffKHdlVQaDc4cO4wzJw4jKeFiSXHweUyACVQAAiyiFWCQuIlMgAkwASZQPgmwiJbPceFWMQEmwASYQAUgwCJaAQaJm8gEmAATYALlkwCLaPkcF24VE2ACTIAJVAACLKIVYJC4iUyACTABJlA+CbCIls9x4VYxASbABJhABSBQIUWU1uDl3Uu1ArDmJjIBJsAEmMANRqDCiSh9ZkqlUsFkMt1gQ8HdYQJMgAkwgYpGgEW0oo0Yt5cJMAEmwATKDQEW0XIzFNwQJsAEmAATqGgEWEQr2ohxe5kAE2ACTKDcEGARLTdDwQ1hAkyACTCBikaARbSijRi3lwkwASbABMoNARbRcjMU3BAmwASYABOoaARYRCvaiHF7mQATKBIB+ui6VOr7bq7DbsPuLeuLdG5JM+lDwsV3aHMsZuzfsalExYRHxaB+kxbISE3G8cP7rloG9dPlcmL35nVXzcsZSp8Ai2jpM60UJdK3OZ8fPVn0dd6UMeImruzp8edfQWSVqvjq4/eQcjn+hsRx92MDUbd+E/z1w3KcOLK/XPdx7DsfQS5XeNto005eEgAAIABJREFUt9kw4/Uh17XNtes3xhNDRiMjPQXzp44tUV1NW3fE/U88j+OH9+K7zz68ahmvvbMIDocds8a/eNW8nKH0CbCIlj7TSlGiOkiDVybPE32dPmZwwIeyKwWAAjo5+NW3UCWmBj6Z8xYuXzp/Q2LoP2gE6jduiZ++WIQj+3aU6z7e3PduyOXuj8x36XUHnA4Hi2i5HrGK2TgW0auMW1WNS+RIMElQTeuCXuFEjkOCS9lS2AoxvmQSoJrWCY3cJfImm6XItgdWpJW7EKIEDDYJItVOURaVGaZyIUrtxGWzDJnW/I1Ty4DoICfUchdMdqlol/0KRqBUJkN0tVqwWXOu2Tqi3aJCwiJFo8gSHTDyTfH3RzPfgMvpa0RayuV8Ddfqg6EPCYNMJofZlI30lMv5tm4M0uoQFKSFxZwNm82GyOiqoC0eszIzkJWZfk13WFhkFZAlQu49qiclMV6UHRldDdYcC1KTEwssPywyGhqtDuQKzExPFW33T1pdsGBB6ZGBwxERFYNvlsxFWpKvvGyjQbj3/JNUKkN4VLQ412a1IjMjFTnm/LtwhUdGC07pqUkgN1+QRivam5x4KV97lUo1dMEhsNttMBmzEBlTDVSPKTtLuAYLS6ERUdBq9XA4HYJ1dlZmQFbPuNDBOx5+GrVjG2HlLytw6uhBbz6L2STq8U/E191mDWxW4pcCyldY8lwjcrpGzNlIS85/jXjOlSsUCIuoApVajRxLDjJSk2CzFXDD5J4wZvpCSCApdRFVKlWga4TaY8hIE2NakCVK40gp772h04dAqVLDmJUBa06OyONvif6wbCGiq9aEVCaF0ZAprsG8yd8Svdo14jlXoVSBxl2lVMFisSAjLUncH5yKT4BF9CrMVvRLg1zqwg8n9Hi4ocGbO9mswNSdelzI9s250I/1gp0Y1cqIajrfDW11SDF3vx7bLivglmTgyUYm3FfPhItZStTQW8XxX0/pcU+9LEgkgNkuxYA14bD6CWSjUAdebZ2F8CCfIl8yKjB1tx6XTYHt8DT0gSeHoEmrDuKfv329BAd2bS7+VZJ7Bt2gQ8dOveL5DocD74x9zpuHRLNd117offcjAfNT508fxw9LFwQ8eHve/gBu6n0njh/Zhxq160GjDRblOJ0O/PHdMhzYWbI5Jipj3MzFSIy/gOhqNYSwnDp2ECSAMTVqi/J///ZzHNy1xdtudZAWxK5uw6beY/QiQm7Mg7u3eo/d/dggtGzX5YpM/vj2c+zbsdGbJ7paTdz3v+fFS4InkQD8tuJTHDu4O+DlwvOAPLB7C9p3vcWb/3LCRSyf/06AODdt1RH3P/k8khIuCsGIqlpd5CcRpvr//G5pQDvJm3Dnw0+jUYt24oWCksNux/q/f8K29X97895yd3906dHvin3c/u9KrP7tG2+e4NBwPPTMi6hao473GInELysW4/ihvQFl0TXSpksP9L3n0XzXyI/LFiDbGCjOMdVr4YGnXkBYRJS3HHpR+fKj2QW+XFCm6yGioeGReHrYeOj07uuUrv29W9eD5ijzunNfn7lY5CGvjX8aOGoiqD8/LFuAYwd2i588InrxzAnow8IREhrhPWXVb99g58bVAS+tnmtkz7Z/0bnHrd68SQkXsGz+TORYAl9catZpIK4Teqn1pPTUZHy9eE4+kb/ioPOPggCL6FUuBBJRpcwpRO5spgIGqwwNw6wIkjuRmK3AiI0hsOcqY6Tahfe7pYvfsm1SJGTLEKpyIjLIIWp5dXM4zhjcYvdUYxPurWtCeo4M5w1KtIoyizr2JavRIMQGndKBr46F4Icz7jkdslw/6uUum4QzMVuOWnobqmjsyLTK8NzaMG87/Lv00viZCAlz34R0k/31/bISX/rBoRF4dsR48YCm/0iEKGVn+V4u6EEyb8qr3jqat+2Mex8fLB7k9BZOlgi5PBVKJVKTEvDxuxOFm42SR0Tpb1O2EUmJF4W1ERIaLs5/f9KofNZOUTtDIgqpFMcP7UHdBk3F239acqKop0ad+qItZFGLm0IiwaBXyDVbXbT3wpkT0OiCUbVGbfGQ/37pfMQd3ONtc+uO3cTfao1GWNpkkbmcntclYNWv3+Dw3m0iDz24hoyZIuqnssnaIgvMM0ZL3p+MhItnvd2iB6RMLhfucrI+yUKvWr2WOHbp/CksnTfdK7oeEaWTSZQvnT0FpVqNmOrudm9e+yfW//mDt+zHBo9CvUbNhQVCZVObyGKnvCt/+Ro7N64SeTt264uut9wh/ibLmawuajsJrift2boeG1b+Iv5J3o8XXpsu+iSs5oRL0IWEgoSV2C5fOBPnT8V5z/WIhvsaSYLFlI0qVauDrKXU5AR8PNt3jVAbXxo3Q3gTyNomj0ZIRBTIoqPz35swvEBrt7RFVCKVYtSk93M9AzlIvHgWupAwkLASv6KK6KCXJ4FeqgoSUeoP8Uu4dA6hYZGibEqfzZ2K+POnC71GaDxjatQS1+Klc6ew9EPfNUIvTvRMoHHMMmTAkJaKsKgq0Gj1gtv7b40KGNei3l+VOR+L6FVG3yOiOxI1mLFX435YyoDPe6dCIXNh3NZwxGW4hbFLtA0jWhuEwI3cFOIteVqnbDQKN2Nrgg6z96nFcY+ILj+mx89nVFjeJw0OlwTPrAlDj6oODG+djl2JGkzPrXNQUzNur50tRHbyLp237AXdDYjWWrHsaAh+OesLovBk6NzzVtzU+y5xM/785WJcOHO8VK73os6Jvjh+JkLDIrB13V9Y+8f3+W78j2dP8FoPHhGlm3vu26948740fhZCwsKFNUVWXUkSiSi5wuZPfw23PfCEsI5/XL4Q8RfOiocyvQjQA4SSUqXC6KkL8gl39373olu/e3Dh7Eks+3B6vmYUZU60YfM2eOCJIUhPS8aiXNGmgp54YQxq12uEIwd24adlC/NxWvfXj9iy5g9xnMRo2BuzxN8UTEJjS8kjovTw/eKjWV6han9TH9x6/2PCFU0i40ljp38kBHHJB5ORcMEt3J2690Ofe/qLF56F74zL18eizIlGxVTHc6++LR7GFMjj+eJS/wHDUb9pK5w8egDffPqBt+wXx88QIkHW75rfv/O1Lzcw6JP3JuFy/AVxvEO3Puh372MB7SPRGjZ+lhDqHRtWipeWvKm0RVShUGL0tAXCazR38mjvdAMFBNFLQWmIKE0BzH7jJW9XBo+ahCrVa4oXOHqR8yTPi9a///yETat+F4f9vUZUhmc6gcaWxphe1OiFjRK9kA0fPwsafTDW//UjNudeZyW5zyrjOSyiVxl1ElGF1ImH/na/BXrSgh4ZiNbYMX1XKHYlu4MXCks3xTjwcpt0nDOo8PJmvcjmEdElR4LxxzklPumVCYnEiYFrw6BXOvF57zTsuazB1D1u4Z7Q3oBWUVbM3R+Cf+N9YvlgPSseb2TAtgQNZu1z5y2LVBQRJavh1SkfivnEGa8PDWhW/0EjhTD+/MXHwv1IySOiOzetxsqfV3jzd+55G3rf9TDiL57FZ7k3fnT1WnjoqaFeN2TePpPltsBPBEhEU5LihVVDrmVye9GDnB7o42Z9IqxHsnQphUdWwdDXpiMlKSFA6GiO8flXJ8OQkR5gbXvqLoqIFjY2jVu2x4NPDQW54Ba/O8mbjR6QZPW/M/Z57zHiOnqq+yH6LlleufO0HhGluccP/SJDI6pUFdYvWaczc8dBo9MLS4rmP99/62Vv2WQVkXWUV3A9GYoiomTdkpWbFH8Bi9/z9YVeIB5+5iWkpyRhwTuviyLpheXVKfNFdOmM1wIjZx8eOBxh4ZH49atPkJgbqNX33keFZbxt3d9Y84dPcL3XyPnTwlLLm4oiok++OBYhfi7OvGXEHd6HVb98LQ7rgkMxYsK7yMpIw9wpo71ZaeqEpgFKQ0TPnjwqXNSe1KJdV9zz2EAk03U80x2PQKnga8T9IkhpzsSRXg/OIwOGo0HTVvj7h+XYvdW33MdzT1DE9bdL5hZ2mfLxAgiwiF7lsvDMiT78t29egk75oFsGaujsmL47FLuSfCJaS+fEsJYmRAVZIZO6XXoUaKSSua5JRKd1zkSjMBvM9sBAIrkUCJK7sC8pCJN3a8vsIi+KiJKbcuTEOeIt2P+NurBGekR0y7o/se4Pn9uxRu36eHrY60hOuCjcv5QaNG2NRwYMK7S/eedmiyOinmUKVEbegCAKMjIZDZiTK7j+DSiqiFIwEz0Myfoi1yclsqbIfVmQiOZdvkBzuq/P/FicR5alJ9jJI6LkmiUL35PIrdf33sfEMqR/fvpSHCaLhiwbcmkvnDHem1el1uDVKfMKHbOiiGjLDjfh7v4DcP7UMSxf6LaYKemDQzF8wrsiAGdervB4xJys6aIs0bj70QFo2f4mbPjnZ2xc9Zu37Go164mphrx992QoiojStUrXbGHp0N5t+OVL99xmzXoN8dQLY/ONV2FLXAqbE72SOzfvEhcK6ntp/IyAlxBqS0FLXPyvkTmTRgrXN6Unho5G7djG+O2bJTiw0xcf4bl2zp04ii8W+YS7zB4oFbgiFtGrDB6JKInhI0UQ0Ztj3O5cqcQFmhKzOd0PSEoqmaNURNTmkMJJpkmetD9Z5XU3l8X1WJYiWr12LJ4ZNi5ARGn9X5D2Ci8NLog5H08qiYiSNWu354/4pAfS/Gmv5cNcFBEli5NcfiSa/uVLQCKqvC4iWtD18F+IqMd6uz4iWhfPjnjjmkSU5lUl0vz3locfRRhT5LgQ0diGeGroWCQnXMDHfp6D6yuiEWI+09+SL1xEpfAId4EimifI0GNBs4gW/+nJIlqKIvph90xU1drw3Qk9fjit8i6B6RjlxNj2aaUiou/uDcGWxPxzn8Uf+ms7oygiWlwrw2OJbl3/F9b+7ps/jW3cEo8OGhEgosVtfXFEtFZsIzw5dAwSLpzBkg+mFLmqoojokLFTxTKYTat/w+bVv8OeG5xTv0kr9B84vGARdTowa9wL3nbQHJZw4RXREi1QRKvWwOBX3sr3QNbqQzBy4nvXZIm2aN8V9zw6EBdOH8eyBTO81XvcyrSc58MpY8Tx4l4jd/UfgFYdbsLGlb96A5monHoNm+Ox50aJYLTFs93eCv9UFEu0yAPtJ6IpiZewyM/qr9uwGR5/7uUiu3NpDKpUrVFgYNGJo/vx7ac+1yotVRv08sSCRTTvNSKT47UZ7mvEX0T/N2Q06tRvjN+/+Qz7/aLdW3fqLiK1z5w4gq8WvVscFJU+L4toKYrol31ToZQBeV2/Tze04p5YwzWJ6MiW2ehW3YzPj+rx21mVt9XtoxyoH+LABaMUmxMLnpulkHsKqjlRhC3EinpH+IsoBY8UtsbslSnzQOsXP353AlIvJ3iLHzlpDoI0Onw2dwoSL54Txz0ieurYIXz9yRxv3rsfHYiW7buKZSlff/J+UZsYkK84Iqqiudyp82HONopgI7IYKVGkcIt2XZCTYwYt6cibPCL63ecf5lvG4clL81QUzJN3qUOvOx5C11tuL1BEaX3up+9PRuIlNydyKY96yx2Y4x80Upg7tzBg5BIml/UHb73sdVvTkp7Hn3tFWPH+wV2eMjzu3FW/fo0dG9zRu3kTzVcPGjURRkMGPvALEPPOW144g8/8Xk5o0w6a51387sSAtcw050hR0Us/nIb482dENbQEiq6Tw/t24Ocv3CJBiXZSatmuK+IO7cH3n/uCbjy/j5m6ADKFAh9OHXPNa46pTIpupfl+Wvb03oQRYm0upQ4390a/+x7PJ6IUCEYBYUs/fAcXz57wtpteWOjF5YuFs3Du1DFx3BOtnHdOvvddj4ACBS+ePSkibj1JBBbluUbUGi1eedstwP4u/7seeQatOnbD1vV/Y61fENdDzw5Do2atsXfbBvz5feBSqMKuHz7uJsAiepUroTju3PndDYjRWgOCfHpXt2NQs0wor3FOtG8NO4a0yIDRKsWHB0KwM1mGtpEOjGhlEMthFh0MxcqL+UWUtqKjJR0UIUnzYbu3lM7+mp6HCOHbvmGlWKpBicLk/XeyeXTQKMQ2bi5+pwcvrUdr27mHiLKkNH/aWO8Cco+I0pKXDat+xe4ta9GoeTvc/uCT4iHx69efBqzlLM5NXBwRJZEjsSOX65a1f2Ljql+h04fijoefEizPnjiKLwuYN3romZfQqHkbYSns2LTau3SHXgoo2IfS0NemgRbeHzu4Bz/kRljSHOJt9z9RqDuXLE8K0vnzh+UiQKTv3Y+iQbNW4sH97hvDvA/w4oroqLfeF0sbaLyon7RE45Y7HhLLSwp7YfFENlNwFY27PXeDA3qwewLEaGnLi+PcFihF3NLyl2q1Y3HrvY8Jy/Pff37GJr/5TAoyq9+4heBGS2vSUy+jbace6NC9ryhjwfTXkJHm5tegWWs88qy7zxv+/hlHD+xG/aYtvWtMv/r4XZw5fiTfpUHtoSUi507F4ej+nd6IYfIElGT9MU0njJlO0blS7Nq8VkS1kgfjjgefEhte5A0s8nCjJVW/ff0p0lNT0P3We9G0VXsxp01bBNLLmb+I0gYmm9f+gW3//oPYhs1xV/9nxbz5v3//LDwZASIql4sI5r9+WAZzdraYA6f9d8U18uZw7zh5LE4Sf4qWPx13GI1btUePW+8TxX0+b6o3Urs491dlzssiWooi2rOaDS+1yhQzljkOKVwuQC134ni6Gg3DLNdkiVIzx7fLRtsq7hvN7pSIuVqqKy5dhXHb3FG/edPQsdPELiqU8i4zuZYLn9b7PTr4ZdTz24yAyiOxXDjDtzSC1h0+89I48fD0TyTq9Ma7b7tvEwLvEpfM9ICF4HQezaOR4HqswuK2vTgiSmXT2k8STXpIkqjTukDqM+2k8+XC2bgcn39bP9oBZsiYqULw/RPtf0pBIpSa0brZxwaJsminIgr2ISuM1vPR3G9BgUXUZ5vVIqwyTyJ+v6z4BIf3uNefUiquiDZr00kEAJFI+ydjViaWzpvmFS7/32je8PkxU0CeCP+U1zKlLfc8D2b/fCmXE7B0/nRvRDH9RpsmPDNsfIHXCG1usXfbvwF13fP4ILRom3+DC1rPS2tQ/XfP8pxI1tcdDz0pNtrwT0UNeivoerur/0C06tA14Cfy+NBLRF4RpZfO5159C7TW2j9R0NivKz4NePH0WKK0yYQ2z31Dm0osmvkmzCajtxiyRF1wrymllyL/a+TnLz/Otz2j56XFvx10PdHSGVqvyql4BFhEr8LrwXpmIVbfngx8aNxe24JgpRMb4tVI8Nu1qGWEAz2rWVBD70S2VYLtl5XYkKDA3XXNSLfIsfKCUtTYOtImom33JqtwPEOGe+vSWj8XfjkTJCJ576tnxoUsJbbkcdH2qm5Fm0gbYrROpJil2JWkxNpLhc+R0hwNucBoy7ANK3/2WozFu0wKz01iQwEjtC0ZJQq6oTdz/0Rb1bXt0gu1YhsKN1jihbPCgvC4rzx5PSJKb96Zaalo3LItpDI5Th7ZLyyla0m0vpPaRpZ4vUbNxAYLh/ZsEzy69b1bLP/Ytv6fgCpq1WuIxi3aoVrtekLwzp+OE1/mIEEvLEXF1EBso2ZCGD3xX4f3bA/YVrBO/SagecOo6GrCcicXJLWF1u+RC5Q2xfAkekDaHXZ89sFksf8rrcGkLfwO793uFWZPXpprbda2kxhrsv6KkqrWrItmbTqC/u+w2UDLKg7s2iLaUVgiS5qWSYjtDnPjcE4ePRiwAQCdS3PZDZu3FnN+ZB2dPXFErPX1rGv1L592iGrbtadYK6sKChIu/qMHduHcSbeLM29q2qaTsLSoLSRcZ+IOB+wKVdA5Nes2EONOAVyeRNMQ13Jttep4s7hGaGqCrFwaS2oXWZe0s5B/oihp8sB4Nvug6+no/l1eN70nb1RMNbHLWGpSImg9Kr3sKFRqnDp2QEwj5OV3c5+7xMtl3KG96NrrdkSKayQJh/fuyHeNeOqgCOfYxi0QEh4h7gHyPNA1xan4BFhEi8+Mz7hOBApb4nKdqqsQxfIXOirEMHEjKzEBFtFKPPjlressovlHhEW0vF2l3B4mEEiARZSviHJDgNyVFH1IOxb5B56Umwb+Bw0Z9sZsOF2OEn+b8j9oMlfJBCoVARbRSjXc3FkmwASYABMoTQIsoqVJk8tiAkyACTCBSkWARbRSDTd3lgkwASbABEqTAItoadLkspgAE2ACTKBSEWARrVTDzZ1lAkyACTCB0iTAIlqaNLksJsAEmAATqFQEWEQr1XBzZ5kAE2ACTKA0CbCIliZNLosJMAEmwAQqFQEW0Uo13NxZJsAEmAATKE0CLKKlSZPLYgJMgAkwgUpFgEW0Ug03d5YJMAEmwARKkwCLaGnS5LICCHSOtkHu/kKaSE4XsCWx8M+2XS98kdHVEF2t5hWLp+96Htm3MyAPfQO1dmwjhIVHwWw2IyszDWeOH4bD4QjI17hlO/EBb/+UY7EgPTWp1D89d70YcblMgAmUjACLaMm4/Wdn9atpw/31TNiSoMTy40H/WTuKUvGyPunQKnyCQyL68N+RRTm1VPN06X0nbrn9gSuWScL4ztjnvHmiq9XCky+McX8z0y9dPHsK3y75QHwv0pPGTFsY8I1K70uD04lNq37FlnV/wWG3l2qfuDAmwATKBwEW0fIxDkVuxX31cvBkoyysvajG/IO6Ip/3X2R8trEFWoVLVN29ugkSuP4TEaWPDzdq0daLoF7DZggJi8D5M8fFh48pkcj989OX4m/6ePLLk+dCqVQh+XI86KPa9KFo+gA5fWB856Y1WPnzVwEiKlcovB/TJpuUPoxcvXassFD/+mF5kT+S/V+ME9fJBJhAyQmwiF6FXYjSBQmADKsEwUoXguQuOJwSpOdI4HDrgzfJJIBe4YITQJZVggi1C3KpCzkOCTJySEIKTjoFoJHTWYDZLkGWjWr0JaWUfneffXvtHDxU34hN8Wp8dlTrzURtyXse/ehps9MlQbZNAtMVDCKVzN1+arPVIUGmNX8fPRVSC0NVLqhkLtid7jbnBHo5A/qwvE8a1HJnkUVUoVRBFxwCkzELORZzya/wAs7sP3AE6jdpWai4KVVqjJ46H06HA3MmjYTFbBKlNGnVAQ88OQSGjDTMmzI6QERlcjmmjxkcUFufe/qjU/d+yExPwYdTx5ZqH7gwJsAEygcBFtGrjMOKfmlCVBYcCMWLrdKFoFJKMinw5vZgpFh8gldP78Ssm9OQmSPDyQw12kX7XH47EzWYtU8TILwkuvfWseLxRgZIcoshl+evp4Ox/LjS27J+Nex4vkXGFVt60SjHiI2h3jwKKTC0mQXdaxi9bbY5JPj4cAjWXpLnK6tBiBOTOmYIofOkM5kqTNutQ1pOoKjrFC6Ma2dCozCfuFnsEry9MxRxGbIC21kcEZXJZBg5aQ7UQVohoLPfeKlU75ariWiNug3x9ItjhZX60czxAXU/P3oyXC4XPp494aoiShlen7lY5H9n7PNAoa9Rpdo9LowJMIEyJCDp1auXKykpqdSr1Ol0MBqNpV4uPWBVKhVMJrd1cL0TiahS5hYWk00Gg1WGKhorpBLgQpYKozbpvY9Gj4hSXrIbk01yOFwSxGhtQsjWX9Rh3kG1t8n31LHi6SYGkddodQem6JROkfePM8FYcswtpN1iHHiplVtEpRKXqNvlgijbk+Kz5Ri1KcT77/HtTGhbxSTyZVplUEpd0Cjc/aAXgjV+QqqWufBF31Qh5GSBZtlkCFU5IJO4kGpWYMi/ISIoiBLVuKB7Fqpoc8SxNIsMwUonlDJ3hrFbwnEyMzDIho4XR0TrNGiK/z3/ircvi9+biKT4i6U21FcT0dr1G+OJIaORFH8Bi9+bdNV6aU60IEuULOnhb74Lm82KWeNeuGo5nIEJMIGKR4BF9Cpj5hHRI2lqTNiuE4JHEadf9k0VFuq4reGIy3CLhr+ILj0agl/PuiNR20a4MK5jqhCgAWsihJuU0qe3ZCBUZcdnR4Lx+zm3YDYNs2Ny5wxRz+P/RMKaaxiS1Urp3ro5+F+jLKy7qMbCQ745UcrvETrK9/WtqVBIXRi/NQzHMmSi7odjzejfMBuXjAoM3+gT3Nlds1A3JAdHUoMwcadWlCOXAIt6udv30cEQrLro7ksdvQPv3pwuXLj/WxUBu5OEHZjUwYBmEVbsSNRgxl5NPqrFEVGJRIKBIycgunotpCTGY9HsN0v1ziorEaU+xNSojaSEi1j87sRS7QMXxgSYQPkgwCJaBBFVyJx47J9I2HyeTszvnoEYrR3Td4diV5LbPeoRUbNdiidWhQeU/FW/VDF/OHJjOC4YpQiSubCsbxpyHFI8uTpMWIyUdHIXlvZNFX8/sSpCzJH6p6IEFgUrXFjSJxWGHDkGrg31WsqxwU7MvCkNWVYZnlkTJoolAfy6XwpkUuD5deFIsfisyEfqW9CzqhV/nld7Rb5tpA3jO2TirEGFVzbrvU27OdqBUW3TEW9UYtjG4GsSUTqZhJTmRa05llK/U66HiCqUyoCIXYVCCQo2IlfuFwtn4vzp46XeDy6QCTCB/54Ai2gRRJQszof/jgjIObNrJmJDbJi5OwTbk9xWmkdE/UXKc9LgpjnQK5xYFqcW86hV1C4s7JUq5k8HrHULGiWyAL+5LeWaRDRW78LMm1MRn63EsA0+QdPJgaV9U2CykXC7Rd6/voFrI0QA1JVS3+o2DGmZiYMpQZi00xfYFKkCFt2SglSTHM/965ub9ZRVHEv0et8W10tE/dvtdDqRcjkev6z4RLiFOTEBJnBjEmARLYKIyqQuPJJHRGd0zUT9Yoho3mp8IirHgLU+0bmeIqqVA8uuk4hGqICPK7GIyuVyzJ/+mneYs7MMsNttN+ZTg3vFBJiAlwCLaBFEtCBLdPZNmagbXHRLtDARNeTI8KyfJUpRtV/fem2WaF2dC7O7pSIxW4kX/SzRUCXwae9rs0T7VLes9is2AAAgAElEQVRhaMtMHE5RY8JO35xsdY0Lc3ukIsUsx/PrK7YlWiu2EZ4cOgbJiZcConBpDHvmbtqw/q8fvUNaWGARP2eYABO48QmwiBZBRCk6d8LWcBzODSCiUxb3Ske42oEpO0OxNyVwTrQgd25B1XzVL01EwA5ZF4703GAjWpe6pLd7TvR/KyNgcRQ8J7o1QY3Z+wrfbOG721JFpO3AteGw5K7fbBXhwISO6UizyDF4nU/oPuudgWClHZO2h+Fgmm+JyiutjegUnYMVJ3T46bRKtKl+iB0zumaIyOMhfm7be+vY8FSTTJzKUGPM1vztWto7HVqlAy+tj0Ci+couY6qHttxr3KIdTh47CEO6m0dppau5c1VqNV6dMh85ORbMmTjCu9tQTPVaIuDJlJ2FOZNGsYiW1oBwOUygAhNgES2iiNLc5ey9ISIo6O46FjwQawQtRqFAofhstyhcaU60oGrevcmAOsFW7EtW48s4d0TrA7EmdKlqEctpKPgn74YOfWrYMLRFplhq80WcFhTERCnVIvVGCdO/l/ZJg07hxF9ntfjznFpsjPBUYyMahFqxP1mFt3f5goKGNbegZ02jKPPDA8G4kCVFq0gbBjbLEhHIM3aFYmey+0UhRuPEhz3SRCDU50eDsTVBgTrBTrzQwoAwtQM/nNThqxO+ZTyefs/uYkTdUAtOZajw65kgsSGFJ21JDFy3qtWHYOjYqWLLPdqDdvYbL5bqLXY1EZUrlBgzbYEIbtq85g8c2LUFWp0efe/uj6q16uLMiSP4atG7LKKlOipcGBOomARYRIsgonKpE5k5coSpA7f7+eusDp8c9QlGcUW0RbgDr7XPhDp3HaqnKbR8hKzCo36Wr+c32oFoVlcDIoMC59u2J2ow029pye01bXi2mUFYuv6JhPLNbaG4mCv89Bstn/moZwbC8/SPflt/UYN5BwOXrAxobMGddfOvAU4yyfHa1hDvEh7/epuGOcRmDjS/nDc9mifymbbLe2bYOJGNNoafO2U0jJlX3myiOLff1USUyurS63b0uuNBIaT+yZxtxLKFM5GSeIlFtDjQOS8TuEEJsIgWQUTpwT9oTTiea2ZCLb0dRpsEOy6r8PMZt4vTkyJULjzaMFssS1nityXflaqornXi3rpm1At2iOUmpzJl+POcBmeyCnd5RqpduLWWBSEqh3c3ohMZKqy8EPiFFBLpPjXNqKlzivWcxzPk+PVsEJIKcac+0dCMJmF26JQuJJsk2HZZjdW560Pz9qFHNTu6xpgRrXGJrQSPpinww+mgK24rSEtsulXLCdiUnsr96JAun8Xd777HUa9RM5w9eRR///BFqd5+7W/qLdZvHty1GedOxRVaNm0N2KJdF9BXYChIKP78GWxd95fY9s8/3fbAE2KzhT++/bxU28mFMQEmUP4J8LZ/RRTRvNG55X9ouYVMgAkwASZwvQmwiLKIXu9rjMtnAkyACdywBFhErzK0S27JgELq9G5OcMNeCdwxJsAEmAATKDYBFtFiI+MTmAATYAJMgAm4CbCI8pXABJgAE2ACTKCEBFhESwiOT2MCTIAJMAEmwCLK1wATYAJMgAkwgRISuG4iWsL28GlMgAkwASbABCoMARbRCjNU3FAmwASYABMobwRYRMvbiHB7mAATYAJMoMIQYBGtMEPFDWUCTIAJMIHyRoBFtLyNCLeHCTABJsAEKgwBFtEKM1TcUCbABJgAEyhvBFhEy9uIcHuYABNgAkygwhCodCJK385sFGqHzSnBiUzZFQeqYagD8jzf44zLkOf7bNd/Odr0kexwlRMZVinis90f6PYknQKoqbOjhtYJiwNIMstwxiCD1f+L2MVovFbhQm2dI+AMq1OCk1fhWIwqOCsTYAJMoEIRqHQiqlO4sLRPKsw2KZ5YHX7FwfrslgwEqwI/xD1gTTgyrYFi9V+O+HNNLLi1jhH/XtRh7kHfB8JDlC5M7ZSJqrrA9l/KUmL8dj2ybIV/r7Sw/rSMsGFix8yAn41WGZ5eE/ZfIsC0zkboFU6M3hIsXhY4MQEmwATKioCkZcuWLoej8jx5iiOiw5pbEKp2m20tI03io9kVRUQ/6pmBqCA7Us1ybIrXQCF1oVt1E/RKBw6mqDBpp77Y11htnRNPNbaI88hCbx5pRnkQ0SW9MxCitOOpVRHIthf/5aDYIPgEJsAEmEAuAUmvXr1cSUlJ1xUIuVBJgBwuwOly/03H6G86RkkhBehPex5XIx2XSVziN4dTAntufv8Ge8qjn6hMEgx6lNpdknzlXUlEqS5K/u3y1LO0dzp0SkeRRJTqprKkot0S2JzuMgtL8tw+0nkOlzv/lfKSgFFx5JIe1LhgS/SbW1Mhk7rw3NoIpOW4hSU22ImZN6Uh2ybDU6vzW480JtQWCVyiHTQWhTVbr3Dh8z6pRRZROY157rhcrY9F4ecZK+rXx70yEKy0Y8CaCJj8RLQgjnSt0LnUR2cu64L66CmfGHjG0klj6SiciXi5UCgglUhhs1nhcl1h0K/rHceFMwEmUFYEykREhzQzoU8tE+buC8WGBDmeaJiD+2KzsC1Bg9n7NFDLXPiibyqOpGkwYYfG2/f+sVY81MAgRJcSicYnh0Ow+qI8gM+dtRx4tlk6DiYHIVztQA29VfxOorvoUAjWXPLlL0xEw5UufNgzDUqZC8uOBuPXs8qAOooqokEyYGJHI+qHWoSQ02PUaJXixX/DCrSSHq5nE32US90PXHqwrz6vw6IjqnzXQIcoB15ukyHaSCneqMT+ZCVur5vfnfvdbSmwOaV4fGWgy/qFZjmiXfMPB5YfHQS8e1MaghRuBacatsRr8d7+oAKvxeKIaLtIJ8a2Sxci6in755Mh+OKEIl/ZWjkwqYMRdQP4yfDK5jCkuo1gkRb2yECUxu2q9tie/pJF+vXw35EB5UerXZjWNQMhKod3bI6kqjFhhy4gH4nmV/1SIJEAa84H45aaWbkvREBcmhrjtwfm95wslyswZvpCSCQSnDiyH98umVtW9zHXwwSYwH9EoExEtH/9HDzSIAufH9Xjt7MqTOloRJMIC84Y5Hh1cyhqa114r3sqvo0LwTen3Q/WpxtZcE89o/jbYpeKhxiJBz0oPz0cgr/O+x7Ad9Wy49lmGcLaowdfikkBjcIJrcIh8s/ZG4bNie4gosJEdGZXA2JDrDic6nZ15rUciyqi87sbEKO15oqnDDqFQ7SJrK/n14UjPdcqdPfRjHvqZYt20e9WBxAkd0vBtgQdZu3zzXFWUbswt3s6FDIn7E4JsqwyhKrs4jwS4Lxzoiv6pQpenx0Owe9+rAq6zsj6/KpfqrD4DTlyZNukqKK1iX/vTVJjyu78olFUEW0VYcebHTOEaKWZFeJFKFrrfsn5/bQen8UFivminpmIDLIJftlWmRhHGnvq5/9WRnit9Pk9MhCTK6IF9YnOf+ivQBH9sm8a1HKneFEx2yXQ5r4wnDUo8crmYG8xJKIrckWUyjHZpDDZZKJdNJaHCxBeOvnBp15A45btRDkupxOz3xwGa46f8v9HNzlXywSYwPUjUCYi2r2qHSNaZ+DPsxp8elSDxT0zoVPaYbZLMWBtGAY1seL2OgY8ty4cqRa3T3Vpn3QhQAsPBmPNJSVIAm+vZcEzTY1It8gwaJ3PHekRUTpv4vYwHEqTCRfc0GYm9KhhwvF0JV7f5n5IFiSiZBnfH5slHpTDN4YGCJ0HfVFEtEMVG15rlwmjTYoRG8KQYZVAI3fhg24ZwkL+84wenx7zicaSW8gqsmPe/lBsvSwXAtEo1IEpndNFtY+tjBTCSun5Zmb0q5WNi1kKvLYtWIhATZ0Ts29KL1BEJ7TPRqsosxAjEok15zX460KgBe/p2/TORjQMs2BrvBZzDgQJFzsFJpFQqeUOTNoejkNpgcFURRXRed0yUU1nw/cngrHipNu6j1S7sLBnmnCpPr8+AqkWty15e60cDGqWhfQcOV7ZFIJMq0S8VEztZETt4BzsStRi+l63ZayWud38lD7skSncuUPWkTvXd7P4z4++2saELjEmnM5U4c3tOlgcEkQHOTGnW7p42Xh/Txg2XXa/aPmL6OZ4LT7IZdI8zImJndIhkbgwamMELhgD5181Wh2GvTELcoUS+3ZsxB/ffn797lwumQkwgXJBoExENEgOLOuTihMZSkzeqcfSvik4nqZGvVCrcDdSdGWjMAueWR0hokY1MheW9k0TIvvMmjCvVVhV48KHPVKR4wh0U3pENCFbiZc2+CyKtpEOjO+QLoJrnlsfWqCINg51YlKndDGP+v6+EGxMyO9iFKJehDnRO2pbMLCpEdsTgzBzr9Y7wJ72nc5UY/QWn1VXVeMUlo3/0hSt3IVlfVPFuU+sihBiSWlcuyy0q5KDRYeCsfKCz9X8RjsT2lQx5bNEya08tq0RLSJ9lpDJLsWmS2osOuJzmVPpX/UjN7YTg9ZGBLxATOiQhVaROVh8KBh/+9VJ7SmKiCqlwPK+qcKKzOtWXt4nTViZozaG47zRLdADm2Tjjjpm/HZGi8+P+dzI1bROTGyfBYNVhtFb81vFRQksmtstA9V1dry9IxT7U30vE2PbZKNjjBm/nNZhWZzb8vcX0aHrw5Fk9r1AzL3ZgOp6K+bvD8Xa+PwvJQqFEqogDYyGjHJxg3MjmAATuL4EykREPSJkdkjx/j49pnZJw4pjIejfyICH/47A0t4ZwjL938pIsUShptaF97unItmswJD1IV4CZH182S8FNocEj66MyCdScelqjNvme8iSNfVCczNMNgk+OOh+KHssUXLpHc9QoLrWDr3SibUXNJh/yCcuebEXRUT/18CCB+obseq8Fh8d9olA1SDgw54pSDQq8eJGn8hTHQ/FWlFLZ4VO6Z6LpPnfFhFud6e/iE7tZEDjcCvm7AvBJj+hL2yJi6f9scEOdKtmQ/dqFmH1ku1GfV2Q21cK+PnmthSRfW+yMiAQq7begSoaB5Yd1eOXs4Fu16KIaKgS+LR3ipib3pMc+HLSKtImLMDRm8Nw2uC2AEe2zEa36masOK7H96fyzwkXdisURUQX90oX3oBxW8MQl+FbH/xYAzMeqp+Nlee0WHTEPWb+IvrcOp+lTL/dX9eKpuF2/HVWhT2pV15nfH1vXS6dCTCB8kCgzET0g5sNiAyyY94BPUa2ysLLm0Ixr0caPj0UioHNM8S6zSdXh4uHfIlFNE2NcYUEfXhge0Q0L3yaZ/3zCnOH1yKiFLSzII+IknjN6GJAnRC3YNocPmuH5j3ziui0zploFGYrtoh6+qmRAw/Us+D+WKOYY/7fKnfAkb+IUiBSQeG4X8Zp8du5kouoiLr2658/+9e2huBs1n8nov3rm/FIg6KLaHm4abkNTIAJlB8CZSair7Q2omtVC34/o8XN1SwYuj5MROTuS9agXXQ24tKDMG6b2wVaQ+PCBz1SkWJW4Hk/S5SEYHlfijqV4NF/CrBEiyGiJCQTtoeiV3WajzUK1/Grm8KQaC54nWFxRHTNeS0W+FmitXUuvNctFQlGJV7KtUTvqGXFwGYGJJvlmLknGKcNbhElN+wX/dyWob8l6hHRvC7nIU0t6Fs7MDq3YYgTeqULF4xSJOXpz+JeND9rF/OcB9OkASJKS0RoHrIoqTiWKAUqPXWVjS2ozhEts9G9uhlfn9Dju5Ola4l+3CsdEWoHxm8NxbEMnxv2iYZm3B/LIlqUMec8TIAJ5CdQZiL6cKwFjzY0imUZOU4XXt0cgoU9DCI4JCLIhp/yLHmgdY40lzZobbg3WIQW+7/XzT1X+kSuJUVd8sw50vKDolqi/jsWvX9zJmrqbdiTpMbUAiJRqY7PbklHsMqB0ZvCcDrXcsqLs0e1HAxvlYX9KSq87beZwRMNbLi/fiaOpAbhzR3uF4WnGplwbz0Tfj6twfI4nxs5WOnCZ73zz4mObZOFjjE5+DJOhx9P+6J2KeimcbglYE50WAsLetYwYmu8BrP3B7qoP+mVgTC1HW9tD8eB3GAhjzt92IbwgPnZFuEOUHtI4BNMBQcW0csICaRnvW9eJl/2dS9teWZ1eMBuQp2j7WKt8L4UmXfpz6MNzHi4fnY+13rLCAfGt89EkkmBYRvzbxLhcedSYFFybpBS3nZ4oq/zvoS81cGI5pEWfHciGF/nBj5dyZ17tYdITI3aCA4Jx6ljB1CZNjG5Ghf+nQncqAQk3bp1c6WlpV33/vWubsMLLTOFt3DdhSDMP6QFBcW0jjKJ4JrBayORluNrxsc9MxARZMff57T49YwaKhnQv342Ole1IN5ID1PfXOm1imjDUCfe6pQOpdSFhQdCsPpS/uCidzplo0G4GacyVFhxIkgsM/Gkg2ludySJDkVv0pwtzV0eS5ejpt6Bce0yxdKKz48E47dz7qCgB+rm4H+Ns5CYrcDbO4Nx2eyORB3Y2IxeNU35LNEnG1pwX6xRBNe4LVcZboqx4cWW7m34/Je4NA114u3OaYL14sPBYj6Sgnz61bLg7rrZYgmLv2X4ciszbqqWjXMGJd7ZoxfWa5MwB15vZxDLhN7ZHYadSYHzf/4BUB8fCkZ8tu/3eJPUG3HrEfmdl4Mw/6AWRhvQJsqO19tliijXF9ZHeK3l7lVtGNE6U7ib5+wLFnvyVtU6MbZtFvRKO1ae0xe4fnZ+90zEaG1YeV6LLQluvuQQP5w7LvTvgY0tuKMuRXbL8d4+PRJNUrSJtOP5FgaRf+K2MBzNcL8olFREq9asg2eHvyHWiZ4/fQLLF7xz3e8rroAJMIH/lkCZ7Z1bP9iJGTe5xfrbE3p8c1KFO2tZMaCZQUTfPvpPZIA106e6DYOb+zYh8GCiyNzJO0K9Dzw6fq0iSmUMbmLGbXWyhUiN2hgqlqf4J3LJzropzbthgP9vnoAoOja2jQkdY9wi6J9STHKM2hzqtaqrBLnwThf3wn8SZNpFyL1u0eXdeMHfnUsPdtpggKxI/5SZIxNl5F0n+mZ7I1pFuTd88E8U5PP1CbJmfe5Ssgg/IUtb6V5XS/OzFK1LaV+yGpN35Y+IpQCo6Z2zUD/U780nt6IVx7X4/pQ7SKeO3ompnWmpjDNf2SvP0aYSPqua8k9sb0TLqPxrK6mfg9eFFWjxPtYgBw/Wzwroq9UhwWN+wWdU9vwemYjR2AJ4UH+3xgfh3f2+aOqSiugdDz2NNp27i/LtNhvenTAcdpt7zpsTE2ACNyaBMhNRwvdGe7co/nRKj/2pUkRrnBjaPEssfp+yKzjfBgfNwx14KDZb5KOH3cUsGb46ocPZrEBpaBvpxD31snDOoMJnxwIfynmHjay9sW0Nwtohq8s/jWmTJZZdbLgUhLWXAncsonx1dS7cF2sSUa7+adqukIAvozxYz4rOMWax1tJsB45nKPHxEU2+7fxoyc7TjbNRW28XUbnJZil+Oa3F7XWyxQYD03aHeNeJUn0UoERLaGrp7YLV7ssqXMiWoWtVM/YkafDr2UAL+vaaNrFfbrjavQ1iokmGn05psK+QqFKak4wNsYGWJBmsEmxNCML3p/Nz8O/7kw1zUEtvFZtAeNLai2psiPeJdITahcGi3Q6xrWBGDu3KpMXKPDtPec7vH5uD9tEUTZzLL115xchpOu/2Wja0jrRAJXe3g+bNp+4KjISm47R7VpMwq+gjbXyxJSEIv+TZnYpeKt7okCmYvbcvWLAoSpLJZHh2xJsI0mixa8s6bF37Z1FO4zxMgAlUYAJlKqIVmBM3nQkwASbABJhAPgIsonxRMAEmwASYABMoIQEW0RKC49OYABNgAkyACbCI8jXABJgAE2ACTKCEBFhESwiOT2MCTIAJMAEmwCLK1wATYAJMgAkwgRISYBEtITg+jQkwASbABJjAdRNRnU4Ho9H9UW1OTIAJMAEmwARuRAIsojfiqHKfmAATYAJMoEwIsIiWCWauhAkwASbABG5EAiyiN+Kocp+YABNgAkygTAiwiJYJZq6ECTABJsAEbkQCLKI34qhyn5gAE2ACTKBMCLCIlglmroQJMAEmwARuRAIVXkQj1U7xeS3/RJ/asjiK9vmqqw0qfYbN/RmxPJVc7cSr/O4p15ONPvV2uZTruMYm8ulMgAkwASZwFQIVXkTndTOgmi7ww8fzD+ix9pLve5bXchWs6Of+EPcjf0dcSzH5zv2yb5r4ULUn0Ye5+/9TunWUaoO5MCbABJgAE8hHoMKL6MgWFvy/vauAjupoo3d9k40nBHd3twANwWmp0JbSUiiFQn/ctUhw92LFCzVKDaq4FXd3aNAQl81mff/zzeatZDdkCUEC853TU7I7b+TO7Lvz2UxxP+sl2aHeekZMeYFEp9RLg0pG+idQzE8LTqL818kR4AhwBPIeAqKIiAhLTExMrvf8eZxYNLymGg0KaPMEiToCTlqpVGzhmmiur0JeIUeAI8AReLoIvLIk2q+KFnULaCAXW2C2iKA2iLHivA9OxEmdEBfMuRMOB2J47SQoJdbyN5LlmHHSBxqrEmwThQQYWC0dVYPTIZNYmIb5UCPB2MP+SDe5n0xPSbRRQSO6lk+Fj9wMsQisHyl6MVZf8MOxWPc+22bt3kedsOYwm03Y/N1KXLt45umuKF47R4AjwBF4hRB45UiUyGdGwxSU9rf6UfUmEcQiCwtOMllEmH3SH8di7ERKJCqTmGEyi2CBCOlGEfzkVjY8H69E5FEfp+UyKywVpf11rK4YjQxBSiMUEjPSjWL02ROIFINrwJMnJFre34yJDRIhE1tYn9MMUvgrjKzvOpMInba596f2HzsbfgFBrI8nD+/F3z+tf4WWNx8qR4AjwBF4ugi8ciSqklqwvmU8Q3XMoUBcT5ZALgF6VNIgvLAGlxKUGHvEToxEonKJGTeTFRh7xBc6E1Ap0IQJ9ZMYgY08EIQbKVYtsHY+I76ok4QUnQQjDgYgViuCUgLMCUtBQR89fr3ui2+uuQY8eUKi3cpr0a6UGpcSFJh6whfpRsBPZsEXtdUo4qvH7zf9sPGGzGW1tG7fCbXDmsFkMODX71bg6vlTT3dF8do5AhwBjsArhMArR6ISEVAuwMQ0xatJdhNo9WATxtdLRGy6DL32+NuWgKCJ9twVjESdXYtcFp6EUG8jph0PwIlYq+bappgOPSunYv89byw4622ro3EBMwbXTMC1RCVGHXbWXKmQJyT6aXkt3iylxo0kBUYc8n2sJRoQlA9arQZaTdpjPccLcwQ4AhwBjsCjEXjlSFSA491SOmYO9ZZaI2R9ZEC9/FrEa6X4fHeAE4lS0E+HTCkus8KSUdrfgFkn/HEkxqoBflxWi3fLqBGVIsOFRIkT8q8X1yJaLUff/X4uM+IJiVYIMGNi/UQWgBSfLsXtVCmup0hwI0mOY7HObfFFzxHgCHAEOALPBoFXjkR9ZRYsCU+CSmb1axrNdm1UKja7JVF3eaIzw5JRJgsSJS3XYnH1fUanyTDwX1ct0hMSpb62LKJHhzIa5mcVZVRPW4ArCQqMOfJ42umzWV68FY4AR4Aj8HIj8MqR6LjaGtQI1TCz6NxTPniotbJRGT8LZjaK91gTnR2WjFJZkOjfUT5YdVHp8crxlESFCkv6WlDa34hSfgY0K5rOgo1+u+GHDVflHrfJC3IEOAIcAY7AkyPwUpLo2os++CPKPYmta54AX7kZXXcEQ+0QKVs/1IQRtRPdkigFFvXbG4wHGrt2+VXTJIR4GTH1eABOZvhEmxbWoX+1VBx+4IXZp1W22QlWWFBQZYbWKML1jCAkx6n7piUFL1nQfUcQ1Eb3xxUWVZlZANTDdDHUBvvTH5XR4f2yqTgX54UJx+xtOtZfqFgpaNM1SIiNfvIVw2vgCHAEOAIcARsCovDwcEtcXFyuQ/I8DlvoUTEdbUuk4Z5ahi/P+kBvthNSVKrVbLugkRpF/bQ4cE+FRee8YLQA+ZQWDK2ZirIB+ixJNDpNjolHfVmKSlgBA/pUTWH1DT0QCKHu6sFGjK+XBI1BjLFHAtjnAXILRtVKQ9lALQ49UGHOaS8XrJe+loz8KgN231HhjygFrF5aqwh1R9ZNRbUQHU7FKLH6kooRej4vC4ZUT0O5QC0O3Fdh3hnXut/q1BNVazWAxWLBlu9X4fzJw7k+17xCjgBHgCPwqiKQ54/9c5y4UKUFcxsnwltmP5NW+P7THcFINYhQJ58Jo+skso+J7HQmCQswovxPlcy9T5TyRPUmMcv3dJSDD7wx97Q9Cpe+G1s7DTVD01kxnUkMmdh6MAL9e8C+AMRpXQ9FaFtUj88qp9j8nI5tdPgnBGYL0CDUhME1k1hgEQnlrZKvloTyRkcdDEKU2lWL7T9mFvwCrTmkJw/twd8/b3hV1zofN0eAI8ARyHUEXioSJXQKeVvQvaIG+b0NEGeQDH0+4kAA0jJMpQ3zm/BJxRT4SC0gWryTKsfai94YXDMZCTopxjsE6cxtlMROHppyLBDj6ybDX26CwQKcfOiFxeddNT9qq0s5HZoU0sBLRicWAVEpCsw85c2IOitpUsCI10ukw0/hfARS/32BjERJagSb8GlFNYKUJkbMJjMQp5Vg5QU/XE5yX3fDZm3RsGlb6PVa/P7DGkRdv5zri4hXyBHgCHAEXlUEXjoSfVUnko+bI8AR4AhwBJ49ApxEnz3mvEWOAEeAI8AReEkQ4CT6kkwkHwZHgCPAEeAIPHsEOIk+e8x5ixwBjgBHgCPwkiDASfQlmUg+DI4AR4AjwBF49ghwEn32mPMWOQIcAY4AR+AlQYCT6EsykXwYHAGOAEeAI/DsEchzJCqRSKBQKKDRaJ49WrxFjgBHgCPAEeAIOCDASZQvB44AR4AjwBHgCOQQAU6iOQSOP8YR4AhwBDgCHAFOonwNcAQ4AhwBjgBHIIcIcBLNIXD8MY4AR4AjwBHgCHAS5WuAI8AR4AhwBDgCOUSAk2gOgeOPcQQ4AhwBjgBHgJMoXwNZIqP847IAACAASURBVCCRSiESiWE2GWE2u97R6gl0UpkcgAVGgyHb4mKJBGKxBGazCWaTKdvyvIAdAYlECpHY+a5ajmPOV0jb97qgap0w3Lh0Dj+vX+pxRSKRCBKpDLBYYDRmv+Y9rpgXfGER4CT6wk7N8+/YJ31HoUiJMuwi71OH9+aoQyOnL4cFFswa3Tvb55u2eRdhzV/Hod1/Y/dfP2dbnhewI/B+174oV6WmEyRH9m3Dzt9/5DDlAIFhUxZDobTeF7x0xmgkxsV4VEvxMhXw8f+GITkxHkumjfToGV4obyPASTRvz99T7T2RaNGSZfHXz+tx6lDOSRQiYOaoXtn2tWnbd9Go+Rs4uPsv7P6Tk2i2gDkUaPbG+zYSVfn4QumlwpG927Dj942PUw0vm4FA09ffQ7VaDXD98nn89dPXHuNCJNq513AkJcZhyVROoh4Dl4cLchLNw5P3tLvOSfRpI/x06n+t9Tto0vJNTqJPB95H1spJ9DmA/pyb5CTqwQRUDTKjSwU1QpQmSMRAukGEQ9FKfHtVCaPFXkHDAgZ8Uj4NFxMUUErMqBSsh1gEpOpFWHzWD5eTnH1Wi19LhsEswuab3viwnBreUgt0JuBwtBKrL1lNSe6k28AxCAopgHu3b+KHlfM9GEH2RSpVrwvSBL1UPjAZjbh87gRCCxRB0VLOmmiBwsXxXtc+eHA3Cr84+IryFSiCD7r1Y2asb5bPtjVI5lySH9cuQtv3PoGXtzfzj964fB5//7KBtSWIoImS6Vjl548ixUuDfEypyUn4ecMyJMREuwykWp0whDV/A94qH3JDQZ2ShN1//4LrF89kP+hsSnzQfQAKFi0BmUwOi8UCnTYdJw7uZubmzFKsdHk0b/cB/AOCQL5dKksY7vnrZ5gc/Ls9Bkeyvw0GPfIXKoKY+3dx4dRRNGn1Fhvr3q2/OZnOe4+cBpPJiAO7/mLzo1R6waDX4fL5k9j263duR/A4JFo7rBnqNWnB5t1iNjMNavvmH3D3v+s5xo/WTYfu/ZEYH4PU5ESULl8VEqkE6RoNtm/+HtcyzU2rdzqhbKXquHjmGEqWqYjA4HwwW8xITojHD6sXQKNOdeqLQqFEm/e6gDCXyxUw6PV4cC8Km9Yscir3xgefokSZiti3bQvOHT/g9F3E6++hUo16uH3jCn7fuIZ91yC8NWo3auZULu7hA2xcvSBLLGiNFCpako0vJSkRZ47+i5Zvf+hWEw0MDsW7XXrBNyAQdHypVqPByUN7cWiP83oKzlcAH/YcDK0mDVcvnEGtsHBIpTLodFqcPXYA+7b+luO54Q/mPgKiRo0aWZKSknK9Zh8fH6jV6lyv91mfnVst2ISxdZMgEVnZUmsUQSm1/vvgA2/MPe1tG2NEYR36VUuF3iSGTGKGWi+Bt8zMnjWZReizNwhxWpGt/MbW8RCJWAwCzBYRjGYRvGXWgJqt//lixSWFC36Va9bHOx9/zj6nl96iqcOhTn6y+QvKVwD/Gz4ZYrGYkZrBoGPmQHpZy+QKJ3Nu4eKl8Wn/L9hL9uvF0239oxdal94jkBD7EMtmfmH7nEiUSIWCk2iwRKBKLytm504cwpbvV9nKCiRK7VJAUromDV5e3ixghl6Uc8f1Z4QiSP3w1mje7n0W/MQCl0RgLxsKSvp5w3JcPX8yR+uPcOgzegb8A4MZeWo1asjkSkhlMvZ3Zh9x8TIV0annYDZOEnrZ0Yue5PLZE06BKcOnLoVMLkd6mhpypRJSiZSNKSUpAYEh+WE06PHllOHQpFl/O6NmfMXGb7GYWXCXyWiC0su6wSJC/+eXb1zG6CmJkskyLKItI++U5ES2WfDyVrE+fL9yPm7fvJoj/AoWKYHug8axemgeNRo1FAovRhw0hvVLpuNe1E1b3e0790KlGnWh12nZeqO++PoFsPVImxFaT2mpKbbytBHJX7gYmwsDPaNQsjGkqVPw5eRhtk1Lw4i2IDP3w/u3sWreRKexDJowH94qX6yaPwkx92+z71q174S6jZo7lXt4/w5WzZvgggO1R2OkTSUJrVW5wkrotL4zm3N9/QPZmpJKpWwzYTBo4esXyPp9eM9W7PzD7rumTUjPYRMZVgyDdA1MZhPrL8mef37DgR2/52hu+EO5j4AoIiLCEhPjmdP8cZp/WUh0bpgaJfy12HPXB5tuKBCtEaFGiBGjaydDKrZg2L/BuJVqJUY7iYow9XgAzidIEKy0YHZYMvwVRmyN8sWKi3ZiJBKlOv6974Wl51Qg+mxRRIeelVNhtgAfbwuBPlNQLGkMnw+dBB8/f8RF38dXc8Y9zrS4LUsvA3rxRd+7jQ1LZ0Cv06FGvSZ4vUNX9iN39InmhESJfKKuX8bGNYvYi5U2Am991IP1ZfHUEYxASAQSpRfnd1/Nxf07txAcWgDdB4xjhEMaxf5tm21jGBg5Dz6+/jiw80/s27aZEWh467dR77VWrE4io5wIvchHTF3CSJ82CrRhIIIJb9MetRqGI/reHUYEggj4nT1+EP/u+J0FoZQsVwkduw8ERTivmj8RD+9ZX9REovRinDu+P4qWLIdOnw/BrWsX2XiHTFoIL28frJwbiZgHd1l5IlGqg7S0PzauZZuRanUb4/X3P2EkMntMX7bZcRRPSXTY1CWM7Lf8sBrnjh9k+BHp1G3SgmG/duGUnMDH1hJhQv37cc0i3Lh8jmm6HT8bhEJFSzAN/eev7RGvAonSvK9fOhMx9++AtLZuA8cyUv9z09c4fWQf6wuN/c2O3aBJS8X3K+Yj+l4UQgsWQdd+oyFXKLH11+9w/MBOVpb+HhQ5j0XLEhEnxceyz6l8z6ETGWkTfoKofPwY/iSlKlRBy7c6IisSpTU9Ytoy9vv49ZuvcPH0URBRUoBXoWIlXUi0c5+RKF6qHK5ePIOf1i1mG+BipWj+h7I6VsyNRHzMA2v/MkiU/n3m2L9s3knCmrdDRNv2bNM1P3IQ22Bwef4IcBLNZg6qB5ugkFhwNEbqVHJpeBLyexsZWZ6MtX4nkOjlRDnGHPazlW9fwoDOFZNxI0mJEYesP1ISIlEy9/bYFYRkvZWIfWUWrGsRz/7deXsw0o12zVV4jjSZ0IJFcS/qRi6sIBFGTLNqR8tnjkF8rN1k2mvkNATny//EJEok8OWUEUhNtpIlyfBpS5kpbsWc8YiNvsc+E0j03MlD2PKdXUNt1q4DGjZtg6ibV/HN0pmsLGk4w6cuZqQ8L3KQzSwclC8/yARKxDLriz629mo1bAqF0qodupPY6Pu4fuks+4r6NXzaEpBqu3DiEKhTkx+JMxEmEe/V86ecyvUeNQ1BIfkZkQgmTCJRs9mIueMGICA4H/qOnoFj/+7Ett++g1DekXQFTXTR5KE2bYw0naGTv2RtkXauTXe+0cgTEqX+Dp+yGGp1ChZNGmrrd74ChfH5sElMq1swYTD7nDThek1aQkyLNQu5c+u6zQQskCgRHb3sBaGUkbc+/AxxMQ/w1ayxts8FEr109hh+WW81/5O8/n5X1GzwGq5dOMPcAY5r5MTBXfjnl29tZYU1cuvaJXz31Rzb55/2H4PCxUsx68HJQ3vY57XDItDm3c5O6ynzsKrUboi3P+qRJYkS2dKmh8ZIONGGgaR63cZo17GbE4kSfsMmL2aWjOkjejo1RVgT5o5rRCBRMvlnjmofPnUJ2xw4brQeuTj5l08dAU6iHkBcM8SEAioDAuR2tbBlMS385WZMPxGA4xkEK5DowQdemHtaZau5sLcFi8LjEa2Wo+9+O7kSiZJPtPP2IFtZqZjINY79nRWJetBlj4uQCZKZXMViLJg42Mls9km/0ShaoswTk6i76NwhExcy7WT1/IlMA3Z8QZLPcdefP9nGQDv2Ln1GIvbBXbZjJyENtdeIqUhOisfiKSNsZa0EuBQmowEzHCKCB09cYDOHuQPn7ImD+P371ewrMjsOnriIkW66Ro37d6IQdf0S22BE3bjCzGuZpVT5KggKCYW3jx8z0ZPUrB8Ola8fNq1djKsXrASbExIlzcNRY6L+jZq5gtU3b/wAZkp0FE9INLRwUfQcPAHqlGQc2bfV6flmb3RgWtqcsf3Y57RhGTl92SPXFFkC9m/bwsoIJEqbI9okCeIfEIx+Y2e5WAkEEj26bzu2b/nBVr5Eucpo9vp7TIv/c9M69vmbH3ZHtTqNmF9w/3a7SZPWKa3XzG2Svzyi7bvMNL0hYwNmI661X+LahdNux5UdiRYpWRZd+45iFgMiNEFKlK3IUlwczblEekR+pH3u+su+rumZ6vWaICS0IH775itcOH2UVSOQKG2OaJPkKOQrVal8sfm7lWwzwuX5I8BJ9BFzQO/CPlXS0ayo9SVFfk1BxGILcYNHJJrfC1jaNM4zEhUBG9s8OxJ1fCG7kKibFJecmHPdkejgiQtZMJA7Es2c4iK06Y5EUxLj8eVUO4mS2XXE9GUuJFq3cQumbWclMdH3nIKRipUqz0ymgSGhbIMhCJmJN61bjOi7UewjMsVRkEutBuHsb/LHCrFm9Bx9n9skSgdSjJ6VOyRKGpS7gzT0unTMGz+QjYnaa9C09SPfVnduXQP9RyKQaEz0XaycYycYH78ADBw/12MSdddgViRKwT1k/s1MouT26PvFTKYpksZNG7c+o6ZDq03H3IxNgrt2siPRoqXL4ZPetLG7gxVz7T5Td9G5Aomyd0gWh4hs+W4lM9k7k2gas1hwebER4CT6iPkp4WvG3MYJLOBn1QV/bL9rN+kubJKEIj5Gj0i0sDewKNw9iVLdHz9HTfRRJEp+Jjpswa1PNOoGvv5ymg09Cq7p3GuY28Cix9VEM5NosdIV0KX3cCdNNCi0AHqPmOryQhZeWHRajCe5qdn9PCnAhQ4xyFegECpUqwPym1Fk8poFk9ijgvmTyPOfX79lvjvBtEd+N/K/5TaJ5oomWqgoeg6Z4KJJZYeHJ9/bNNGH97BitoMmGhiCfmNm5g6JOmi+1CfKZ6aUrNjou1jhQNz0neCz/vun9Yw823f+H27fvIINS2dlORyPSTRTe4/SRIlAZ4y0BgU+SuyaKCfR7LB6Eb7nJPqIWagcZMCk+sm4p5ZiwP4Ap5LLwpMQ6u2eRC8myDHuiKNP1IjOFZNwM1mJ4QddfaKf7ghGWkbQqSc+USIKv4BAlgJAfpMnEdKUKECC/DXLZ41BvEMaiTufKKV8dB84DkkJcU4nslCkbIs3P2BpN+sWTbV1iUzF5BMlvxH5jwQRfKKOvh3BJ0ph/ELaAZVv9uYHaBjeGnduXcX6JVafKMnomStgMOoxP3Iw0zxJsvKJPg5GdFKNkOpDKRqCCBoxmXgFLa1oyTL4pO9oJMQ9xLIZ9qhkeqbP6OksQOZJSZQ02nmRA22+z+x9om+jScu3cPzALmz91e43zIzBF7NXMt/noknDbMRP64D6TNqpEOjyONhRWbtPVI35kVZtloTMsKRJUr3L3fhEM5tz3bVLqUCvtXobmX2iEe06IKxpG/x3/RK+XW73iVIdFIEc8cb7LF1ErpCztBfHYCV37WRHomS2HzxhfoZPdAiLniZx5xOlz0dMXcp+YzO/6O2U1kU+c/p9kIVDCBTiJPq4K+75luck+gj8yweYMK1hItKNYvTZG4iUjOCf8IJG9KuexIKC3PlEyc858kAg7qaJWaDQgiaJ8JWbsf22L5ZfcI3O3XPXG6svecNkASIK6tGzagpLefl4W7BLdC4FhPQfO5tFLSbGx2Lp9FFPvII+GzyehepTKsC3y+dCr9eiYrU6eLuTNQjCURMVfJH0kiXSTUlMgNJbxaIjKb/v0J5/sOuPTbY+EYnSy+Pm1Qv4dcNylopStnJNtO9s3ZEvnjoSKUnWQCqBRMkfR7601JQk+AUE4fNhEyGTKVgU7p6/f7HVTWkKpBnu/GMTy62kAI6wZm+gYdPWLD9x0eRhOcJGSNchX+SquRMYQZLvuFbDCBax6Vg3RZt2GziORTQvmT7SltNYuWYDvPXRZ8wU/KQkSi/Z8ycOMU2XNN7KtRrgjQ5ds4zOpSAgylVkObvLZjmZEB03BUJ07k/rluDaxdMMvxr1XkObdz9+ouhmx+jcNQunIObBHXaE3kc9h6BgkeK4cv4Ui1AVJCufqLvJIx9iuw8+ZSlCqxdYA6AoKrbn0EmQyWTMp0pk7ChCCheRFPl3KcJZ8Pc6liNzM20qScpXrYXW73Ri5mFK9xFEwM8xOnfDslm4e+saSwvr2MMagZw5xUWIL7h28Sx+/WYZS4WhfpN/ljZFFJ1NUdoknERz9LN9bg9xEn0E9H4yYHF4IlQyq58rXiODj9wMpdTESE4ssrglUZ1JDIXEOTeFyvfe4yZPlPnVwOpylJ23fbHUgXCF7+hwgTc//Mz6p8WCJRS67+G5nlkN1Uvli8GR81wPMDeZGHlkPvaPwvjpJWPtgsX24tFptfhq9lhGMoIImijt1Mm35iiUFkDpAYIIJEpmLzJZOgqZZ+eM6eeUJ0p5gJQ0L7z4hPJE8L9+s5zlaOZEKNWDIi9pw0JCxEUEI7TjmJ9JUZq9R0+Dl5c1kIyIS+ntzfIihTy/JyVRWiDUtqNvlto6dWQ//soIuHEcp49/AP43fAo7mCGzLJgwCGkZhxc0b9cBZEGguo1GI/PxE2HTnO7951e2acmJCCSq1+tYpLOjUHANpbE4HubwOCRKdVEOJRFNZiGSpGhgx1xioYxgWqe/HYOMHOugiGchhzmrcc+LHID0NGuMRM9hkxFaoFCmdWpkuaCZSdTPPxB9x8y0/QZo00V5pSSZ04k4ieZk1T2/ZziJZoM9aZJT6qtRyEfHXjKkLW6+4Y+KQekoH6TH9OMBOBXnnOJyJNoLXhIRqoRo2DNakxi99wQi1eCcImCNzhXjyzO+GFgjBXKxGWaIsPu2CssuZp2O0XfMLHYyTvT9KKyZPzlXVk/xshXQsdsAtlMncj5/8jDLRS1eugL+/OlrdlKKo1CifoPwVuylQC9dyu37dsVcdspK5hcTvaR/WLWA5URS/VT+8tnjTgRKz5CprnHzdjj27w7mi6V8O0ozEdII3A20fNXaTDMR0ldIQ/lp/TLcyeFBAY5tUFI/+TSFcFu6FeXwnn+w5+9fnbpCGkiXviORL7QgK0vkSeUKFyvFcgEpEElIn6EXNWlC8ycMRkBQCEvHIbMraVD0oqdITdKwHPNEjSYDNn+7EkQ27MAHsxlnjh90S6BCx0iDf++TPshXsDAkDpuXhZOHOp0AVKNuE7R458MMsrNAk5bGTJ3XMqKJc7K4HAOLEmIeMp8yI2qDnpnjKbfTUehkoWq1w5gVw9HS8Ki26dSscpVq2A6iuPffDUbOWQlp57RpINn55yYXbZU+HzRhATvcIyuhbe68cQOYpUaQzn1GoGiJsmx8dEDGv9u2MCsAndbkaLKm8rSh+N/IqfD19WfrhH4HJw/vw9ZfNjg1SScWkYZKUdcU7MflxUZAVKVKFYsQCJGbXX1ZDlsQMKHUE6JAOgSBiNSdZE5xEZ4xZHGLmGOKC5mGJaJH1y+0ya5byjjpJjfnTqiXtMasoggdx820I4mVRD25uoy0OXqh05Fu2ZenK6Ws2qjj0YDucBf6QeYCd1rIk6xr0ojpRCS6iYbIkQgsK2HXkTESNeX46rjMdVOeqJDiQpqo9ao4Or0o966Ks+EnRBdn5DzmFLfM0bkChjSO3FyvLPqZTnMy09zkHh6PO25mNaF5p8hsD7AT8MjNdfK4feblcw8BfnZu7mFpO2whc55oVk24yxPNxe7wql4CBBxJNK8MJ6sUl7zSf95PjsDjIMBJ9HHQyqZsVoctcBLNRZBfsao4ib5iE86Hm+cQ4CSai1OmklkQ6mVBmkGEmPSsj0gTmizuSx5Q4L9U59tdcrFLvKo8joDgkyWfc14R8tuSb9dgMOQ4TSavjJX3kyPASZSvAY4AR4AjwBHgCOQQAU6iOQSOP8YR4AhwBDgCHAFOonwNcAQ4AhwBjgBHIIcIPDUSzWF/+GMcAY4AR4AjwBHIMwhwEs0zU8U7yhHgCHAEOAIvGgKcRF+0GeH94QhwBDgCHIE8gwAn0TwzVbyjHAGOAEeAI/CiIcBJ9EWbEd4fjgBHgCPAEcgzCHASzTNTxTvKEeAIcAQ4Ai8aApxEX7QZ4f3hCHAEOAIcgTyDACfRPDNV9o6+X8qAVsXVuJKgxNwzrndG5sEhue0yXYfmeO/kyzIux3EEheRnl35z4QhwBPImApxEHzFvqyKS4Ct3vmLp891BSNZnfy7u4yyHPpW1rJ0FZ1XQeXCj09rmifCTWy8KH7g3GPc0udufx+l7bpcNyV8IH/UcAl9/f+sVZBYL9DotDu7+GwcdLonuPWoa/ANDHtl8Qmw0VswZ71Jm+NQl7PLpxLhYdom4o9ClzHSvZHZydP927PpjEyv2Yc/BKFGmgvtHLGB3QmrTNbbv6b7Ijj0Gge78pGux6Gozo8GA/du24PDef7Jrmn/PEeAIvEAIcBJ9xGRMrZ+GIKWV1UK99ez/3XcSiebugfErIpIRrDTg0x3BLhd3u+vex2V0iCiajuvJcsw4mfUlwi/QOvOoK0SKnw0aBy+VD1KTk3A36gaCQvIhf6FijEzXfTkN92/fZHV93Gs4fAMC2b9pC0EaHZFRYkKsra3YB/fw89dLnNqu27gFWr3zEfuMyi+eOgKpyYm2MgqlF7oNGmf7W6ib7sJMSoy3fX7y4G7bxc7tOnZHkZJl2HdBwaHsTlEqK9xtunbBZOi06ex7bx9fduGyyscPOp0Wt29cgX9gsPXyb4sFqxdMdrm02iPweCGOAEfguSDASdRD2L9unggfuemFIFEPu5znitV/rRVavNURD+5GYf2SGTAa9KCLl9t90A1V64Thzq1r7PPMQoQ0aMJ8pGvSMG/8gEeO+72ufVCham1o0tTwVvng75/X4+ShvVk+Q+RMWm9SfCyWTB/1yLpJcx4xfRmkUimWzxyD+Nhol/LlqtREh0/7QZ2ajJVzIqFJS2Vl3uvaFxWq1sLtW1exYcnMPDd3vMMcgVcVgWdGouX9zfi8ihoxGglupkjRrIgWMrEFSXox/rjljT33pS5zUDfUhHdLpSHEywyzBXiQJsHGaypcSnLVBOvlN+KdkhqEKM2QSSzQm0S4kSzDD9e8cVvtau58o7gBzYqkI0Bhgt4kxu1UCdZdVuFBFqZRT0i0fn49PiijxYmHCnx3XWEbTwkfC/pXT8UDtQxzMnyYg6tpUMTXyMoU8TFAKrYgKkXOTLSCjD3ii3Sjte+NCxjRvrTdJEifJaRLMPWkKsu1G1HYiLbFNQhSmGE0A/fTJPj2qgo3Upzxm9ZADYXEjG8uq9ChrAahXibozSKcj5dhwxWvLLXjtu93QfkqtZCcGI8fVy9EmtpKCDmV8NbvoHHLN3Fs/w5s2/y9rRrSTD/oNgCpKYn4Zf2yJyLR/mNnMzPquROHULV2Q/b/Ld+vemYkWu+1Vmj5VkdcOnMcv2ywj4U0YLYRSFNj0eRhOYWQP8cR4Ag8YwREDRo0sKSmPtnLz5M+1wg2Y1y9BEZuRHLpBjFEIsBLambEMetEII7GSGxVtSqqR4/KqZCILEjRSyARASoZEZ4Ik48F4mKinQhK+lowPSyBkbLBLILOKGZlqf7YdCl67Qlw6mLfKlo0K6pmn+moP2ILxCJAYxBj1KEA3EtzJWlPSLR5ES36VFVj711vLDpnN7PWy2fGyDoJiEpRYMgBX9buzIYpKBNgNRFnJZ/sCGZ3k5J0KKXHh+VTnIo+1MjQZ6+/28c7ldXj3dIpDAPCjPCTiC3QmcQYfyQA15PtY/y2ZSKUUhPDTSy2IN0ohm8GfufjFYg8au2zo8gVSpBvUZCNaxbi+sWzniyFLMvUD2+FFm92RFJCLL5ePAPqlCSP6vNUEyWiGjxxAfNP/rh6EboNHIukhDgsmTYyy3ZyWxN9rc07aNLiTZw5uh9//LjOo/HxQhwBjsCLi4AoIiLCEhMT89R7KJAoNfRPlA9WXlRCLgZ6VU5HeJE0RmZdtgfDlKGKUVBPoNKIjVd98eMNBWRi4OOyWrxZSo3oNCn67rMT45BqGjQqrMHlBAWmn/SB2iBCcR8zRtdOgb/ChFUX/LHznlXT9ZJa8E1Lq29r1QU/bL0jRz6lBYNrpKJsgB6HHnhhzmlX7S63SZTaDJBbBzuidiqClAZMOBwErUNg0Y1UMdPASQIVQIjCzP5dxt+EHlWS8SgS/aZlAtug/HjNBz/dUMJPbkHvKmmoHarFlQQ5vjjiZ5tzgUTjtVKMOOCPJL0IDfMbMahGMiPeiUeCcC7BeWNBZtZeI6ciMDgUBr0eK+dFIjHuydZRQFAIeg6bBLlcwcyd+7duxs1rl5AU/+h6PSXRsOZvIKLtu7hy/hR+WreYaX5e3j4uflHHHwMn0af+auANcATyNALPnETVBgm67rAGhJD4yy1Y09xKakSiGiNphmBERxrRpzvtZfN7WbC0qfXzztuDbHWMrqVBnfwaHH7gjdmnHx1oE6w0Y0VEAtR6KbrtCrCRVFh+E4bWSkR0mgx997lqd7lNoo6r5nEDi2qFmDCmbmKWJEqbk29bxUFrlKDbzkAYM4i4cqAZkxokIEknwWe77LgKJDrhSCDOJditAXMapaCknx5fnffHtjsytwu9VIWqLDiG/Je5IVXrNEKb9p1Ami6JxWzGreuXsfvPTYi+d9ttE56SKAUjURTtT+uW4Mr5kyxCtkyFqtjx+484sner27o5iebGrPI6OAIvLwLPnERjNDL0djBBKiXA7EbJID1n+EE/RqJFVRYseC0eSTopVl90zoMkjdFkFuHDbcG2WWlexIjeVZKY6fJWsgKnY2W4lCTBQ40EdzOZZmsGmzG2nrNplSoKVgArmsUhWSdBdweCERrJSyRa2teCWY3j8SBNjn777BqnnwxY2yKOma277LBvQgQSO/NfjwAAB6RJREFU7bErCIk6u8Y5rk4qauTTYc1FP/wZJX9mvwJfvwA0jGiL0hWrgbRT0nqNRiOWTh/JonYzi6ckOnjCAhYdu3rBJETfjUKdRs3Quv3HuHT2uFtfK7XDSfSZTTtviCOQJxF47iTqDjWBREmBslhcg4IMJhE6OWiiVEe/Kho0KKhlJkxBLBZgxx0Vll+wE7FAov+lKDA0wz9p1YiBNc1fLhK9nyZHfwcSVUmB9S1ffBJ1XBMlylZG+497MvKj9Ja1i6bmiETJHzpk0kKWe0o5niQ+vgGoXLMeS3HJKpiHk2iefK/xTnMEnhkCLyaJeluwINxVk/IEFQriqRpsQIUgHUr46VnA0LJzAdhx1+oTrRFkxrj6rppooBxYlUskuu+uNxY6BBbVDzVjRG3XNoXx5LY5t5SvBbPdaKK+MmDdC6yJ+vjSAQsipKlTWA6nICpffwyKnMf+nDGqF0xGg9NS8EQTjXj9PYQ1e93tEiKT8aLJw6FOddVyc51EW7+DJi3fxJlj/+KPjWud+hMcWoDlwybE8hOMPPmt8zIcgRcBgReSRAmYTW3iodaTaTXAlvZBhOgrs7C/UxxODVJJLcyUS6ZgIRCH6hhaQ4Owghpsi1LhqwyzMD2/rkU8krRS9Nhtr7tuPjNG1UlArEaGXm4iXtc1T2SnCv1vdxDitO4PWwgvpMOA6qk4FSPHlBN2M2rnsga0L5OM83HeiDzm6rMVSPSzncEsqCc7yc4nSs//1CYO5H8m07SACaUZTQtLQIpOgm5ufKI5Med6q3yh1+tyxSfab8xs+AcG4YdVC3Dj8jkbDKSFkimWZPaYPtDrdI9Not0HjUfBIsWx+btVuH3ziu35dh27oWTZSti/fQv2bd3sAn1ukyil1bz1UQ9cu3gWP65ZaGvPxy8QA8fPYWk8iybxFJfsfgP8e47Ai4LAC0ui61oksjSLuSf9ceihNailarAJkfUSoTGK0cXBnLsyIgFBSjN+u+GL768pWCCNVAxMrqdGuUAt/rjlg7WXrYEq3lILNmRE5/bbG4SH6WKmrY6qqUbNUC3Oxiox8biPy/wsCEtFUX8djjxQYcFZL6d8TkOG0lQrxIgxdZOgNYrRbVcQDCZALgHWNEuAUmrGt5f98MstV9/ioiYpKOyjx6Zrfvj5pv17oV7qDAVbCVIzxISRtRMRo5FiwH57lLJj+e9bxUMusWDS0QCcS5CyMfaomI6WxdIQlSLDkAP24Kmc+kQ/Hz4Z+fIXYlrj0hmjkZwQ90Tr+sMeg1G6QhXcvnkV36+Yx078EYsl6NCtP/s8LSUZCyYNcWnDE02U0nEoWGnVvIl4eN8eoFS9bmMQkf53/RK+XT4nRyRKPluRmNaRGEMnf8mOFFwxNxJ07CCJyWjNByYpU7EaOn42EAa9DvMjBzFfr1gixudDJiEoND+uXzqHjauzP3bwiYDmD3MEOAK5hsALS6Idy+jxQdkURlaU20jaFPk7SU/be9cHi85ZSZHkozIGvF82mf2bypHPlHJRiTgoCGnkwSDcSrVreFPqaVAxWMPqpvL0DZUlH+qYQ0G44pBDKbRRLciMyPoJ7E8q5yidt4ew1BSqZ0bDVJQJ0LG6TWZrvfSfwSTGZ7uDkOZsiWTVUOrOu2WseatC3fQ85YkKhy0sb5qEEGXGy1hkbStzX3rssmuyA6ul47XCaawMpQ3Zxkh9PBaE43GueaKPo4mSj3HYlMU2GLZsXI1zxw4+0cLMX7gYug0Yy86TJbMmmVnJvEsERX/TObfxMa6nAHlCol/MXgWz2YTZY/o6kVqx0uXRpfcIaNSpmD9hkEv/PdFE6azfkuUqsWepv9Z5sS+S+ZED2WlKGQXQc3AkQgsVdRkjfU85q5S7yoUjwBHIGwg8MxIV0iuySiHJDBcRT9NCRvSolAJFRrCQ1iTGD1d88UeUzEkTpGffKWFAx3IpTPsShKJ7F53xw5l4Z/MrHTzwSXkd2hZPhSTjq4R0KWae9MP1TKf5OParQagJ3SupEeRlsJEYI8FtVhIlIY2xb5V0NC6UxkzMJP8lKzHpuCrLg+ulIqBTWR1aFEuDSmb3BXbe7kyi+bzsGo275fXJ9hCkZRShMb5dkk5QSmUbChIy484/7Y+zmXI+NzRPgLfcjKxIdOUFP/xzO7MGLcJnQ8ajQKFiMBj0+GrWWHZy0ZMK5Z2+17U3Oy/XNo/xsSygSDgiL3MbXt4qDJ64EFo69i9yoEsXIt54H2ERbd0eG0gEPWzSl5DK5Zg+oqfLs3S6EZ1yRDmwpG27k07/G8pMwu6EyHTuuP62s3OpjFQmwxsdPkXlmvVtpJucGIcNS2flCoZPOgf8eY4AR8BzBETVq1e3kEnpRRUiA/JjkqQZRXA0WWbuM+VHesssoExHKqfO5CPNXJ4ITyWzMI2RDmjIpGA+ESQKidV0TLeykK/2eQmZtX2kFqZxp+byGGlMPn4B0KansVtIclPI9CpXKGA2mbMkz9xs73nURWRKt8bQ7482AFw4AhyBvIfAMzs7N+9Bw3vMEeAIcAQ4AhyBRyPASZSvEI4AR4AjwBHgCOQQAU6iOQSOP8YR4AhwBDgCHAFOonwNcAQ4AhwBjgBHIIcI/B9Z0XKXj5WoNgAAAABJRU5ErkJggg==;" vertex="1" parent="1">
          <mxGeometry x="530" y="70" width="465" height="520" as="geometry" />
        </mxCell>
        <mxCell id="xnBWiJWbl3rXT1r4FCQX-14" value="" style="shape=flexArrow;endArrow=classic;html=1;rounded=0;fontSize=18;" edge="1" parent="1">
          <mxGeometry width="50" height="50" relative="1" as="geometry">
            <mxPoint x="410" y="134.5" as="sourcePoint" />
            <mxPoint x="480" y="134.5" as="targetPoint" />
          </mxGeometry>
        </mxCell>
        <mxCell id="xnBWiJWbl3rXT1r4FCQX-17" value="" style="endArrow=none;dashed=1;html=1;rounded=0;strokeColor=#6c8ebf;strokeWidth=2;fontSize=18;entryX=-0.002;entryY=0.427;entryDx=0;entryDy=0;entryPerimeter=0;exitX=0.5;exitY=0;exitDx=0;exitDy=0;fillColor=#dae8fc;" edge="1" parent="1" source="xnBWiJWbl3rXT1r4FCQX-11" target="xnBWiJWbl3rXT1r4FCQX-13">
          <mxGeometry width="50" height="50" relative="1" as="geometry">
            <mxPoint x="300" y="610" as="sourcePoint" />
            <mxPoint x="350" y="560" as="targetPoint" />
          </mxGeometry>
        </mxCell>
        <mxCell id="xnBWiJWbl3rXT1r4FCQX-20" value="ZK" style="shape=cylinder3;whiteSpace=wrap;html=1;boundedLbl=1;backgroundOutline=1;size=15;fontSize=18;" vertex="1" parent="1">
          <mxGeometry x="360" y="470" width="60" height="80" as="geometry" />
        </mxCell>
        <mxCell id="xnBWiJWbl3rXT1r4FCQX-23" style="edgeStyle=orthogonalEdgeStyle;rounded=0;orthogonalLoop=1;jettySize=auto;html=1;exitX=0.75;exitY=0;exitDx=0;exitDy=0;fontSize=18;entryX=0.75;entryY=1;entryDx=0;entryDy=0;strokeWidth=2;strokeColor=#d79b00;fillColor=#ffe6cc;startArrow=classic;startFill=1;" edge="1" parent="1">
          <mxGeometry relative="1" as="geometry">
            <mxPoint x="224" y="280" as="targetPoint" />
            <mxPoint x="224" y="340" as="sourcePoint" />
          </mxGeometry>
        </mxCell>
        <mxCell id="xnBWiJWbl3rXT1r4FCQX-27" value="&lt;font color=&quot;#d79b00&quot;&gt;:2181&lt;/font&gt;" style="edgeLabel;html=1;align=center;verticalAlign=middle;resizable=0;points=[];fontSize=14;fontColor=#FF9999;" vertex="1" connectable="0" parent="xnBWiJWbl3rXT1r4FCQX-23">
          <mxGeometry x="-0.1" relative="1" as="geometry">
            <mxPoint as="offset" />
          </mxGeometry>
        </mxCell>
      </root>
    </mxGraphModel>
  </diagram>
</mxfile>
